<svg width="160" height="32" viewBox="0 0 160 32" fill="none" xmlns="http://www.w3.org/2000/svg">
<path d="M152.513 7.62549H157.563V29.9999H152.513V20.9223L148.869 28.5296H143.883L140.207 20.9223V29.9999H135.188V7.62549H140.207V9.76704L146.376 23.0958L152.513 9.76704V7.62549Z" fill="#D8922A"/>
<path d="M113.486 7.62549H132.984V12.0364H125.76V29.9999H120.742V12.0364H113.486V7.62549Z" fill="#D8922A"/>
<path d="M111.618 7.62549V15.2328L106.856 18.8127L111.618 22.3926V29.9999H106.6V24.5981L102.861 21.8173L99.1208 24.5981V29.9999H94.1025V22.3926L98.929 18.8447L94.1025 15.2328V7.62549H99.1208V13.0273L102.956 15.904L106.6 13.2191V7.62549H111.618Z" fill="#D8922A"/>
<path d="M88.114 12.7397L90.9268 15.5525V27.1872L88.114 30H77.3743L74.5615 27.1872V15.5525L77.3743 12.7397H88.114ZM86.2921 25.9726V16.7671H79.1962V25.9726H86.2921Z" fill="#D8922A"/>
<path d="M71.2109 9.92695H66.5762V5.32422H71.2109V9.92695ZM71.2109 30H66.5762V12.7397H71.2109V30Z" fill="#D8922A"/>
<path d="M63.6672 16.7671H55.037V25.9726H63.6672V30H53.2151L50.4023 27.1872V15.5525L53.2151 12.7397H63.6672V16.7671Z" fill="#D8922A"/>
<path d="M47.0507 30H42.416V2H47.0507V30Z" fill="#D8922A"/>
<path d="M25.2776 12.7397H38.8301V30H25.2776L22.4648 27.1872V15.5525L25.2776 12.7397ZM27.0995 25.9726H34.1954V16.7671H27.0995V25.9726Z" fill="#D8922A"/>
<path d="M19.5657 15.1369H14.5474V12.0364H7.2917V25.5889H14.5474V22.4885H19.5657V27.1871L16.7529 29.9999H5.08622L2.27344 27.1871V10.4383L5.08622 7.62549H16.7529L19.5657 10.4383V15.1369Z" fill="#D8922A"/>
<path fill-rule="evenodd" clip-rule="evenodd" d="M2.27344 16V27.1872L5.08622 30H16.7529L19.5657 27.1872V22.4886H14.5474V25.589H7.2917V16H2.27344ZM22.4653 16V27.1872L25.2781 30H38.8306V16H22.4653ZM42.4165 16V30H47.0512V16H42.4165ZM149.643 16H157.563V30H152.513V20.9224L148.869 28.5297H143.882L140.207 20.9224V30H135.188V16H143.091L146.376 23.0959L149.643 16ZM120.742 16H125.761V30H120.742V16ZM95.1279 16H110.598L106.856 18.8128L111.619 22.3927V30H106.601V24.5982L102.861 21.8174L99.1211 24.5982V30H94.1029V22.3927L98.9293 18.8448L95.1279 16ZM74.562 16H90.9273V27.1872L88.1145 30H77.3748L74.562 27.1872V16ZM66.5764 16H71.2111V30H66.5764V16ZM50.4021 16H63.667V16.7671H55.0368V25.9726H63.667V30H53.2149L50.4021 27.1872V16ZM86.2926 25.9726V16.7671H79.1967V25.9726H86.2926ZM27.1 25.9726H34.1959V16.7671H27.1V25.9726Z" fill="#CF7C01"/>
<path d="M152.513 6.62549H151.513V7.62549V9.54788L146.373 20.7099L141.207 9.54684V7.62549V6.62549H140.207H135.188H134.188V7.62549V29.9999V30.9999H135.188H140.207H141.207V29.9999V25.2903L142.982 28.9646L143.255 29.5296H143.883H148.869H149.499L149.771 28.9616L151.513 25.3248V29.9999V30.9999H152.513H157.563H158.563V29.9999V7.62549V6.62549H157.563H152.513Z" stroke="#D8922A" stroke-width="2"/>
<path d="M113.486 6.62549H112.486V7.62549V12.0364V13.0364H113.486H119.742V29.9999V30.9999H120.742H125.76H126.76V29.9999V13.0364H132.984H133.984V12.0364V7.62549V6.62549H132.984H113.486Z" stroke="#D8922A" stroke-width="2"/>
<path d="M112.618 7.62549V6.62549H111.618H106.6H105.6V7.62549V12.7138L102.962 14.658L100.121 12.5273V7.62549V6.62549H99.1208H94.1025H93.1025V7.62549V15.2328V15.7334L93.5034 16.0334L97.2504 18.8375L93.5103 21.5869L93.1025 21.8866V22.3926V29.9999V30.9999H94.1025H99.1208H100.121V29.9999V25.1006L102.861 23.0634L105.6 25.1006V29.9999V30.9999H106.6H111.618H112.618V29.9999V22.3926V21.8933L112.219 21.5932L108.52 18.8127L112.219 16.0321L112.618 15.7321V15.2328V7.62549Z" stroke="#D8922A" stroke-width="2"/>
<path d="M88.8211 12.0326L88.5282 11.7397H88.114H77.3743H76.9601L76.6672 12.0326L73.8544 14.8454L73.5615 15.1383V15.5525V27.1872V27.6014L73.8544 27.8943L76.6672 30.7071L76.9601 31H77.3743H88.114H88.5282L88.8211 30.7071L91.6339 27.8943L91.9268 27.6014V27.1872V15.5525V15.1383L91.6339 14.8454L88.8211 12.0326ZM80.1962 17.7671H85.2921V24.9726H80.1962V17.7671Z" stroke="#D8922A" stroke-width="2"/>
<path d="M71.2109 10.927H72.2109V9.92695V5.32422V4.32422H71.2109H66.5762H65.5762V5.32422V9.92695V10.927H66.5762H71.2109ZM71.2109 31H72.2109V30V12.7397V11.7397H71.2109H66.5762H65.5762V12.7397V30V31H66.5762H71.2109Z" stroke="#D8922A" stroke-width="2"/>
<path d="M63.6672 17.7671H64.6672V16.7671V12.7397V11.7397H63.6672H53.2151H52.8009L52.508 12.0326L49.6952 14.8454L49.4023 15.1383V15.5525V27.1872V27.6014L49.6952 27.8943L52.508 30.7071L52.8009 31H53.2151H63.6672H64.6672V30V25.9726V24.9726H63.6672H56.037V17.7671H63.6672Z" stroke="#D8922A" stroke-width="2"/>
<path d="M47.0507 31H48.0507V30V2V1H47.0507H42.416H41.416V2V30V31H42.416H47.0507Z" stroke="#D8922A" stroke-width="2"/>
<path d="M25.2776 11.7397H24.8634L24.5705 12.0326L21.7577 14.8454L21.4648 15.1383V15.5525V27.1872V27.6014L21.7577 27.8943L24.5705 30.7071L24.8634 31H25.2776H38.8301H39.8301V30V12.7397V11.7397H38.8301H25.2776ZM33.1954 17.7671V24.9726H28.0995V17.7671H33.1954Z" stroke="#D8922A" stroke-width="2"/>
<path d="M19.5657 16.1369H20.5657V15.1369V10.4383V10.0241L20.2728 9.73116L17.46 6.91838L17.1671 6.62549H16.7529H5.08622H4.67201L4.37911 6.91838L1.56633 9.73116L1.27344 10.0241V10.4383V27.1871V27.6013L1.56633 27.8942L4.37911 30.707L4.67201 30.9999H5.08622H16.7529H17.1671L17.46 30.707L20.2728 27.8942L20.5657 27.6013V27.1871V22.4885V21.4885H19.5657H14.5474H13.5474V22.4885V24.5889H8.2917V13.0364H13.5474V15.1369V16.1369H14.5474H19.5657Z" stroke="#D8922A" stroke-width="2"/>
</svg>
