<svg width="14" height="16" viewBox="0 0 14 16" fill="none" xmlns="http://www.w3.org/2000/svg">
<path d="M6.57346 7.70722C7.63229 7.70722 8.54915 7.32746 9.29829 6.5782C10.0474 5.82906 10.4272 4.91244 10.4272 3.85349C10.4272 2.7949 10.0474 1.87816 9.29817 1.12878C8.54891 0.379758 7.63216 0 6.57346 0C5.5145 0 4.59789 0.379758 3.84875 1.1289C3.09961 1.87804 2.71973 2.79478 2.71973 3.85349C2.71973 4.91244 3.09961 5.82918 3.84887 6.57832C4.59813 7.32734 5.51487 7.70722 6.57346 7.70722Z" fill="#282828"/>
<path d="M13.3164 12.3031C13.2948 11.9914 13.2511 11.6513 13.1868 11.2921C13.1218 10.9303 13.0382 10.5883 12.9381 10.2757C12.8347 9.95256 12.6941 9.63347 12.5203 9.32769C12.3399 9.01031 12.128 8.73394 11.8902 8.50652C11.6415 8.26861 11.3371 8.07733 10.985 7.9378C10.6342 7.79901 10.2454 7.7287 9.82951 7.7287C9.66619 7.7287 9.50823 7.79571 9.20318 7.99432C9.01543 8.11676 8.79583 8.25836 8.55072 8.41497C8.34112 8.54852 8.05719 8.67364 7.70648 8.78692C7.36432 8.89764 7.01691 8.95379 6.67402 8.95379C6.33113 8.95379 5.98384 8.89764 5.64131 8.78692C5.29098 8.67376 5.00704 8.54864 4.79769 8.41509C4.5549 8.25994 4.33517 8.11834 4.14462 7.9942C3.83994 7.79559 3.68186 7.72858 3.51853 7.72858C3.10252 7.72858 2.71385 7.79901 2.36314 7.93793C2.01134 8.07721 1.70677 8.26849 1.45787 8.50665C1.22021 8.73418 1.00817 9.01043 0.827997 9.32769C0.654292 9.63347 0.513668 9.95244 0.410153 10.2758C0.310178 10.5884 0.226561 10.9303 0.16162 11.2921C0.0972893 11.6508 0.0535885 11.991 0.0319822 12.3035C0.0107421 12.6096 0 12.9274 0 13.2483C0 14.0835 0.265501 14.7597 0.789056 15.2583C1.30614 15.7504 1.99034 16 2.82237 16H10.5264C11.3584 16 12.0424 15.7505 12.5596 15.2583C13.0833 14.76 13.3488 14.0838 13.3488 13.2482C13.3487 12.9258 13.3378 12.6078 13.3164 12.3031Z" fill="#282828"/>
</svg>
