<svg width="20" height="24" viewBox="0 0 20 24" fill="none" xmlns="http://www.w3.org/2000/svg">
<path d="M17.3781 23.2878H2.61733C1.17328 23.2833 0.00451263 22.1145 0 20.6705V19.5152C0 16.6903 1.18682 13.9963 3.27617 12.0965C4.14711 11.3068 5.44223 11.1985 6.4305 11.8347C7.46389 12.4981 8.69584 12.8501 9.99999 12.8501C11.3041 12.8501 12.5361 12.4981 13.5695 11.8347C14.5578 11.1985 15.8529 11.3068 16.7238 12.0965C18.8132 13.9963 20.0045 16.6903 20 19.5152V20.6705C19.9955 22.119 18.8222 23.2878 17.3781 23.2878ZM5.02256 12.3221C4.59837 12.3221 4.19224 12.48 3.88086 12.7643C1.98105 14.4927 0.898014 16.9476 0.898014 19.5152V20.6705C0.902526 21.6181 1.66516 22.3808 2.61281 22.3853H17.3736C18.3213 22.3853 19.0884 21.6181 19.0884 20.6705V19.5152C19.0884 16.9476 18.0054 14.4972 16.1056 12.7643C15.537 12.2499 14.6931 12.1777 14.0478 12.5929C12.87 13.351 11.4666 13.7526 9.99097 13.7526C8.51534 13.7526 7.11191 13.351 5.93411 12.5929C5.66787 12.4169 5.34747 12.3221 5.02256 12.3221Z" fill="#666666"/>
<path d="M10 11.8262C6.78701 11.8217 4.18322 9.21788 4.17871 6.00489C4.17871 2.79641 6.78701 0.183594 10 0.183594C13.213 0.188106 15.8168 2.7919 15.8213 6.00489C15.8168 9.21337 13.2085 11.8262 10 11.8262ZM10 1.09063C7.2834 1.09063 5.08124 3.2928 5.08124 6.0094C5.08124 8.72601 7.2834 10.9282 10 10.9282C12.7166 10.9282 14.9188 8.72601 14.9188 6.0094C14.9143 3.2928 12.7166 1.09063 10 1.09063Z" fill="#666666"/>
</svg>
