<svg width="11" height="16" viewBox="0 0 11 16" fill="none" xmlns="http://www.w3.org/2000/svg">
<path d="M4.05136 4.94151C4.04909 4.67018 4.12749 4.40429 4.27658 4.17759C4.42568 3.95088 4.63877 3.77358 4.8888 3.66818C5.13883 3.56277 5.41454 3.53402 5.68093 3.58556C5.94733 3.63711 6.19242 3.76663 6.38508 3.95769C6.57775 4.14876 6.70932 4.39275 6.76309 4.6587C6.81686 4.92466 6.79042 5.2006 6.68711 5.4515C6.5838 5.70241 6.40829 5.91697 6.18284 6.06796C5.95739 6.21895 5.69217 6.29956 5.42083 6.29957C5.05959 6.29958 4.71298 6.15687 4.45648 5.90251C4.19998 5.64814 4.05437 5.30274 4.05136 4.94151ZM0 5.42083C0 3.98313 0.571121 2.60433 1.58772 1.58772C2.60433 0.571121 3.98313 0 5.42083 0C6.85852 0 8.23733 0.571121 9.25393 1.58772C10.2705 2.60433 10.8417 3.98313 10.8417 5.42083C10.8417 10.0143 5.9572 13.4722 5.74608 13.6148C5.65056 13.6811 5.53708 13.7166 5.42083 13.7166C5.30457 13.7166 5.1911 13.6811 5.09558 13.6148C4.88445 13.4722 0 10.0143 0 5.42083ZM2.91013 4.94151C2.909 5.43832 3.05529 5.9243 3.33048 6.33793C3.60567 6.75156 3.99739 7.07426 4.45606 7.26516C4.91473 7.45606 5.41973 7.5066 5.90713 7.41037C6.39454 7.31414 6.84243 7.07547 7.19413 6.72457C7.54583 6.37367 7.78552 5.92632 7.88286 5.43913C7.9802 4.95195 7.93081 4.44684 7.74095 3.98774C7.55109 3.52864 7.22929 3.13618 6.81629 2.86005C6.40328 2.58392 5.91764 2.43652 5.42083 2.43652C4.75594 2.43652 4.11819 2.70025 3.64751 3.16987C3.17683 3.63948 2.91164 4.27662 2.91013 4.94151ZM10.271 14.8588H0.570613C0.419277 14.8588 0.27414 14.9189 0.167129 15.0259C0.0601181 15.1329 0 15.2781 0 15.4294C0 15.5807 0.0601181 15.7259 0.167129 15.8329C0.27414 15.9399 0.419277 16 0.570613 16H10.271C10.4224 16 10.5675 15.9399 10.6745 15.8329C10.7815 15.7259 10.8417 15.5807 10.8417 15.4294C10.8417 15.2781 10.7815 15.1329 10.6745 15.0259C10.5675 14.9189 10.4224 14.8588 10.271 14.8588Z" fill="#282828"/>
</svg>
