<svg width="20" height="28" viewBox="0 0 20 28" fill="none" xmlns="http://www.w3.org/2000/svg">
<path d="M10 0.113281C4.48588 0.113281 0 4.59916 0 10.1133C0 11.9286 0.814118 13.8809 0.848235 13.9633C1.11118 14.5874 1.63 15.5568 2.00412 16.125L8.86059 26.5139C9.14118 26.9398 9.55647 27.1839 10 27.1839C10.4435 27.1839 10.8588 26.9398 11.1394 26.5145L17.9965 16.125C18.3712 15.5568 18.8894 14.5874 19.1524 13.9633C19.1865 13.8815 20 11.9292 20 10.1133C20 4.59916 15.5141 0.113281 10 0.113281ZM18.0676 13.5068C17.8329 14.0662 17.35 14.968 17.0141 15.4774L10.1571 25.8668C10.0218 26.0721 9.97882 26.0721 9.84353 25.8668L2.98647 15.4774C2.65059 14.968 2.16765 14.0656 1.93294 13.5062C1.92294 13.4821 1.17647 11.685 1.17647 10.1133C1.17647 5.24799 5.13471 1.28975 10 1.28975C14.8653 1.28975 18.8235 5.24799 18.8235 10.1133C18.8235 11.6874 18.0753 13.4892 18.0676 13.5068Z" fill="#666666"/>
<path d="M10.0002 4.81934C7.08076 4.81934 4.70605 7.19463 4.70605 10.1135C4.70605 13.0323 7.08076 15.4076 10.0002 15.4076C12.9196 15.4076 15.2943 13.0323 15.2943 10.1135C15.2943 7.19463 12.9196 4.81934 10.0002 4.81934ZM10.0002 14.2311C7.73017 14.2311 5.88253 12.384 5.88253 10.1135C5.88253 7.84286 7.73017 5.99581 10.0002 5.99581C12.2702 5.99581 14.1178 7.84286 14.1178 10.1135C14.1178 12.384 12.2702 14.2311 10.0002 14.2311Z" fill="#666666"/>
</svg>
