<svg width="14" height="12" viewBox="0 0 14 12" fill="none" xmlns="http://www.w3.org/2000/svg">
<path d="M7.05124 6.0065C7.05124 6.14749 7.00902 6.28848 6.93143 6.39422L3.40574 11.6827C3.27882 11.8731 3.06734 12 2.82047 12H0.705086C0.31736 12 0 11.6827 0 11.295C0 11.1538 0.042349 11.0129 0.119817 10.9071L3.38457 6.0065L0.119817 1.10576C0.042349 1.00001 0 0.859024 0 0.718032C0 0.330177 0.31736 0.0128174 0.705086 0.0128174H2.82047C3.06734 0.0128174 3.27882 0.139735 3.40574 0.330177L6.93143 5.61864C7.00902 5.72439 7.05124 5.86538 7.05124 6.0065Z" fill="#282828"/>
<path d="M13.1026 5.99368C13.1026 6.13467 13.0603 6.27566 12.9827 6.38141L9.45714 11.6699C9.33022 11.8603 9.11861 11.9872 8.87187 11.9872H6.75648C6.36863 11.9872 6.05127 11.6699 6.05127 11.2821C6.05127 11.141 6.09362 11 6.17122 10.8943L9.43596 5.99368L6.17122 1.09294C6.09362 0.987197 6.05127 0.846206 6.05127 0.705215C6.05127 0.31736 6.36863 0 6.75648 0H8.87187C9.11861 0 9.33022 0.126918 9.45714 0.31736L12.9827 5.60583C13.0603 5.71157 13.1026 5.85256 13.1026 5.99368Z" fill="#282828"/>
</svg>
