<svg width="30" height="30" viewBox="0 0 30 30" fill="none" xmlns="http://www.w3.org/2000/svg">
<path d="M21.5858 19.8921C22.5421 19.882 23.3783 19.2361 23.6236 18.3099L25.9819 9.52767C26.057 9.24227 25.8918 8.95187 25.6064 8.87176C25.5613 8.86175 25.5162 8.85173 25.4712 8.85173H7.73157L6.52489 4.39555C6.46481 4.16523 6.25452 4 6.01418 4H3V5.06648H5.5936L6.76022 9.42252C6.75521 9.45757 6.75521 9.49262 6.76022 9.52767L9.16355 18.3399C9.17857 18.41 9.20361 18.4851 9.22864 18.5552L10.0398 21.5093C9.25869 21.9249 8.72795 22.746 8.72795 23.6923C8.72795 25.0592 9.83448 26.1658 11.2014 26.1658C12.5683 26.1658 13.6748 25.0592 13.6748 23.6923C13.6748 23.2667 13.5647 22.8612 13.3744 22.5107C13.3293 22.4306 13.2843 22.3505 13.2292 22.2704H19.5229C19.2425 22.6709 19.0723 23.1616 19.0723 23.6923C19.0723 25.0592 20.1788 26.1658 21.5457 26.1658C22.9126 26.1658 24.0192 25.0592 24.0192 23.6923C24.0192 23.0464 23.7738 22.4606 23.3683 22.02C22.9327 21.5243 22.2918 21.2089 21.5758 21.2039H11.1062L10.7307 19.827C10.891 19.867 11.0562 19.8921 11.2214 19.8921H21.5858ZM21.5507 22.2704C22.3368 22.2704 22.9727 22.9062 22.9727 23.6923C22.9727 24.4784 22.3368 25.1143 21.5507 25.1143C20.7647 25.1143 20.1288 24.4784 20.1288 23.6923C20.1288 22.9062 20.7647 22.2704 21.5507 22.2704ZM11.2014 22.2704C11.9875 22.2704 12.6183 22.9112 12.6183 23.6923C12.6183 24.4784 11.9825 25.1143 11.1964 25.1143C10.4103 25.1143 9.77941 24.4784 9.77941 23.6923C9.77941 22.9062 10.4153 22.2704 11.2014 22.2704ZM10.2501 18.1496L9.0534 13.7736L7.98692 9.92823H24.7552L22.5872 18.0695C22.467 18.5352 22.0514 18.8606 21.5708 18.8706H11.2114C10.7758 18.8456 10.3953 18.5652 10.2501 18.1496Z" fill="black"/>
</svg>
