<svg width="18" height="18" viewBox="0 0 18 18" fill="none" xmlns="http://www.w3.org/2000/svg">
<path d="M0.667953 0.661799C1.09334 0.239931 1.66637 0.00790405 2.26402 0.0114196C3.20268 0.00790405 4.12024 0.00790405 4.9921 0.00790405H6.37723C7.56901 0.0114196 8.55689 0.999294 8.57798 2.21568C8.60259 3.66761 8.60259 5.01759 8.57798 6.33592C8.55337 7.59801 7.57956 8.56128 6.31044 8.57534C5.6249 8.58589 4.93585 8.5894 4.26438 8.5894C2.31675 8.60698 0.179289 8.85307 0.0140571 6.26913C0.0210883 5.51328 0.0140571 4.76798 0.0140571 4.01565C0.0597595 2.89067 -0.246095 1.51608 0.667953 0.661799Z" fill="#282828"/>
<path d="M8.58161 13.346C8.58161 14.0913 8.57809 14.8647 8.58512 15.6241C8.62028 16.8967 7.57615 18.0146 6.30352 17.9936C5.24885 17.9689 4.10981 17.9971 3.04107 17.99C2.20085 18.0287 1.26571 17.983 0.668065 17.3326C0.0879968 16.7947 -0.0385636 15.9475 0.0106543 15.1741C0.00713877 14.0175 0.00713877 12.8222 0.0176855 11.6444C0.021201 10.639 0.699705 9.76361 1.67 9.50698C2.57702 9.32417 3.42427 9.45073 4.44378 9.41206C5.03088 9.41206 5.61447 9.41206 6.20157 9.41557C8.63082 9.54213 8.65895 11.4089 8.58161 13.346Z" fill="#282828"/>
<path d="M16.7373 10.6777C19.4197 13.3284 17.4861 18.0182 13.7069 17.9936C9.95227 18.0147 7.96949 13.3319 10.6765 10.6847C12.2761 9.0148 15.1377 8.99723 16.7373 10.6777Z" fill="#282828"/>
<path d="M9.42139 6.29023C9.40381 4.85939 9.40381 3.54105 9.42139 2.2649C9.41787 1.02391 10.4233 0.0114256 11.6643 0.00791003H11.6924C13.0389 -0.00263668 14.3819 -0.00263668 15.7881 0.00791003C16.9517 -0.00966781 17.9994 1.04852 17.9853 2.21217C17.9923 2.99614 17.9853 3.76605 17.9853 4.54299C17.9466 5.66797 18.2279 7.06365 17.3279 7.91442C16.4103 8.87417 14.8881 8.51207 13.6998 8.58589C13.0248 8.58589 12.3499 8.58238 11.696 8.57183C10.4444 8.57535 9.4249 7.56638 9.42139 6.31132C9.42139 6.30781 9.42139 6.30077 9.42139 6.29023Z" fill="#282828"/>
</svg>
