<svg width="20" height="16" viewBox="0 0 20 16" fill="none" xmlns="http://www.w3.org/2000/svg">
<g clip-path="url(#clip0_1494_1997)">
<path d="M16.9977 3.00226C16.7322 2.73683 16.3156 2.69769 16.0052 2.90914C14.8363 3.70594 8.97277 7.71265 8.3426 8.34278C7.42877 9.25665 7.42877 10.7435 8.3426 11.6574C8.79952 12.1143 9.39976 12.3428 9.99992 12.3428C10.6001 12.3428 11.2003 12.1143 11.6572 11.6574C12.2874 11.0273 16.294 5.16377 17.0909 3.99477C17.3023 3.68449 17.2632 3.26777 16.9977 3.00226ZM10.5523 10.5525C10.2477 10.8572 9.75207 10.8572 9.4475 10.5525C9.14288 10.248 9.14284 9.75244 9.44734 9.44783C9.69219 9.20587 11.3569 8.0186 13.4051 6.59487C11.9815 8.64309 10.7942 10.3078 10.5523 10.5525Z" fill="#666666"/>
<path d="M3.60281 13.6339L2.63834 14.1043C1.93263 12.8449 1.56251 11.4391 1.56251 10.0001C1.56251 8.94574 1.75693 7.93593 2.11174 7.00463L3.21686 7.53472C3.32585 7.58698 3.44089 7.61175 3.55421 7.61175C3.84535 7.61175 4.12484 7.44827 4.25918 7.16819C4.44574 6.77916 4.28168 6.31248 3.89261 6.12588L2.80151 5.60251C4.15765 3.39077 6.50404 1.84877 9.21887 1.59837V2.77342C9.21887 3.20491 9.56864 3.55468 10.0001 3.55468C10.4316 3.55468 10.7814 3.20491 10.7814 2.77342V1.59779C11.7122 1.68251 12.6128 1.91955 13.4678 2.30549C13.8609 2.48303 14.3237 2.30807 14.5013 1.9149C14.6788 1.52161 14.5039 1.05892 14.1106 0.881375C12.8151 0.296565 11.4321 0 10.0001 0C7.32897 0 4.81774 1.04017 2.92893 2.92893C1.0402 4.81774 0 7.32897 0 10.0001C0 11.9739 0.585865 13.8936 1.69427 15.5515C1.84357 15.7748 2.09041 15.8986 2.34424 15.8986C2.45963 15.8986 2.57651 15.873 2.68631 15.8195L4.28789 15.0382C4.67571 14.849 4.83672 14.3813 4.64754 13.9935C4.45836 13.6057 3.99062 13.4448 3.60281 13.6339Z" fill="#666666"/>
<path d="M19.1179 5.88974C18.9404 5.49649 18.4777 5.32149 18.0843 5.49911C17.6911 5.67665 17.5162 6.13935 17.6938 6.53259C18.1868 7.62471 18.4368 8.7914 18.4368 10.0002C18.4368 11.4414 18.0654 12.8494 17.3577 14.1104L16.3507 13.6309C15.9612 13.4454 15.495 13.6107 15.3095 14.0004C15.124 14.3899 15.2894 14.8561 15.679 15.0416L17.3196 15.8229C17.4275 15.8742 17.542 15.8988 17.6551 15.8988C17.909 15.8988 18.1559 15.7748 18.305 15.5517C19.4134 13.8938 19.9993 11.9741 19.9993 10.0002C19.9993 8.56824 19.7027 7.18525 19.1179 5.88974Z" fill="#666666"/>
</g>
<defs>
<clipPath id="clip0_1494_1997">
<rect width="20" height="16" fill="white"/>
</clipPath>
</defs>
</svg>
