<svg width="36" height="36" viewBox="0 0 36 36" fill="none" xmlns="http://www.w3.org/2000/svg">
<rect x="0.5" y="0.5" width="35" height="35" rx="17.5" fill="#F7F7F7"/>
<rect x="0.5" y="0.5" width="35" height="35" rx="17.5" stroke="#282828"/>
<path d="M20.2109 15.7969C20.0039 15.7969 19.8362 15.9646 19.8362 16.1716V23.2535C19.8362 23.4603 20.0039 23.6282 20.2109 23.6282C20.4179 23.6282 20.5856 23.4603 20.5856 23.2535V16.1716C20.5856 15.9646 20.4179 15.7969 20.2109 15.7969Z" fill="#282828"/>
<path d="M15.7891 15.7969C15.5822 15.7969 15.4144 15.9646 15.4144 16.1716V23.2535C15.4144 23.4603 15.5822 23.6282 15.7891 23.6282C15.9961 23.6282 16.1638 23.4603 16.1638 23.2535V16.1716C16.1638 15.9646 15.9961 15.7969 15.7891 15.7969Z" fill="#282828"/>
<path d="M12.5668 14.7634V23.9953C12.5668 24.541 12.7669 25.0534 13.1164 25.4211C13.4643 25.7898 13.9485 25.9991 14.4553 26H21.5448C22.0517 25.9991 22.5359 25.7898 22.8836 25.4211C23.2332 25.0534 23.4333 24.541 23.4333 23.9953V14.7634C24.1281 14.5789 24.5783 13.9077 24.4854 13.1947C24.3923 12.4819 23.785 11.9487 23.066 11.9485H21.1476V11.4801C21.1498 11.0863 20.994 10.708 20.7152 10.4298C20.4363 10.1517 20.0575 9.99683 19.6637 10H16.3364C15.9425 9.99683 15.5637 10.1517 15.2849 10.4298C15.006 10.708 14.8503 11.0863 14.8525 11.4801V11.9485H12.934C12.2151 11.9487 11.6078 12.4819 11.5147 13.1947C11.4217 13.9077 11.872 14.5789 12.5668 14.7634ZM21.5448 25.2506H14.4553C13.8146 25.2506 13.3162 24.7002 13.3162 23.9953V14.7963H22.6839V23.9953C22.6839 24.7002 22.1855 25.2506 21.5448 25.2506ZM15.6019 11.4801C15.5994 11.285 15.6761 11.0972 15.8146 10.9595C15.9529 10.8218 16.1411 10.7461 16.3364 10.7495H19.6637C19.8589 10.7461 20.0472 10.8218 20.1855 10.9595C20.3239 11.0971 20.4006 11.285 20.3981 11.4801V11.9485H15.6019V11.4801ZM12.934 12.6979H23.066C23.4385 12.6979 23.7405 12.9999 23.7405 13.3724C23.7405 13.7449 23.4385 14.0469 23.066 14.0469H12.934C12.5615 14.0469 12.2596 13.7449 12.2596 13.3724C12.2596 12.9999 12.5615 12.6979 12.934 12.6979Z" fill="#282828"/>
<path d="M18.0001 15.7969C17.7931 15.7969 17.6254 15.9646 17.6254 16.1716V23.2535C17.6254 23.4603 17.7931 23.6282 18.0001 23.6282C18.207 23.6282 18.3748 23.4603 18.3748 23.2535V16.1716C18.3748 15.9646 18.207 15.7969 18.0001 15.7969Z" fill="#282828"/>
</svg>
