<svg width="20" height="20" viewBox="0 0 20 20" fill="none" xmlns="http://www.w3.org/2000/svg">
<path d="M20 9.73828C20 12.1506 18.037 14.1133 15.625 14.1133H12.5C12.1545 14.1133 11.875 13.8334 11.875 13.4883C11.875 13.1431 12.1545 12.8633 12.5 12.8633H15.625C17.348 12.8633 18.75 11.4613 18.75 9.73828C18.75 8.01531 17.348 6.61328 15.625 6.61328H15C14.6545 6.61328 14.375 6.33344 14.375 5.98828C14.375 3.57594 12.412 1.61328 10 1.61328C7.58797 1.61328 5.625 3.57594 5.625 5.98828C5.625 6.33344 5.34547 6.61328 5 6.61328H4.375C2.65203 6.61328 1.25 8.01531 1.25 9.73828C1.25 11.4613 2.65203 12.8633 4.375 12.8633H7.5C7.84547 12.8633 8.125 13.1431 8.125 13.4883C8.125 13.8334 7.84547 14.1133 7.5 14.1133H4.375C1.96297 14.1133 0 12.1506 0 9.73828C0 7.32594 1.96297 5.36328 4.375 5.36328H4.40984C4.72172 2.55469 7.10938 0.363281 10 0.363281C12.8906 0.363281 15.2783 2.55469 15.5902 5.36328H15.625C18.0372 5.36328 20 7.32594 20 9.73828ZM12.0581 15.5464L10.625 16.9795V9.11328C10.625 8.76812 10.3455 8.48828 10 8.48828C9.65453 8.48828 9.375 8.76812 9.375 9.11328V16.9795L7.94187 15.5464C7.69766 15.3022 7.30219 15.3022 7.05813 15.5464C6.81406 15.7906 6.81391 16.1861 7.05813 16.4302L9.55813 18.9302C9.68016 19.0522 9.84016 19.1133 10 19.1133C10.1598 19.1133 10.3198 19.0522 10.4419 18.9302L12.9419 16.4302C13.1861 16.1859 13.1861 15.7905 12.9419 15.5464C12.6977 15.3023 12.3022 15.3022 12.0581 15.5464Z" fill="#666666"/>
</svg>
