<svg width="133" height="60" viewBox="0 0 133 60" fill="none" xmlns="http://www.w3.org/2000/svg">
<rect width="133" height="60" rx="7" fill="white"/>
<path fill-rule="evenodd" clip-rule="evenodd" d="M122.047 25.6041H117.76V25.3232H122.047V25.6041Z" fill="black"/>
<path fill-rule="evenodd" clip-rule="evenodd" d="M122.417 25.974H117.39V24.9529H122.417V25.974ZM117.76 25.6039H122.047V25.323H117.76V25.6039Z" fill="black"/>
<path d="M117.173 25.3215V34.7552H116.878V25.3215H117.173Z" fill="black"/>
<path fill-rule="evenodd" clip-rule="evenodd" d="M117.543 24.9514V35.1254H116.508V24.9514H117.543ZM117.173 34.7553V25.3216H116.878V34.7553H117.173Z" fill="black"/>
<path fill-rule="evenodd" clip-rule="evenodd" d="M122.047 30.1329H117.76V29.8521H122.047V30.1329Z" fill="black"/>
<path fill-rule="evenodd" clip-rule="evenodd" d="M122.417 30.5028H117.39V29.4817H122.417V30.5028ZM117.76 30.1326H122.047V29.8518H117.76V30.1326Z" fill="black"/>
<path fill-rule="evenodd" clip-rule="evenodd" d="M114.551 25.6041H110.265V25.3232H114.551V25.6041Z" fill="black"/>
<path fill-rule="evenodd" clip-rule="evenodd" d="M114.921 25.974H109.895V24.9529H114.921V25.974ZM110.265 25.6039H114.55V25.323H110.265V25.6039Z" fill="black"/>
<path d="M109.676 25.3215V34.7552H109.382V25.3215H109.676Z" fill="black"/>
<path fill-rule="evenodd" clip-rule="evenodd" d="M110.047 24.9514V35.1254H109.012V24.9514H110.047ZM109.676 34.7553V25.3216H109.382V34.7553H109.676Z" fill="black"/>
<path fill-rule="evenodd" clip-rule="evenodd" d="M114.551 30.1329H110.265V29.8521H114.551V30.1329Z" fill="black"/>
<path fill-rule="evenodd" clip-rule="evenodd" d="M114.921 30.5028H109.895V29.4817H114.921V30.5028ZM110.265 30.1326H114.55V29.8518H110.265V30.1326Z" fill="black"/>
<path fill-rule="evenodd" clip-rule="evenodd" d="M107.211 34.4731H102.925V34.7539H107.211V34.4731Z" fill="black"/>
<path fill-rule="evenodd" clip-rule="evenodd" d="M107.581 34.1028V35.1239H102.555V34.1028H107.581ZM102.925 34.7537H107.211V34.4729H102.925V34.7537Z" fill="black"/>
<path d="M102.337 34.7552V25.3215H102.042V34.7552H102.337Z" fill="black"/>
<path fill-rule="evenodd" clip-rule="evenodd" d="M102.707 35.1254H101.672V24.9514H102.707V35.1254ZM102.042 25.3216V34.7553H102.337V25.3216H102.042Z" fill="black"/>
<path d="M99.6082 30.0385C99.6082 30.9996 99.4438 31.8441 99.1159 32.5719C98.7872 33.2997 98.3296 33.8678 97.7426 34.2763C97.1562 34.6816 96.4759 34.8843 95.7023 34.8843C94.9257 34.8843 94.2439 34.6801 93.6568 34.2717C93.0705 33.8632 92.6129 33.2951 92.2842 32.5673C91.9585 31.8395 91.7964 30.9966 91.7964 30.0385C91.7964 29.0773 91.9607 28.2343 92.2887 27.5096C92.6174 26.7818 93.0749 26.2137 93.662 25.8053C94.2483 25.3968 94.9286 25.1926 95.7023 25.1926C96.4759 25.1926 97.1562 25.3968 97.7426 25.8053C98.3296 26.2106 98.7872 26.7772 99.1159 27.505C99.4438 28.2328 99.6082 29.0773 99.6082 30.0385ZM99.3135 30.0385C99.3135 29.1356 99.1618 28.3433 98.8575 27.6616C98.5532 26.9768 98.1298 26.444 97.5864 26.0632C97.0459 25.6794 96.4174 25.4874 95.7023 25.4874C94.9901 25.4874 94.3616 25.6778 93.8182 26.0586C93.2777 26.4363 92.8543 26.9676 92.5471 27.6524C92.2428 28.3341 92.091 29.1295 92.091 30.0385C92.091 30.9351 92.2413 31.7259 92.5426 32.4107C92.8432 33.0924 93.2637 33.6268 93.8041 34.0137C94.3482 34.3975 94.9805 34.5895 95.7023 34.5895C96.4174 34.5895 97.0474 34.3991 97.5908 34.0183C98.1342 33.6344 98.5584 33.1017 98.8619 32.4199C99.1662 31.7351 99.3165 30.9413 99.3135 30.0385Z" fill="black"/>
<path fill-rule="evenodd" clip-rule="evenodd" d="M99.4532 32.724L99.4531 32.7243C99.1002 33.5057 98.6021 34.1291 97.9539 34.5801L97.9534 34.5805L97.953 34.5808C97.2994 35.0326 96.5443 35.2545 95.7022 35.2545C94.8569 35.2545 94.0998 35.0309 93.4453 34.5756L93.4451 34.5754C92.7977 34.1245 92.2997 33.5011 91.9468 32.7197L91.9466 32.7191L91.9463 32.7186C91.5954 31.9344 91.4261 31.0382 91.4261 30.0385C91.4261 29.0354 91.5977 28.1387 91.9513 27.3573M93.804 34.0137C93.2727 33.6333 92.8572 33.1103 92.5578 32.4449C92.5576 32.4446 92.5575 32.4443 92.5574 32.444C92.5524 32.4329 92.5474 32.4218 92.5425 32.4107C92.2412 31.7259 92.0909 30.9352 92.0909 30.0385C92.0909 29.1295 92.2427 28.3342 92.547 27.6524C92.5502 27.6452 92.5534 27.6381 92.5567 27.6309C92.5567 27.6309 92.5567 27.6308 92.5568 27.6307C92.8632 26.9564 93.2834 26.4324 93.8181 26.0586C93.8226 26.0555 93.8271 26.0524 93.8316 26.0492C93.8316 26.0492 93.8317 26.0492 93.8317 26.0491C94.372 25.6747 94.996 25.4875 95.7022 25.4875C96.4104 25.4875 97.0337 25.6757 97.5705 26.0521C97.5709 26.0524 97.5712 26.0526 97.5716 26.0529C97.5765 26.0563 97.5814 26.0598 97.5863 26.0633C98.1208 26.4378 98.5393 26.9595 98.8424 27.6282C98.8424 27.6283 98.8425 27.6284 98.8425 27.6284C98.8475 27.6395 98.8525 27.6505 98.8574 27.6616C99.1617 28.3434 99.3134 29.1357 99.3134 30.0385C99.3164 30.9413 99.1661 31.7352 98.8618 32.42C98.8572 32.4303 98.8526 32.4407 98.8479 32.451C98.8479 32.451 98.8478 32.4511 98.8478 32.4512C98.5453 33.118 98.1258 33.6403 97.5907 34.0184C97.5848 34.0225 97.5788 34.0267 97.5728 34.0308C97.5726 34.031 97.5723 34.0312 97.5721 34.0313C97.0329 34.4034 96.4092 34.5895 95.7022 34.5895C94.99 34.5895 94.365 34.4026 93.8258 34.0289C93.8258 34.0289 93.8257 34.0289 93.8257 34.0288C93.8184 34.0238 93.8112 34.0188 93.804 34.0137ZM94.0185 33.712C93.5388 33.3683 93.1583 32.8897 92.8813 32.2616C92.6044 31.6323 92.4611 30.894 92.4611 30.0385C92.4611 29.1704 92.606 28.4285 92.8849 27.8036C93.1686 27.1713 93.552 26.6962 94.0301 26.362L94.0305 26.3618C94.5069 26.0279 95.0601 25.8576 95.7022 25.8576C96.347 25.8576 96.8992 26.0293 97.3719 26.365L97.3729 26.3657L97.3739 26.3664C97.8553 26.7037 98.2385 27.1803 98.5191 27.8119L98.5194 27.8125C98.7985 28.4378 98.9433 29.1769 98.9433 30.0385V30.0391L98.9433 30.0397C98.9461 30.9009 98.8028 31.6412 98.5237 32.2694C98.2441 32.8974 97.8602 33.3746 97.3778 33.7156C96.9017 34.049 96.3474 34.2194 95.7022 34.2194C95.0506 34.2194 94.4947 34.0476 94.0185 33.712ZM93.6567 34.2717C93.649 34.2663 93.6412 34.2609 93.6335 34.2554C93.633 34.255 93.6324 34.2546 93.6318 34.2542C93.0574 33.8471 92.6082 33.2848 92.2842 32.5674C92.2788 32.5555 92.2736 32.5435 92.2683 32.5316C92.2683 32.5315 92.2683 32.5315 92.2682 32.5314C91.9531 31.8118 91.7963 30.9809 91.7963 30.0385C91.7963 29.0874 91.9572 28.2521 92.2783 27.5325C92.2784 27.5323 92.2785 27.5322 92.2786 27.532C92.2819 27.5245 92.2852 27.5171 92.2886 27.5096C92.6146 26.7878 93.0674 26.223 93.6476 25.8153C93.6477 25.8152 93.6478 25.8152 93.6479 25.8151C93.6525 25.8118 93.6572 25.8086 93.6619 25.8053C94.2482 25.3969 94.9286 25.1927 95.7022 25.1927C96.4758 25.1927 97.1562 25.3969 97.7425 25.8053C97.748 25.8091 97.7535 25.8129 97.759 25.8168C97.7595 25.8171 97.76 25.8175 97.7606 25.8179C98.339 26.2223 98.7905 26.7847 99.1158 27.505C99.1209 27.5165 99.1261 27.528 99.1311 27.5395C99.1312 27.5396 99.1313 27.5398 99.1313 27.5399C99.4488 28.2595 99.608 29.0921 99.6081 30.0376C99.6081 30.0379 99.6081 30.0382 99.6081 30.0385C99.6081 30.9853 99.4486 31.8189 99.1304 32.5393C99.1303 32.5393 99.1303 32.5394 99.1303 32.5395C99.1255 32.5503 99.1206 32.5611 99.1158 32.5719C98.7909 33.2913 98.3402 33.8547 97.7629 34.262C97.7626 34.2622 97.7622 34.2625 97.7619 34.2627C97.7555 34.2672 97.749 34.2718 97.7425 34.2763C97.1562 34.6816 96.4758 34.8843 95.7022 34.8843C94.9256 34.8843 94.2438 34.6801 93.6567 34.2717ZM91.9513 27.3572C92.3042 26.5759 92.8022 25.9525 93.4503 25.5016C94.1039 25.0463 94.8595 24.8225 95.7022 24.8225C96.5446 24.8225 97.3 25.0461 97.9534 25.5011C98.6021 25.9492 99.1003 26.5714 99.4531 27.3527L99.4532 27.353C99.8066 28.1372 99.9782 29.0353 99.9782 30.0385C99.9782 31.0417 99.8066 31.9398 99.4532 32.724" fill="black"/>
<path d="M82.7011 34.7552L80.1031 25.3215H80.4164L82.8854 34.2946H82.9222L85.3172 25.3215H85.7229L88.1178 34.2946H88.1548L90.6237 25.3215H90.9369L88.3391 34.7552H87.9342L85.5385 25.7822H85.5015L83.1064 34.7552H82.7011Z" fill="black"/>
<path fill-rule="evenodd" clip-rule="evenodd" d="M82.4189 35.1254L79.6171 24.9514H80.6982L82.8984 32.9475L85.0326 24.9514H86.007L88.1412 32.9479L90.3415 24.9514H91.4225L88.6209 35.1254H87.6497L85.5198 27.148L83.3906 35.1254H82.4189ZM87.934 34.7553H88.3389L90.9367 25.3216H90.6235L88.1546 34.2947H88.1176L85.7227 25.3216H85.317L82.922 34.2947H82.8852L80.4162 25.3216H80.1029L82.7009 34.7553H83.1062L85.5013 25.7822H85.5383L87.934 34.7553Z" fill="black"/>
<path d="M71.9937 34.8843C71.4962 34.8843 71.0464 34.7737 70.6441 34.5526C70.2448 34.3284 69.927 34.0291 69.6905 33.6544C69.4572 33.2767 69.3405 32.8575 69.3405 32.3969C69.3405 32.1144 69.3926 31.8502 69.4971 31.6046C69.6015 31.3559 69.7719 31.104 70.0084 30.8491C70.2448 30.5912 70.5627 30.3087 70.9619 30.0016L72.3438 28.9698C72.7891 28.6228 73.1054 28.3096 73.2927 28.0301C73.4831 27.7507 73.5783 27.4436 73.5783 27.1088C73.5783 26.639 73.4293 26.2521 73.1314 25.9481C72.8367 25.641 72.4635 25.4874 72.0122 25.4874C71.705 25.4874 71.421 25.5657 71.16 25.7224C70.902 25.879 70.6932 26.0862 70.5335 26.3442C70.3769 26.6022 70.2986 26.8816 70.2986 27.1825C70.2986 27.3852 70.3431 27.5848 70.4322 27.7814C70.5213 27.9748 70.6579 28.1959 70.8421 28.4447C71.0264 28.6903 71.2628 28.9944 71.5515 29.3567L75.8262 34.7553H75.4577L71.3304 29.541C71.0418 29.1786 70.7992 28.8669 70.6026 28.6059C70.4061 28.3418 70.2571 28.0992 70.1558 27.8781C70.0545 27.6539 70.0038 27.4221 70.0038 27.1825C70.0038 26.8263 70.0959 26.4977 70.2801 26.1968C70.4644 25.8928 70.7085 25.6502 71.0126 25.469C71.3166 25.2848 71.6498 25.1926 72.0122 25.1926C72.3683 25.1926 72.6862 25.2755 72.9656 25.4414C73.2482 25.6072 73.4692 25.8344 73.6289 26.1231C73.7917 26.4118 73.8731 26.7403 73.8731 27.1088C73.8731 27.4866 73.7686 27.8366 73.5599 28.1591C73.351 28.4815 73.0071 28.8316 72.528 29.2093L71.1461 30.2411C70.5842 30.6741 70.1911 31.0472 69.9669 31.3605C69.7458 31.6737 69.6352 32.0192 69.6352 32.3969C69.6352 32.8022 69.7397 33.1692 69.9485 33.4978C70.1573 33.8264 70.4398 34.089 70.7961 34.2854C71.1523 34.482 71.5515 34.5833 71.9937 34.5895C72.4544 34.5803 72.8689 34.4943 73.2374 34.3316C73.6059 34.1688 73.9268 33.9446 74.2001 33.659C74.4765 33.3703 74.7037 33.0295 74.8818 32.6364C75.0631 32.2402 75.1935 31.8042 75.2734 31.3282L75.5682 31.365C75.5252 31.6292 75.4607 31.8917 75.3747 32.1527C75.2918 32.4138 75.192 32.6625 75.0754 32.899C74.9617 33.1354 74.8373 33.3489 74.7022 33.5393C74.6684 33.5884 74.6331 33.636 74.5963 33.682C74.5594 33.7281 74.521 33.7726 74.4811 33.8156C74.1679 34.1473 73.7902 34.4083 73.348 34.5987C72.9057 34.7891 72.4544 34.8843 71.9937 34.8843Z" fill="black"/>
<path fill-rule="evenodd" clip-rule="evenodd" d="M70.4642 34.8762L70.4628 34.8754C70.0117 34.6222 69.6479 34.2805 69.3774 33.852L69.3765 33.8505L69.3756 33.849C69.1047 33.4106 68.9702 32.9236 68.9702 32.3969C68.9702 32.0679 69.0312 31.7545 69.156 31.4606C69.2812 31.1628 69.4789 30.8757 69.7362 30.5982C69.9917 30.3196 70.3271 30.0229 70.7361 29.7083L70.7382 29.7066L70.8958 29.589C70.6683 29.3014 70.4719 29.0478 70.3068 28.8286L70.3062 28.8278L70.3056 28.8269C70.0986 28.5488 69.9344 28.2837 69.8192 28.0324L69.8188 28.0315L69.8183 28.0305C69.6961 27.7599 69.6335 27.4762 69.6335 27.1826C69.6335 26.7591 69.7441 26.3638 69.9639 26.0043C70.1791 25.6494 70.4663 25.3639 70.8218 25.1518C71.1845 24.9322 71.5839 24.8225 72.0121 24.8225C72.4278 24.8225 72.8119 24.9199 73.1537 25.1226C73.4931 25.322 73.7606 25.5972 73.952 25.9426C74.149 26.2925 74.2432 26.6845 74.2432 27.1089C74.2432 27.5593 74.1173 27.979 73.8705 28.3603C73.6305 28.7308 73.2516 29.1101 72.7571 29.5L72.7533 29.503L72.3675 29.7911L74.528 32.5197C74.5336 32.5078 74.5391 32.4957 74.5446 32.4837L74.5449 32.483L74.5452 32.4824C74.7115 32.1189 74.8332 31.7144 74.9083 31.267L74.967 30.9169L75.9952 31.0455L75.9334 31.4246C75.8873 31.7077 75.8184 31.9884 75.7269 32.2667C75.6388 32.5435 75.5326 32.8084 75.4081 33.0611C75.3509 33.18 75.2908 33.2941 75.2278 33.4035L76.5913 35.1255H75.2785L74.5779 34.2404C74.265 34.5302 73.9029 34.7628 73.4943 34.9387C73.0079 35.1481 72.5069 35.2545 71.9936 35.2545C71.4392 35.2545 70.9271 35.1307 70.4657 34.877L70.4642 34.8762ZM74.4245 33.874C74.4246 33.874 74.4246 33.874 74.4246 33.8739C74.4437 33.8547 74.4625 33.8353 74.481 33.8157C74.5043 33.7906 74.527 33.7651 74.5492 33.739C74.5651 33.7203 74.5808 33.7013 74.5962 33.682C74.5982 33.6796 74.6002 33.6771 74.6021 33.6746L74.6284 33.7077L75.4576 34.7553H75.8261L75.5359 34.9851L74.7828 34.0341M75.6841 34.576L75.8261 34.7553V34.3852H75.6367L75.0658 33.664C75.1219 33.5805 75.1758 33.4936 75.2278 33.4035M75.0176 33.7343L74.7768 33.4301C74.7925 33.4063 74.808 33.3822 74.8234 33.3577C74.8771 33.2722 74.929 33.1827 74.9789 33.0892C75.0119 33.0275 75.044 32.9641 75.0753 32.899C75.0986 32.8518 75.1212 32.8042 75.1431 32.756C75.1432 32.7557 75.1434 32.7554 75.1435 32.755C75.2314 32.5621 75.3084 32.3614 75.3747 32.1528C75.421 32.012 75.4611 31.8707 75.495 31.729C75.523 31.6121 75.5466 31.4949 75.5661 31.3773C75.5668 31.3733 75.5674 31.3692 75.5681 31.3651L75.2733 31.3282C75.2303 31.5845 75.1726 31.8293 75.1003 32.0624C75.1 32.0634 75.0996 32.0644 75.0993 32.0653C75.0375 32.2641 74.965 32.4545 74.8818 32.6364C74.861 32.6823 74.8396 32.7274 74.8175 32.7718C74.817 32.7727 74.8166 32.7736 74.8161 32.7745C74.805 32.7968 74.7937 32.8189 74.7823 32.8408C74.7337 32.9338 74.6821 33.0236 74.6275 33.1102C74.6121 33.1346 74.5965 33.1587 74.5807 33.1825L71.8409 29.7224L72.5279 29.2094C72.5284 29.209 72.5289 29.2086 72.5294 29.2082C72.9896 28.8452 73.325 28.5077 73.5356 28.1957C73.536 28.1951 73.5364 28.1945 73.5368 28.1938C73.5447 28.1822 73.5523 28.1707 73.5598 28.1591C73.7685 27.8367 73.873 27.4866 73.873 27.1089C73.873 26.7404 73.7916 26.4118 73.6289 26.1231C73.55 25.9807 73.4563 25.8531 73.3475 25.7406C73.3468 25.7399 73.3461 25.7391 73.3454 25.7384C73.2343 25.6238 73.1077 25.5248 72.9655 25.4414C72.6861 25.2756 72.3682 25.1927 72.0121 25.1927C71.6497 25.1927 71.3165 25.2848 71.0125 25.469C71.0114 25.4697 71.0102 25.4704 71.0091 25.4711C71.0087 25.4713 71.0082 25.4716 71.0078 25.4718C70.7082 25.6513 70.4671 25.8907 70.2842 26.19C70.2838 26.1907 70.2834 26.1914 70.2829 26.1921C70.282 26.1937 70.281 26.1953 70.28 26.1968C70.0959 26.4978 70.0037 26.8264 70.0037 27.1826C70.0037 27.4221 70.0544 27.654 70.1557 27.8781C70.1593 27.886 70.1629 27.8938 70.1666 27.9017C70.1669 27.9022 70.1671 27.9028 70.1674 27.9033C70.2683 28.1176 70.4134 28.3518 70.6025 28.6059C70.6051 28.6094 70.6077 28.6128 70.6103 28.6163C70.6107 28.6167 70.611 28.6172 70.6114 28.6177C70.774 28.8334 70.9677 29.0833 71.1925 29.3674C71.2358 29.4221 71.2802 29.4781 71.3258 29.5354C71.326 29.5356 71.3262 29.5358 71.3263 29.536C71.3277 29.5377 71.329 29.5394 71.3303 29.541L71.4226 29.6576L70.9618 30.0017C70.9617 30.0017 70.9617 30.0017 70.9616 30.0018C70.5625 30.3088 70.2447 30.5913 70.0083 30.8492C69.9021 30.9636 69.8092 31.0775 69.7297 31.1907C69.7293 31.1913 69.7289 31.1918 69.7285 31.1923C69.6315 31.3307 69.5543 31.4681 69.497 31.6047C69.3926 31.8503 69.3404 32.1144 69.3404 32.3969C69.3404 32.8576 69.4571 33.2767 69.6905 33.6544C69.6916 33.6562 69.6927 33.6579 69.6938 33.6597C69.6938 33.6597 69.6938 33.6597 69.6938 33.6597C69.9299 34.0319 70.2466 34.3295 70.644 34.5526C70.6452 34.5533 70.6463 34.5539 70.6475 34.5546C70.6475 34.5546 70.6475 34.5546 70.6475 34.5546C71.0478 34.7738 71.4952 34.8837 71.9896 34.8843C71.9909 34.8843 71.9923 34.8843 71.9936 34.8843C71.9956 34.8843 71.9976 34.8843 71.9995 34.8843C72.4581 34.8835 72.9075 34.7883 73.3479 34.5987C73.35 34.5978 73.352 34.5969 73.3541 34.596C73.3541 34.596 73.3541 34.596 73.3541 34.596C73.7325 34.4323 74.0637 34.2167 74.3474 33.9492C74.3735 33.9246 74.3992 33.8995 74.4245 33.874M74.1545 33.7055C74.1698 33.6902 74.185 33.6747 74.2 33.659C74.2176 33.6407 74.235 33.6221 74.2521 33.6033C74.2528 33.6026 74.2534 33.602 74.254 33.6013C74.2873 33.5648 74.3199 33.5276 74.3517 33.4895C74.3521 33.489 74.3526 33.4884 74.3531 33.4878C74.3531 33.4878 74.3531 33.4878 74.3531 33.4878C74.3704 33.4671 74.3876 33.446 74.4044 33.4248L71.6102 29.8946L71.1461 30.2411C71.1461 30.2411 71.1461 30.2411 71.1461 30.2411C71.1449 30.242 71.1438 30.2429 71.1426 30.2438C70.7579 30.5404 70.4526 30.8089 70.2265 31.0493C70.2261 31.0497 70.2257 31.0501 70.2253 31.0505C70.1228 31.1597 70.0366 31.263 69.9668 31.3605C69.8857 31.4755 69.8194 31.5948 69.7681 31.7184C69.7679 31.7188 69.7677 31.7193 69.7675 31.7197C69.6793 31.9326 69.6352 32.1583 69.6352 32.3969C69.6352 32.8004 69.7387 33.1659 69.9456 33.4934C69.9461 33.4942 69.9467 33.495 69.9472 33.4958C69.9476 33.4965 69.948 33.4972 69.9485 33.4979C70.1565 33.8252 70.4377 34.0871 70.792 34.2833C70.7929 34.2837 70.7937 34.2842 70.7945 34.2846C70.795 34.2849 70.7955 34.2852 70.796 34.2855C71.1522 34.482 71.5514 34.5834 71.9936 34.5895C72.4527 34.5804 72.8661 34.4949 73.2336 34.3332C73.2336 34.3332 73.2336 34.3332 73.2336 34.3332C73.2348 34.3327 73.2361 34.3321 73.2373 34.3316C73.5856 34.1777 73.8914 33.9691 74.1545 33.7055ZM73.2045 34.2574C73.2045 34.2574 73.2045 34.2574 73.2045 34.2574L73.0878 33.993C73.0877 33.993 73.0878 33.993 73.0878 33.993L73.2045 34.2574ZM71.9926 34.2193C71.6083 34.2131 71.2717 34.1252 70.9748 33.9614C70.6704 33.7935 70.4348 33.5731 70.2609 33.2993C70.0913 33.0325 70.0053 32.7349 70.0053 32.3969C70.0053 32.0973 70.0913 31.8265 70.2685 31.575C70.4608 31.3068 70.8187 30.9609 71.3698 30.5361L71.5433 30.4065L73.923 33.413M74.1167 33.6577C73.86 33.9052 73.5571 34.1053 73.2045 34.2574L74.1167 33.6577ZM74.1167 33.6577L74.1545 33.7055L74.1167 33.6577ZM74.1167 33.6577C74.1303 33.6446 74.1438 33.6314 74.1571 33.618C74.1571 33.618 74.1571 33.618 74.1571 33.618C74.1752 33.5998 74.1931 33.5814 74.2108 33.5627C74.2443 33.5266 74.2764 33.4894 74.307 33.451M71.9926 34.2193C71.9905 34.2193 71.9884 34.2194 71.9863 34.2194L71.9921 34.5142C71.554 34.5139 71.1681 34.4174 70.8263 34.2305C70.8263 34.2305 70.8263 34.2305 70.8263 34.2305C70.8255 34.23 70.8246 34.2295 70.8237 34.2291C70.4785 34.0349 70.2081 33.7796 70.0062 33.4612C70.0056 33.4602 70.005 33.4593 70.0044 33.4584M71.9947 34.5142L71.9988 34.2194C71.9967 34.2194 71.9947 34.2193 71.9926 34.2193M71.9947 34.5142C72.4023 34.514 72.8037 34.43 73.2015 34.2587C73.2025 34.2583 73.2035 34.2578 73.2045 34.2574M71.6532 29.4854L72.3437 28.9698C72.3448 28.9689 72.346 28.968 72.3471 28.9672C72.7906 28.6212 73.1058 28.3089 73.2926 28.0301C73.2996 28.0199 73.3064 28.0097 73.3131 27.9994C73.3131 27.9994 73.3131 27.9994 73.3131 27.9994C73.4898 27.7282 73.5782 27.4314 73.5782 27.1089C73.5782 26.7903 73.5097 26.5099 73.3728 26.2675C73.3724 26.2668 73.372 26.2661 73.3716 26.2654C73.3068 26.1512 73.2267 26.0454 73.1314 25.9481C73.0348 25.8475 72.9297 25.7633 72.8163 25.6957C72.8159 25.6954 72.8155 25.6952 72.8151 25.6949C72.5827 25.5566 72.315 25.4875 72.0121 25.4875C71.7067 25.4875 71.4242 25.5649 71.1644 25.7197C71.1638 25.7201 71.1632 25.7204 71.1625 25.7208C71.1617 25.7213 71.1608 25.7219 71.1599 25.7224C70.9019 25.879 70.6931 26.0863 70.5335 26.3442C70.5325 26.3457 70.5316 26.3473 70.5307 26.3488C70.5305 26.3491 70.5303 26.3495 70.5301 26.3498C70.3757 26.6062 70.2985 26.8838 70.2985 27.1826C70.2985 27.3767 70.3394 27.568 70.4211 27.7565C70.4213 27.757 70.4215 27.7575 70.4217 27.758C70.4251 27.7658 70.4286 27.7736 70.4321 27.7814C70.5197 27.9717 70.6533 28.1887 70.8329 28.4324C70.8333 28.4329 70.8336 28.4333 70.8339 28.4337C70.8366 28.4374 70.8393 28.441 70.842 28.4447C70.9982 28.653 71.1919 28.9031 71.4231 29.1952C71.4647 29.2477 71.5074 29.3016 71.5514 29.3568L71.6532 29.4854ZM72.1191 28.6755L71.7198 28.9737C71.4874 28.6801 71.2939 28.4302 71.1388 28.2235C70.9643 27.9878 70.8436 27.7898 70.7688 27.6276C70.7004 27.4762 70.6686 27.3288 70.6686 27.1826C70.6686 26.9501 70.728 26.7375 70.849 26.5377C70.9779 26.33 71.1442 26.1651 71.3512 26.0393C71.5538 25.9179 71.7717 25.8576 72.0121 25.8576C72.3695 25.8576 72.6439 25.9748 72.8643 26.2044L72.8656 26.2058L72.867 26.2072C73.0898 26.4345 73.2081 26.7249 73.2081 27.1089C73.2081 27.3684 73.1357 27.603 72.9867 27.8217L72.9859 27.8229L72.9851 27.8241C72.83 28.0555 72.5497 28.3397 72.1191 28.6755ZM75.6841 34.576L75.0176 33.7343L75.6841 34.576Z" fill="black"/>
<path d="M58.3567 34.7552V25.3215H61.1204C61.6486 25.3215 62.1154 25.4336 62.5207 25.6578C62.9292 25.882 63.2485 26.1952 63.4788 26.5975C63.7123 26.9998 63.8289 27.4711 63.8289 28.0116C63.8289 28.5459 63.7123 29.0142 63.4788 29.4166C63.2485 29.8157 62.9292 30.1275 62.5207 30.3516C62.1154 30.5727 61.6486 30.6832 61.1204 30.6832H58.5041V30.3884H61.1204C61.5933 30.3884 62.011 30.2902 62.3733 30.0936C62.7357 29.8971 63.0198 29.6207 63.2255 29.2645C63.4312 28.9083 63.5341 28.4907 63.5341 28.0116C63.5341 27.5295 63.4312 27.1088 63.2255 26.7495C63.0198 26.3902 62.7357 26.1123 62.3733 25.9157C62.011 25.7161 61.5933 25.6163 61.1204 25.6163H58.6515V34.7552H58.3567ZM61.9496 30.4622L64.2711 34.7552H63.9395L61.6179 30.4622H61.9496Z" fill="black"/>
<path fill-rule="evenodd" clip-rule="evenodd" d="M57.9867 35.1254V24.9514H61.1206C61.7023 24.9514 62.2322 25.0753 62.6995 25.3336C63.1668 25.5902 63.5355 25.9516 63.7997 26.4127C64.0705 26.8798 64.1992 27.4171 64.1992 28.0117C64.1992 28.6012 64.07 29.1354 63.7994 29.602C63.5349 30.0603 63.166 30.4199 62.699 30.6762L62.6981 30.6767C62.6435 30.7064 62.5881 30.7344 62.5319 30.7605L64.8923 35.1254H63.719L61.5068 31.0346C61.3808 31.0472 61.252 31.0534 61.1206 31.0534H59.0218V35.1254H57.9867ZM63.479 29.4166C63.4798 29.4152 63.4807 29.4137 63.4815 29.4123C63.7132 29.011 63.8291 28.5441 63.8291 28.0117C63.8291 27.4735 63.7134 27.0039 63.482 26.6027C63.481 26.601 63.48 26.5993 63.479 26.5975C63.2487 26.1952 62.9293 25.882 62.5209 25.6578C62.5195 25.6571 62.5182 25.6563 62.5168 25.6556C62.5163 25.6553 62.5157 25.655 62.5151 25.6547C62.1111 25.4326 61.6463 25.3216 61.1206 25.3216H58.3569V34.7553H58.6516V30.6833H61.1206C61.186 30.6833 61.2505 30.6816 61.3141 30.6782C61.4179 30.6726 61.5193 30.6626 61.6181 30.648C61.6216 30.6474 61.625 30.6469 61.6285 30.6464C61.656 30.6422 61.6833 30.6377 61.7104 30.6329L63.9396 34.7553H64.2713L62.0048 30.564C62.0304 30.5565 62.0559 30.5486 62.0812 30.5404C62.1753 30.5099 62.2667 30.4745 62.3554 30.4342C62.4097 30.4096 62.4629 30.3831 62.5151 30.3548C62.5151 30.3548 62.5151 30.3548 62.5151 30.3548C62.517 30.3538 62.519 30.3527 62.5209 30.3517C62.9293 30.1275 63.2487 29.8158 63.479 29.4166ZM62.3735 30.0937C62.375 30.0929 62.3765 30.0921 62.378 30.0913C62.3782 30.0911 62.3784 30.091 62.3786 30.0909C62.7371 29.8953 63.0186 29.6214 63.2231 29.269C63.2232 29.2688 63.2234 29.2685 63.2235 29.2683C63.2242 29.2671 63.2249 29.2658 63.2257 29.2646C63.4314 28.9083 63.5343 28.4907 63.5343 28.0117C63.5343 27.5295 63.4314 27.1088 63.2257 26.7495C63.2249 26.7483 63.2242 26.747 63.2235 26.7458C63.2232 26.7453 63.2229 26.7448 63.2227 26.7443C63.018 26.389 62.7364 26.1137 62.378 25.9182C62.3777 25.9181 62.3774 25.9179 62.3771 25.9178C62.3759 25.9171 62.3747 25.9164 62.3735 25.9158C62.0112 25.7162 61.5935 25.6164 61.1206 25.6164H58.6516V30.3885H61.1206C61.1329 30.3885 61.1451 30.3884 61.1573 30.3883C61.3173 30.3865 61.4709 30.3734 61.6181 30.3489C61.7325 30.3299 61.8431 30.3039 61.9497 30.2711C62.0406 30.2432 62.1286 30.2103 62.2138 30.1724C62.2682 30.1482 62.3214 30.1219 62.3735 30.0937ZM59.0218 30.0183H61.1206C61.5411 30.0183 61.8964 29.9314 62.197 29.7683C62.4995 29.6043 62.7336 29.3764 62.9051 29.0794C63.0734 28.7882 63.1641 28.4365 63.1641 28.0117C63.1641 27.5834 63.0732 27.2282 62.9044 26.9335C62.7327 26.6336 62.4987 26.4048 62.197 26.2412L62.1959 26.2406L62.1949 26.24C61.8947 26.0746 61.5401 25.9865 61.1206 25.9865H59.0218V30.0183Z" fill="black"/>
<path d="M47.8337 25.3215V34.7552H47.5389V25.3215H47.8337Z" fill="black"/>
<path fill-rule="evenodd" clip-rule="evenodd" d="M48.2037 24.9514V35.1254H47.1686V24.9514H48.2037ZM47.8335 34.7553V25.3216H47.5387V34.7553H47.8335Z" fill="black"/>
<path d="M28.766 25.3215H29.0239L32.8748 34.3131H32.9116L36.7625 25.3215H37.0205V34.7552H36.7256V26.2428H36.6888L33.0406 34.7552H32.7458L29.0976 26.2428H29.0608V34.7552H28.766V25.3215Z" fill="black"/>
<path fill-rule="evenodd" clip-rule="evenodd" d="M28.3958 24.9514H29.268L32.8931 33.4158L36.5182 24.9514H37.3905V35.1254H36.3554V27.9604L33.2846 35.1254H32.5017L29.4309 27.9603V35.1254H28.3958V24.9514ZM32.7458 34.7553H33.0405L36.6887 26.2428H36.7255V34.7553H37.0204V25.3216H36.7624L32.9115 34.3131H32.8747L29.0238 25.3216H28.7659V34.7553H29.0607V26.2428H29.0975L32.7458 34.7553Z" fill="black"/>
<path fill-rule="evenodd" clip-rule="evenodd" d="M45.026 25.5726H39.9591V25.2917H45.026V25.5726Z" fill="black"/>
<path fill-rule="evenodd" clip-rule="evenodd" d="M45.3963 25.9428H39.5891V24.9216H45.3963V25.9428ZM39.9593 25.5726H45.0262V25.2918H39.9593V25.5726Z" fill="black"/>
<path fill-rule="evenodd" clip-rule="evenodd" d="M45.026 30.1329H39.9591V29.8521H45.026V30.1329Z" fill="black"/>
<path fill-rule="evenodd" clip-rule="evenodd" d="M45.3963 30.5028H39.5891V29.4817H45.3963V30.5028ZM39.9593 30.1326H45.0262V29.8518H39.9593V30.1326Z" fill="black"/>
<path fill-rule="evenodd" clip-rule="evenodd" d="M45.026 34.693H39.9591V34.4121H45.026V34.693Z" fill="black"/>
<path fill-rule="evenodd" clip-rule="evenodd" d="M45.3963 35.0632H39.5891V34.042H45.3963V35.0632ZM39.9593 34.693H45.0262V34.4121H39.9593V34.693Z" fill="black"/>
<path fill-rule="evenodd" clip-rule="evenodd" d="M55.8693 25.5726H50.8024V25.2917H55.8693V25.5726Z" fill="black"/>
<path fill-rule="evenodd" clip-rule="evenodd" d="M56.2395 25.9428H50.4323V24.9216H56.2395V25.9428ZM50.8024 25.5726H55.8693V25.2918H50.8024V25.5726Z" fill="black"/>
<path fill-rule="evenodd" clip-rule="evenodd" d="M55.8693 30.1329H50.8024V29.8521H55.8693V30.1329Z" fill="black"/>
<path fill-rule="evenodd" clip-rule="evenodd" d="M56.2395 30.5028H50.4323V29.4817H56.2395V30.5028ZM50.8024 30.1326H55.8693V29.8518H50.8024V30.1326Z" fill="black"/>
<path fill-rule="evenodd" clip-rule="evenodd" d="M55.8693 34.693H50.8024V34.4121H55.8693V34.693Z" fill="black"/>
<path fill-rule="evenodd" clip-rule="evenodd" d="M56.2395 35.0632H50.4323V34.042H56.2395V35.0632ZM50.8024 34.693H55.8693V34.4121H50.8024V34.693Z" fill="black"/>
<path d="M11 22H25.4361V38H11V22Z" fill="#0A0909"/>
<path fill-rule="evenodd" clip-rule="evenodd" d="M23.2465 24.1653L23.2465 34.2399L22.9584 34.2432L19.8321 29.8881L16.7201 34.2392L16.4447 34.2463V31.9377L17.0256 31.1368C17.0277 31.1339 17.0298 31.131 17.0319 31.1281L17.0375 31.1203C17.0414 31.1148 17.0453 31.1093 17.0493 31.1039V31.1042L19.3643 27.9132V27.3043C18.9181 27.9278 18.4719 28.5513 18.0257 29.1749C17.5795 29.7984 17.1332 30.422 16.687 31.0455C16.584 31.076 16.5075 31.0474 16.4445 30.9924C16.3894 30.9445 16.3446 30.8766 16.3011 30.8108C16.2799 30.7787 16.259 30.7471 16.2375 30.7185C15.9381 30.3034 15.6394 29.8877 15.3408 29.4721L15.3407 29.4719L15.3406 29.4717L15.3405 29.4715C14.8191 28.7459 14.2979 28.0204 13.7732 27.2978L13.7713 34.1657H13.7719V35.2529H23.2465V35.8593H13.1655L13.1654 25.7821L13.4567 25.7802L13.4602 25.7851C14.4551 27.1746 15.45 28.5641 16.4447 29.9536C16.4661 29.9835 16.4875 30.0135 16.509 30.0434C16.5304 30.0734 16.5519 30.1033 16.5733 30.1333L19.6944 25.7783C19.7902 25.7828 19.8863 25.7873 19.9824 25.7918L19.9747 28.1231L17.2787 31.8394L17.2761 31.8431L17.0493 32.1558V32.7146C17.3883 32.2423 17.7273 31.7701 18.0663 31.2978L18.0689 31.2942C18.5008 30.6926 18.9327 30.091 19.3648 29.4892C19.4264 29.4033 19.4882 29.3172 19.55 29.2312C19.6117 29.1452 19.6735 29.0591 19.7352 28.9732L19.941 28.9803C20.3903 29.6041 20.8395 30.2278 21.2888 30.8516C21.7387 31.4764 22.1887 32.1012 22.6387 32.726L22.6401 24.7718H13.1654V24.1653L23.2465 24.1653Z" fill="white"/>
</svg>
