<svg width="32" height="32" viewBox="0 0 32 32" fill="none" xmlns="http://www.w3.org/2000/svg">
<rect width="32" height="32" fill="#F35800"/>
<path fill-rule="evenodd" clip-rule="evenodd" d="M14.9536 15.5995C14.8598 15.477 14.8095 15.3476 14.793 15.2195C11.7691 15.7042 9.6469 14.9458 9.04102 12.8366C9.36844 13.0033 9.48557 13.0536 9.87654 13.1304C10.1548 12.8545 10.267 12.6999 10.416 12.4056C11.0312 14.272 12.9822 15.3077 14.8343 14.8472C14.8444 14.8181 14.8559 14.7894 14.8687 14.7614C12.8222 13.9286 11.7324 13.1444 11.5749 12.1252C11.315 10.4446 13.0099 8.95202 14.454 10.0584C15.1314 10.5773 15.4593 11.8878 15.5114 13.9472C15.7845 11.3399 16.3279 9.71441 17.2322 9.13405C19.1327 7.91435 21.0753 9.93528 20.5807 11.9875C20.2889 13.1981 18.9289 14.0426 16.4458 14.8419L16.4468 14.8502C18.5114 15.2015 20.0407 14.6069 20.878 12.9828C21.036 13.2923 21.0105 13.3964 21.3298 13.7017C21.8194 13.6678 21.7706 13.6344 22.1896 13.504C20.7852 15.5059 19.3934 15.724 16.4482 15.1507C16.4371 15.2813 16.4124 15.4301 16.3727 15.5995H14.9536V15.5995ZM16.4471 15.5995V24.033C16.5597 23.9095 16.6754 23.7282 16.7326 23.6372C17.0119 23.1931 17.2542 22.7428 17.5609 22.3129C18.5865 20.8753 19.9229 20.1528 21.676 19.9514L21.7155 19.9468L21.7332 19.9463V18.5944C21.8848 18.5944 22.1895 18.628 22.1895 18.3392V15.8547C22.1895 15.7144 22.0747 15.5995 21.9343 15.5995H16.4471V15.5995ZM9.49737 21.6456C10.972 22.9698 12.8123 23.8173 14.7835 24.0772V15.5995H9.29626C9.15587 15.5995 9.04102 15.7144 9.04102 15.8547V18.3392C9.04102 18.4795 9.15587 18.5943 9.29626 18.5943H9.49737V21.6456ZM14.9032 14.6935C14.9962 14.526 15.1355 14.3873 15.2858 14.3054C15.0856 13.6797 14.9638 12.4074 14.4738 11.5333C13.767 10.2733 12.5656 10.7908 12.4978 11.802C12.4987 11.1946 12.6466 10.7138 13.243 10.3695C12.4508 10.5794 12.2646 11.6176 12.4901 12.2996C12.7733 13.1566 14.433 14.2981 14.9032 14.6935ZM15.7466 14.2622C16.0658 14.2887 16.2991 14.3885 16.3999 14.651C17.0757 14.2553 18.5032 13.6146 19.1416 12.5364C19.8265 11.3796 19.1473 10.2464 18.2501 10.1759L18.2501 10.1757C18.7908 10.0494 19.4126 10.2042 19.8636 11.1251C19.6568 10.1563 18.5688 9.67015 17.5742 10.3112C16.3759 11.0833 16.0848 13.2858 15.7466 14.2622Z" fill="white"/>
<path fill-rule="evenodd" clip-rule="evenodd" d="M28.4905 22.1098C28.7185 22.3378 28.347 22.5886 28.075 22.7566C27.1225 23.3453 25.8823 24.1712 24.6635 24.5695C25.0655 24.3239 25.4468 24.0357 25.8059 23.7321C26.223 23.3796 26.6422 23.0179 26.9927 22.5991C27.1131 22.455 27.2398 22.3071 27.3704 22.1558C27.8095 21.6472 28.2125 21.8318 28.4905 22.1098ZM18.8426 27.4064C21.5521 26.5238 23.0121 25.6178 24.1139 24.1666C24.1278 24.1528 24.1386 24.1411 24.1456 24.1317C24.3774 23.8233 24.5881 23.4972 24.7831 23.1611L24.7714 23.1707C25.3375 22.1964 25.8481 21.0084 26.4693 19.5083C26.6096 19.2455 27.0364 18.277 26.72 18.1869C25.689 17.8933 25.3075 18.831 25.0307 19.3702C24.7516 19.9135 24.4762 20.4423 24.1963 20.9467C23.88 21.5168 23.5288 22.139 23.1302 22.6562C22.5964 23.3489 21.9251 23.8761 20.7979 24.0035C20.2988 24.0599 20.0289 24.0215 20.3044 23.3436C20.7199 22.3215 21.6186 22.3899 22.1648 21.7865C22.5123 21.2344 22.4897 20.8616 21.7827 20.8825C17.6108 21.3618 18.027 25.0697 16.2558 25.0981C12.9044 25.1519 9.57613 23.6477 7.42151 20.754C3.86346 15.9756 4.85279 9.21733 9.63127 5.65928C9.69844 5.60927 9.76633 5.56042 9.83495 5.51268C10.759 4.85712 11.7945 4.34159 12.9137 4C9.49384 4.62906 6.4231 6.71912 4.61255 9.86541C1.99313 14.4173 2.60935 20.1393 6.13775 24.0292C9.36461 27.5867 14.3534 28.8688 18.8426 27.4064ZM25.8831 21.7284C25.4135 22.7565 24.9571 23.6065 24.412 24.3319C25.6946 23.5723 26.9926 22.182 27.5797 21.3893C27.8301 21.0511 28.4673 20.0662 28.0277 19.8852C27.5016 19.6687 27.1868 19.8607 26.9712 20.2014C26.8065 20.4617 26.2994 21.1551 25.8831 21.7284Z" fill="white"/>
<path fill-rule="evenodd" clip-rule="evenodd" d="M6.56934 11.5975C8.69434 7.21145 13.6649 4.98816 18.3509 6.32762C23.0369 7.66709 26.0815 12.1815 25.5674 17.028C27.066 11.7821 24.0288 6.31456 18.7832 4.81512C13.5376 3.3157 8.06959 6.35209 6.56934 11.5975Z" fill="white"/>
</svg>
