<svg width="159" height="40" viewBox="0 0 159 40" fill="none" xmlns="http://www.w3.org/2000/svg">
<path d="M144.205 21.3315C145.579 21.3315 146.496 22.025 146.954 23.4119V33.5911C146.954 35.3867 147.623 36.4269 148.96 36.7117H149.183C152.303 35.7582 153.864 34.4455 153.864 32.7738C154.124 26.0372 154.322 22.6689 154.458 22.6689C155.015 21.8764 155.783 21.4801 156.761 21.4801C157.839 21.4801 158.582 22.025 158.991 23.1147V38.1234C158.607 39.1636 158.037 39.6837 157.282 39.6837C157.282 39.7828 157.034 39.8323 156.539 39.8323C155.684 39.8323 154.718 39.337 153.641 38.3463C150.211 39.337 148.056 39.8323 147.177 39.8323C145.493 39.8323 143.883 38.7426 142.347 36.5631C142.001 35.2505 141.827 34.3836 141.827 33.9626V23.1147C141.827 22.3717 142.397 21.7773 143.536 21.3315H144.205Z" fill="white"/>
<path d="M132.539 21.48H132.762C135.102 21.8391 137.232 22.7555 139.152 24.2291C139.994 24.9597 140.415 25.8513 140.415 26.9039V27.1268C140.415 29.0958 139.251 30.9285 136.923 32.625L133.654 35.597V35.6713H139.077C140.167 35.6713 140.712 36.4886 140.712 38.1232V38.569C140.712 39.1882 140.242 39.6092 139.3 39.8321H127.338C126.793 39.8321 126.446 39.312 126.298 38.2718C126.298 37.2069 127.09 36.241 128.675 35.3741C133.034 32.0801 135.214 29.5787 135.214 27.8698C135.214 26.2723 134.421 25.1826 132.836 24.6006H132.242C131.078 24.7244 129.567 25.517 127.71 26.9782C126.768 26.7801 126.298 26.3343 126.298 25.6408C126.669 24.6006 127.71 23.4861 129.418 22.2973C130.545 21.7524 131.586 21.48 132.539 21.48Z" fill="white"/>
<path d="M117.234 14.793H117.457C118.039 14.793 118.782 15.2883 119.686 16.279V20.5141C119.686 20.9475 119.983 21.2199 120.577 21.3314C123.351 21.3314 124.738 21.7524 124.738 22.5945V23.1889C124.738 24.0805 124.119 24.5263 122.881 24.5263H122.138L120.949 24.452C120.255 24.613 119.909 24.9102 119.909 25.3436V35.0769C120.156 36.1171 120.949 36.6372 122.286 36.6372H122.361L123.847 36.34C124.738 36.34 125.184 36.8354 125.184 37.826C125.184 38.4452 124.466 38.9653 123.029 39.3863C122.93 39.5102 122.46 39.6588 121.618 39.8321C120.726 39.7702 119.24 39.2006 117.16 38.1232C115.773 37.0335 115.079 36.0181 115.079 35.0769V16.5762C115.426 15.3874 116.144 14.793 117.234 14.793Z" fill="#F35800"/>
<path d="M111.067 10.9287H111.587C113.172 11.0773 113.965 11.7955 113.965 13.0834C113.965 14.136 113.469 14.8542 112.479 15.2381H112.33C110.25 15.2381 109.209 15.4115 109.209 15.7582C108.912 16.1297 108.764 16.4269 108.764 16.6498V21.2564C108.974 21.5413 109.197 21.7394 109.432 21.8508H110.398C112.169 21.8508 113.184 22.1233 113.445 22.6681L113.667 23.4112C113.519 24.2037 112.999 24.6 112.107 24.6C109.729 24.8229 108.541 24.9962 108.541 25.1201V38.1226C108.095 39.2619 107.253 39.8315 106.014 39.8315H105.494C104.553 39.8315 103.885 39.2371 103.488 38.0483V17.2442C103.488 15.9316 104.281 14.6933 105.866 13.5292C107.661 11.7955 109.395 10.9287 111.067 10.9287Z" fill="#F35800"/>
<path d="M99.8471 11.1519C101.048 11.1519 101.89 11.8701 102.373 13.3066V13.7524C102.373 14.7678 101.457 15.4365 99.6242 15.7585H98.9555C97.9772 15.7585 97.259 15.1145 96.8008 13.8267V13.4552C96.8008 12.2416 97.7172 11.4738 99.5499 11.1519H99.8471ZM99.1784 21.7768H99.4013C100.64 21.7768 101.531 22.2474 102.076 23.1885L102.15 23.8572V37.8999C102.15 38.8163 101.358 39.4602 99.7728 39.8317H99.4756C98.2249 39.8317 97.4571 39.4355 97.1723 38.6429L97.0237 38.1971V23.3371C97.0237 22.817 97.4695 22.3464 98.3611 21.9254C98.5592 21.8263 98.8317 21.7768 99.1784 21.7768Z" fill="#F35800"/>
<path d="M89.4448 10.4834H89.6677C90.9184 10.7063 92.5282 11.4245 94.4972 12.6381C94.8934 13.3935 95.0916 14.0374 95.0916 14.5699V14.7928C95.0916 15.7587 94.7448 16.4274 94.0514 16.7989L93.2341 17.0218C92.132 17.0218 91.067 16.6008 90.0392 15.7587C88.5408 14.7185 87.5501 14.1984 87.0672 14.1984H86.9186C83.7732 14.1984 81.7175 16.7742 80.7516 21.9256L80.5287 24.9719C80.5287 29.7395 81.6432 33.2564 83.8722 35.5226C84.9124 36.4637 86.0022 36.9343 87.1415 36.9343C89.1228 36.9343 90.1135 35.5473 90.1135 32.7735C90.423 27.5229 90.6212 24.8976 90.7079 24.8976C91.3147 24.2537 91.9834 23.9317 92.714 23.9317C94.4972 24.2289 95.3888 24.9719 95.3888 26.1607L95.686 30.8417C95.686 33.0954 95.2897 34.8786 94.4972 36.1913C92.0329 38.6184 89.4571 39.832 86.77 39.832H85.9527C83.315 39.832 80.9126 38.9156 78.7455 37.0829C76.1203 33.987 74.8076 30.4454 74.8076 26.458C74.8076 21.839 76.0955 18.1982 78.6712 15.5358C81.2222 13.7278 83.9961 12.1428 86.9929 10.7806C87.6368 10.5825 88.4541 10.4834 89.4448 10.4834Z" fill="#F35800"/>
<path d="M65.5209 21.1826C66.7469 21.1826 67.5394 21.5789 67.8985 22.3714C67.9728 22.3838 68.0719 22.5819 68.1957 22.9658L70.9448 21.4798L71.8364 21.3312H71.9107C72.8023 21.3312 73.3967 22.421 73.6939 24.6004C73.6939 25.1329 72.3813 25.9254 69.756 26.978C68.7654 27.6715 68.27 28.2907 68.27 28.8355L68.0471 38.5689C67.6261 39.4109 66.8336 39.832 65.6695 39.832H65.5209C64.5674 39.832 63.9235 39.4605 63.5891 38.7175L63.3662 37.8259V23.0401C63.8244 21.8018 64.5426 21.1826 65.5209 21.1826Z" fill="white"/>
<path d="M47.4655 21.3315C48.8401 21.3315 49.7564 22.025 50.2146 23.4119V33.5911C50.2146 35.3867 50.8833 36.4269 52.2207 36.7117H52.4436C55.5642 35.7582 57.1245 34.4455 57.1245 32.7738C57.3846 26.0372 57.5827 22.6689 57.7189 22.6689C58.2762 21.8764 59.044 21.4801 60.0222 21.4801C61.0996 21.4801 61.8426 22.025 62.2512 23.1147V38.1234C61.8674 39.1636 61.2977 39.6837 60.5423 39.6837C60.5423 39.7828 60.2947 39.8323 59.7993 39.8323C58.9449 39.8323 57.979 39.337 56.9016 38.3463C53.4714 39.337 51.3167 39.8323 50.4375 39.8323C48.7534 39.8323 47.1435 38.7426 45.608 36.5631C45.2613 35.2505 45.0879 34.3836 45.0879 33.9626V23.1147C45.0879 22.3717 45.6575 21.7773 46.7968 21.3315H47.4655Z" fill="white"/>
<path fill-rule="evenodd" clip-rule="evenodd" d="M19.9227 19.3328C19.7663 19.1286 19.6825 18.9131 19.655 18.6994C14.6152 19.5073 11.0782 18.2434 10.0684 14.7279C10.6141 15.0058 10.8093 15.0896 11.4609 15.2177C11.9246 14.7577 12.1117 14.5002 12.36 14.0097C13.3853 17.1204 16.637 18.8466 19.7238 18.079C19.7407 18.0304 19.7598 17.9827 19.7812 17.936C16.3703 16.5479 14.554 15.241 14.2915 13.5423C13.8584 10.7413 16.6831 8.25369 19.09 10.0977C20.219 10.9625 20.7655 13.1466 20.8524 16.579C21.3076 12.2335 22.2132 9.52434 23.7204 8.55707C26.8879 6.52423 30.1255 9.89246 29.3011 13.3128C28.8149 15.3305 26.5482 16.738 22.4097 18.0702L22.4113 18.084C25.8523 18.6694 28.4012 17.6785 29.7966 14.9717C30.06 15.4874 30.0176 15.661 30.5496 16.1698C31.3656 16.1132 31.2843 16.0577 31.9826 15.8404C29.642 19.1767 27.3223 19.5404 22.4137 18.5848C22.3952 18.8025 22.354 19.0505 22.2878 19.3328H19.9227V19.3328ZM22.4118 19.3328V33.3886C22.5995 33.1828 22.7924 32.8807 22.8877 32.729C23.3532 31.9888 23.757 31.2384 24.2682 30.5218C25.9774 28.1259 28.2048 26.9216 31.1266 26.5859L31.1926 26.5784L31.2219 26.5775V24.3243C31.4746 24.3243 31.9825 24.3802 31.9825 23.899V19.7582C31.9825 19.5243 31.7911 19.3328 31.5571 19.3328H22.4118V19.3328ZM10.8289 29.4097C13.2867 31.6167 16.3538 33.0292 19.6392 33.4623V19.3328H10.4938C10.2598 19.3328 10.0684 19.5242 10.0684 19.7581V23.8989C10.0684 24.1328 10.2598 24.3242 10.4938 24.3242H10.8289V29.4097ZM19.8387 17.8228C19.9937 17.5437 20.2259 17.3125 20.4764 17.1761C20.1426 16.1332 19.9397 14.0126 19.1229 12.5558C17.945 10.4558 15.9427 11.3184 15.8296 13.0037C15.8312 11.9913 16.0777 11.19 17.0716 10.6162C15.7513 10.9661 15.441 12.6964 15.8168 13.8329C16.2888 15.2613 19.0551 17.1638 19.8387 17.8228ZM21.2443 17.104C21.7763 17.1482 22.1652 17.3144 22.3331 17.7521C23.4595 17.0926 25.8386 16.0246 26.9026 14.2276C28.0441 12.2997 26.9121 10.411 25.4168 10.2935L25.4169 10.2931C26.3181 10.0827 27.3543 10.3406 28.106 11.8755C27.7614 10.2609 25.948 9.45057 24.2904 10.5189C22.2931 11.8058 21.808 15.4767 21.2443 17.104Z" fill="#F35800"/>
<path fill-rule="evenodd" clip-rule="evenodd" d="M42.4842 30.183C42.8642 30.563 42.245 30.981 41.7917 31.261C40.2042 32.2422 38.1372 33.6187 36.1058 34.2825C36.7758 33.8732 37.4114 33.3928 38.0098 32.8869C38.7049 32.2993 39.4037 31.6965 39.9878 30.9984C40.1885 30.7584 40.3996 30.5118 40.6174 30.2596C41.3492 29.4119 42.0208 29.7196 42.4842 30.183ZM26.4043 39.0107C30.9201 37.5396 33.3535 36.0297 35.1898 33.611C35.2129 33.5881 35.2309 33.5684 35.2426 33.5529C35.629 33.0388 35.9801 32.4954 36.3052 31.9351L36.2857 31.9512C37.2292 30.3274 38.0801 28.3473 39.1155 25.8471C39.3493 25.4092 40.0607 23.795 39.5333 23.6448C37.815 23.1555 37.1792 24.7183 36.7178 25.6169C36.2527 26.5226 35.7937 27.4039 35.3272 28.2445C34.8 29.1947 34.2146 30.2316 33.5503 31.0937C32.6607 32.2482 31.5418 33.1269 29.6632 33.3392C28.8313 33.4332 28.3815 33.3692 28.8407 32.2394C29.5331 30.5359 31.031 30.6499 31.9413 29.6442C32.5205 28.724 32.4828 28.1027 31.3044 28.1374C24.3513 28.9363 25.0451 35.1162 22.093 35.1636C16.5073 35.2531 10.9602 32.7462 7.36918 27.9234C1.43909 19.9593 3.08799 8.69556 11.0521 2.76546C11.1641 2.68211 11.2772 2.6007 11.3916 2.52114C12.9316 1.42853 14.6576 0.569315 16.5229 0C10.8231 1.04844 5.70516 4.53186 2.68758 9.77569C-1.67812 17.3622 -0.651091 26.8988 5.22959 33.382C10.6077 39.3111 18.9223 41.448 26.4043 39.0107ZM38.1386 29.5473C37.3558 31.2608 36.5952 32.6775 35.6867 33.8865C37.8244 32.6205 39.9877 30.3034 40.9662 28.9821C41.3835 28.4185 42.4455 26.7769 41.7128 26.4754C40.8359 26.1145 40.3114 26.4346 39.952 27.0023C39.6775 27.4362 38.8323 28.5918 38.1386 29.5473Z" fill="white"/>
<path fill-rule="evenodd" clip-rule="evenodd" d="M5.94922 12.6624C9.49089 5.35242 17.7752 1.64693 25.5851 3.87937C33.3951 6.11181 38.4694 13.6358 37.6126 21.7133C40.1104 12.9702 35.0484 3.85761 26.3057 1.35853C17.563 -1.1405 8.44964 3.92015 5.94922 12.6624Z" fill="white"/>
</svg>
