<svg width="167" height="42" viewBox="0 0 167 42" fill="none" xmlns="http://www.w3.org/2000/svg">
<path d="M151.415 22.3977C152.858 22.3977 153.82 23.1258 154.301 24.5821V35.2702C154.301 37.1556 155.003 38.2478 156.408 38.5469H156.642C159.918 37.5457 161.557 36.1674 161.557 34.4121C161.83 27.3387 162.038 23.802 162.181 23.802C162.766 22.9698 163.572 22.5537 164.599 22.5537C165.73 22.5537 166.511 23.1258 166.94 24.2701V40.0292C166.537 41.1214 165.939 41.6675 165.145 41.6675C165.145 41.7715 164.885 41.8235 164.365 41.8235C163.468 41.8235 162.454 41.3034 161.323 40.2632C157.721 41.3034 155.458 41.8235 154.535 41.8235C152.767 41.8235 151.077 40.6793 149.464 38.3908C149.1 37.0126 148.918 36.1024 148.918 35.6603V24.2701C148.918 23.4899 149.516 22.8658 150.713 22.3977H151.415Z" fill="#282828"/>
<path d="M139.166 22.554H139.4C141.858 22.931 144.094 23.8932 146.109 25.4405C146.994 26.2077 147.436 27.1439 147.436 28.2491V28.4831C147.436 30.5505 146.213 32.4749 143.769 34.2562L140.336 37.3768V37.4549H146.031C147.176 37.4549 147.748 38.313 147.748 40.0294V40.4975C147.748 41.1476 147.254 41.5897 146.265 41.8237H133.705C133.133 41.8237 132.769 41.2776 132.613 40.1854C132.613 39.0672 133.445 38.053 135.109 37.1428C139.686 33.6841 141.975 31.0576 141.975 29.2633C141.975 27.5859 141.142 26.4417 139.478 25.8306H138.854C137.632 25.9606 136.045 26.7928 134.095 28.3271C133.107 28.119 132.613 27.651 132.613 26.9228C133.003 25.8306 134.095 24.6604 135.889 23.4121C137.073 22.84 138.165 22.554 139.166 22.554Z" fill="#282828"/>
<path d="M123.095 15.5327H123.329C123.941 15.5327 124.721 16.0528 125.67 17.093V21.5399C125.67 21.995 125.982 22.281 126.606 22.3981C129.519 22.3981 130.975 22.8401 130.975 23.7243V24.3484C130.975 25.2846 130.325 25.7527 129.025 25.7527H128.244L126.996 25.6747C126.268 25.8437 125.904 26.1558 125.904 26.6109V36.8309C126.164 37.9231 126.996 38.4692 128.4 38.4692H128.479L130.039 38.1571C130.975 38.1571 131.443 38.6772 131.443 39.7174C131.443 40.3676 130.689 40.9137 129.181 41.3558C129.077 41.4858 128.583 41.6418 127.698 41.8239C126.762 41.7588 125.202 41.1607 123.017 40.0295C121.561 38.8853 120.833 37.8191 120.833 36.8309V17.4051C121.197 16.1568 121.951 15.5327 123.095 15.5327Z" fill="#F35800"/>
<path d="M116.62 11.4758H117.166C118.83 11.6319 119.662 12.386 119.662 13.7383C119.662 14.8435 119.142 15.5976 118.102 16.0007H117.946C115.762 16.0007 114.669 16.1828 114.669 16.5468C114.357 16.9369 114.201 17.249 114.201 17.483V22.32C114.422 22.619 114.656 22.827 114.903 22.9441H115.918C117.777 22.9441 118.843 23.2301 119.116 23.8022L119.35 24.5824C119.194 25.4146 118.648 25.8306 117.712 25.8306C115.216 26.0647 113.967 26.2467 113.967 26.3767V40.0294C113.499 41.2256 112.615 41.8238 111.315 41.8238H110.769C109.78 41.8238 109.078 41.1996 108.662 39.9514V18.1071C108.662 16.7289 109.494 15.4286 111.159 14.2064C113.044 12.386 114.864 11.4758 116.62 11.4758Z" fill="#F35800"/>
<path d="M104.839 11.7095C106.101 11.7095 106.985 12.4636 107.492 13.9719V14.44C107.492 15.5062 106.53 16.2084 104.605 16.5464H103.903C102.876 16.5464 102.122 15.8703 101.641 14.518V14.1279C101.641 12.8537 102.603 12.0475 104.527 11.7095H104.839ZM104.137 22.8657H104.371C105.672 22.8657 106.608 23.3597 107.18 24.3479L107.258 25.0501V39.795C107.258 40.7571 106.426 41.4333 104.761 41.8234H104.449C103.136 41.8234 102.33 41.4073 102.031 40.5751L101.875 40.107V24.504C101.875 23.9579 102.343 23.4638 103.279 23.0217C103.487 22.9177 103.773 22.8657 104.137 22.8657Z" fill="#F35800"/>
<path d="M93.9175 11.0076H94.1515C95.4648 11.2416 97.1551 11.9958 99.2225 13.27C99.6386 14.0632 99.8466 14.7393 99.8466 15.2984V15.5325C99.8466 16.5467 99.4826 17.2488 98.7544 17.6389L97.8962 17.8729C96.739 17.8729 95.6208 17.4308 94.5416 16.5467C92.9683 15.4544 91.9281 14.9083 91.421 14.9083H91.2649C87.9623 14.9083 85.8039 17.6129 84.7897 23.0219L84.5556 26.2205C84.5556 31.2265 85.7259 34.9192 88.0663 37.2987C89.1585 38.2869 90.3028 38.781 91.499 38.781C93.5794 38.781 94.6196 37.3247 94.6196 34.4121C94.9447 28.8991 95.1527 26.1425 95.2437 26.1425C95.8808 25.4664 96.583 25.1283 97.3501 25.1283C99.2225 25.4404 100.159 26.2205 100.159 27.4688L100.471 32.3838C100.471 34.7502 100.055 36.6226 99.2225 38.0008C96.635 40.5493 93.9305 41.8236 91.1089 41.8236H90.2507C87.4812 41.8236 84.9587 40.8614 82.6833 38.937C79.9267 35.6864 78.5485 31.9677 78.5485 27.7808C78.5485 22.9309 79.9007 19.1082 82.6053 16.3126C85.2838 14.4142 88.1963 12.7499 91.343 11.3196C92.0191 11.1116 92.8773 11.0076 93.9175 11.0076Z" fill="#F35800"/>
<path d="M68.7965 22.2412C70.0838 22.2412 70.9159 22.6573 71.293 23.4895C71.371 23.5025 71.475 23.7105 71.605 24.1136L74.4916 22.5533L75.4278 22.3972H75.5058C76.442 22.3972 77.0661 23.5415 77.3782 25.8299C77.3782 26.389 75.9999 27.2212 73.2434 28.3264C72.2032 29.0545 71.6831 29.7047 71.6831 30.2768L71.449 40.4968C71.0069 41.381 70.1748 41.823 68.9525 41.823H68.7965C67.7953 41.823 67.1192 41.433 66.7681 40.6528L66.5341 39.7166V24.1916C67.0152 22.8913 67.7693 22.2412 68.7965 22.2412Z" fill="#282828"/>
<path d="M49.8388 22.3977C51.2821 22.3977 52.2442 23.1258 52.7253 24.5821V35.2702C52.7253 37.1556 53.4275 38.2478 54.8317 38.5469H55.0658C58.3424 37.5457 59.9808 36.1674 59.9808 34.4121C60.2538 27.3387 60.4618 23.802 60.6049 23.802C61.19 22.9698 61.9961 22.5537 63.0233 22.5537C64.1546 22.5537 64.9347 23.1258 65.3638 24.2701V40.0292C64.9607 41.1214 64.3626 41.6675 63.5695 41.6675C63.5695 41.7715 63.3094 41.8235 62.7893 41.8235C61.8921 41.8235 60.8779 41.3034 59.7467 40.2632C56.145 41.3034 53.8826 41.8235 52.9594 41.8235C51.191 41.8235 49.5007 40.6793 47.8884 38.3908C47.5243 37.0126 47.3423 36.1024 47.3423 35.6603V24.2701C47.3423 23.4899 47.9404 22.8658 49.1366 22.3977H49.8388Z" fill="#282828"/>
<path fill-rule="evenodd" clip-rule="evenodd" d="M20.9189 20.2993C20.7547 20.0849 20.6667 19.8586 20.6378 19.6343C15.346 20.4826 11.6321 19.1554 10.5718 15.4642C11.1448 15.756 11.3497 15.844 12.0339 15.9785C12.5208 15.4955 12.7173 15.2252 12.978 14.7101C14.0546 17.9763 17.4688 19.7888 20.7099 18.9829C20.7277 18.9319 20.7478 18.8817 20.7703 18.8327C17.1888 17.3752 15.2816 16.0029 15.0061 14.2194C14.5513 11.2783 17.5173 8.66628 20.0445 10.6024C21.2299 11.5105 21.8038 13.8039 21.895 17.4079C22.373 12.8451 23.3238 10.0005 24.9064 8.98482C28.2323 6.85035 31.6317 10.387 30.7662 13.9784C30.2556 16.0969 27.8756 17.5748 23.5301 18.9736L23.5319 18.9881C27.1449 19.6028 29.8213 18.5624 31.2864 15.7202C31.563 16.2617 31.5184 16.444 32.0771 16.9782C32.9339 16.9188 32.8485 16.8605 33.5817 16.6323C31.1241 20.1355 28.6884 20.5173 23.5344 19.514C23.515 19.7425 23.4717 20.0029 23.4022 20.2994H20.9189V20.2993ZM23.5323 20.2993V35.0579C23.7295 34.8419 23.932 34.5246 24.0321 34.3654C24.5209 33.5882 24.9448 32.8002 25.4816 32.0478C27.2763 29.5321 29.615 28.2676 32.683 27.9151L32.7522 27.9072L32.783 27.9063V25.5404C33.0484 25.5404 33.5816 25.5992 33.5816 25.0938V20.746C33.5816 20.5004 33.3807 20.2994 33.1349 20.2994H23.5323V20.2993ZM11.3704 30.8801C13.9511 33.1975 17.1715 34.6805 20.6211 35.1354V20.2993H11.0185C10.7728 20.2993 10.5718 20.5004 10.5718 20.746V25.0938C10.5718 25.3394 10.7728 25.5404 11.0185 25.5404H11.3704V30.8801ZM20.8306 18.7139C20.9934 18.4208 21.2372 18.1781 21.5002 18.0348C21.1498 16.9398 20.9367 14.7131 20.0791 13.1835C18.8423 10.9785 16.7398 11.8842 16.6211 13.6538C16.6228 12.5908 16.8816 11.7494 17.9252 11.1469C16.5388 11.5143 16.2131 13.3311 16.6076 14.5245C17.1032 16.0242 20.0078 18.0219 20.8306 18.7139ZM22.3065 17.9591C22.8651 18.0055 23.2735 18.18 23.4498 18.6396C24.6325 17.9471 27.1305 16.8257 28.2478 14.9389C29.4463 12.9146 28.2577 10.9314 26.6876 10.8081L26.6877 10.8077C27.634 10.5867 28.722 10.8576 29.5113 12.4692C29.1494 10.7738 27.2454 9.923 25.5049 11.0448C23.4078 12.396 22.8984 16.2504 22.3065 17.9591Z" fill="#F35800"/>
<path fill-rule="evenodd" clip-rule="evenodd" d="M44.6085 31.6922C45.0075 32.0912 44.3572 32.53 43.8813 32.824C42.2145 33.8543 40.0441 35.2996 37.9111 35.9967C38.6146 35.5669 39.2819 35.0624 39.9103 34.5312C40.6402 33.9143 41.3739 33.2813 41.9872 32.5483C42.1979 32.2963 42.4196 32.0374 42.6482 31.7726C43.4167 30.8825 44.1219 31.2056 44.6085 31.6922ZM27.7245 40.9612C32.4662 39.4166 35.0212 37.8312 36.9492 35.2915C36.9736 35.2675 36.9925 35.2469 37.0048 35.2306C37.4104 34.6907 37.7791 34.1202 38.1205 33.5319L38.0999 33.5487C39.0906 31.8438 39.9841 29.7646 41.0712 27.1394C41.3168 26.6797 42.0638 24.9848 41.51 24.8271C39.7058 24.3133 39.0382 25.9543 38.5537 26.8978C38.0653 27.8487 37.5833 28.7741 37.0936 29.6568C36.54 30.6545 35.9253 31.7432 35.2279 32.6483C34.2937 33.8606 33.1189 34.7832 31.1463 35.0062C30.2729 35.1049 29.8006 35.0376 30.2828 33.8513C31.0098 32.0627 32.5825 32.1824 33.5383 31.1264C34.1466 30.1602 34.1069 29.5079 32.8697 29.5443C25.5688 30.3832 26.2973 36.872 23.1977 36.9218C17.3327 37.0158 11.5082 34.3835 7.73764 29.3196C1.51105 20.9572 3.24239 9.13033 11.6047 2.90374C11.7223 2.81621 11.8411 2.73073 11.9612 2.64719C13.5782 1.49995 15.3905 0.597781 17.349 0C11.3642 1.10086 5.99042 4.75845 2.82196 10.2645C-1.76202 18.2303 -0.683645 28.2437 5.49107 35.0511C11.1381 41.2767 19.8684 43.5203 27.7245 40.9612ZM40.0455 31.0246C39.2235 32.8238 38.4249 34.3113 37.471 35.5809C39.7156 34.2515 41.987 31.8185 43.0145 30.4312C43.4527 29.8394 44.5678 28.1158 43.7985 27.7992C42.8777 27.4202 42.327 27.7563 41.9496 28.3525C41.6614 28.8081 40.7739 30.0214 40.0455 31.0246Z" fill="#282828"/>
<path fill-rule="evenodd" clip-rule="evenodd" d="M6.24719 13.2957C9.96595 5.62016 18.6644 1.7294 26.8649 4.07346C35.0654 6.41752 40.3934 14.3178 39.4938 22.7991C42.1164 13.6189 36.8013 4.05061 27.6215 1.42658C18.4416 -1.1974 8.87264 4.11628 6.24719 13.2957Z" fill="#282828"/>
</svg>
