<svg width="50" height="44" viewBox="0 0 50 44" fill="none" xmlns="http://www.w3.org/2000/svg">
<g clip-path="url(#clip0_1531_2131)">
<path d="M45.6637 7.01261H39.3036V0.766269C39.3036 0.343097 38.9554 0 38.5261 0H4.33504C1.94463 0 0 1.91663 0 4.27243V40.0605C0 42.2328 1.79303 44 3.99704 44H45.6637C47.8677 44 49.6607 42.2328 49.6607 40.0605V10.9519C49.6607 8.77981 47.8677 7.01261 45.6637 7.01261ZM48.1058 30.3535H37.4477C34.7359 30.3535 32.5298 28.1792 32.5298 25.5064C32.5298 22.8336 34.736 20.6592 37.4477 20.6592H48.1058V30.3535ZM4.33504 1.53254H37.7485V7.01261H4.33504C2.80208 7.01261 1.55493 5.78341 1.55493 4.27252C1.55493 2.76163 2.80208 1.53254 4.33504 1.53254ZM45.6637 42.4676H3.99704C2.65047 42.4676 1.55493 41.3879 1.55493 40.0606V7.54755C2.3081 8.16967 3.27779 8.54513 4.33504 8.54513H45.6637C47.0103 8.54513 48.1058 9.62474 48.1058 10.9519V19.1266H37.4477C33.8785 19.1266 30.9748 21.9886 30.9748 25.5063C30.9748 29.0241 33.8786 31.886 37.4477 31.886H48.1058V40.0605C48.1058 41.3878 47.0103 42.4676 45.6637 42.4676ZM34.904 25.5063C34.904 27.0991 36.2189 28.395 37.8351 28.395C39.4512 28.395 40.766 27.0991 40.766 25.5063C40.766 23.9134 39.4512 22.6175 37.8351 22.6175C36.2189 22.6175 34.904 23.9135 34.904 25.5063ZM37.8351 24.15C38.5938 24.15 39.211 24.7585 39.211 25.5063C39.211 26.2541 38.5938 26.8624 37.8351 26.8624C37.0763 26.8624 36.459 26.254 36.459 25.5063C36.459 24.7585 37.0763 24.15 37.8351 24.15ZM18.9072 27.396C18.9072 28.6579 18.0099 29.717 16.8112 29.9861V30.5658C16.8112 30.989 16.4631 31.3321 16.0337 31.3321C15.6044 31.3321 15.2562 30.989 15.2562 30.5658V29.9394C14.1482 29.6099 13.3389 28.5944 13.3389 27.396C13.3389 26.9729 13.6871 26.6298 14.1164 26.6298C14.5458 26.6298 14.8938 26.9729 14.8938 27.396C14.8938 28.0155 15.4052 28.5196 16.0337 28.5196H16.2126C16.8411 28.5196 17.3524 28.0154 17.3524 27.396C17.3524 26.7766 16.8412 26.2726 16.2126 26.2726H15.855C14.3691 26.2726 13.1603 25.0811 13.1603 23.6165C13.1603 22.3547 14.0575 21.2957 15.2562 21.0266V20.4466C15.2562 20.0234 15.6044 19.6803 16.0337 19.6803C16.4631 19.6803 16.8112 20.0234 16.8112 20.4466V21.0732C17.9193 21.4028 18.7285 22.4183 18.7285 23.6165C18.7285 24.0397 18.3804 24.3828 17.9511 24.3828C17.5217 24.3828 17.1736 24.0397 17.1736 23.6165C17.1736 22.997 16.6622 22.4931 16.0337 22.4931H15.855C15.2264 22.4931 14.7152 22.997 14.7152 23.6165C14.7152 24.236 15.2265 24.7401 15.855 24.7401H16.2126C17.6984 24.7401 18.9072 25.9315 18.9072 27.396ZM16.0337 13.6155C9.38134 13.6155 3.96924 18.9497 3.96924 25.5064C3.96924 32.0629 9.38125 37.3971 16.0337 37.3971C22.6862 37.3971 28.0982 32.063 28.0982 25.5064C28.0982 18.9497 22.6862 13.6155 16.0337 13.6155ZM16.0337 35.8644C10.2388 35.8644 5.52417 31.2177 5.52417 25.5063C5.52417 19.7947 10.2387 15.148 16.0337 15.148C21.8287 15.148 26.5433 19.7947 26.5433 25.5063C26.5433 31.2177 21.8287 35.8644 16.0337 35.8644ZM16.0337 16.9425C11.2427 16.9425 7.3449 20.7842 7.3449 25.5063C7.3449 30.2284 11.2427 34.0701 16.0337 34.0701C20.8248 34.0701 24.7228 30.2284 24.7228 25.5063C24.7228 20.7842 20.825 16.9425 16.0337 16.9425ZM16.0337 32.5376C12.1001 32.5376 8.89982 29.3835 8.89982 25.5064C8.89982 21.6293 12.1001 18.4752 16.0337 18.4752C19.9675 18.4752 23.1679 21.6293 23.1679 25.5064C23.1679 29.3835 19.9675 32.5376 16.0337 32.5376Z" fill="#F8991B"/>
</g>
<defs>
<clipPath id="clip0_1531_2131">
<rect width="50" height="44" fill="white"/>
</clipPath>
</defs>
</svg>
