<svg width="50" height="50" viewBox="0 0 50 50" fill="none" xmlns="http://www.w3.org/2000/svg">
<g clip-path="url(#clip0_1531_2114)">
<path d="M49.2545 20.3743C49.6598 20.3743 49.9882 19.9736 49.9882 19.4792V10.1325C49.9882 8.65179 49.0009 7.44722 47.7873 7.44722H47.025L45.6549 1.90971C45.3042 0.492404 44.0741 -0.313268 42.9118 0.114939L37.3901 2.14818C37.0022 2.29099 36.7827 2.79043 36.8997 3.26366C37.0168 3.73689 37.4259 4.00501 37.8141 3.86184L43.3357 1.82872C43.723 1.68578 44.1332 1.9545 44.2501 2.4269L45.4922 7.44722H28.0782L35.0063 4.89597C35.3943 4.75315 35.6138 4.25371 35.4968 3.78048C35.3796 3.30713 34.9702 3.03878 34.5824 3.18219L23.0004 7.4471H10.3304C9.9252 7.4471 9.59668 7.84779 9.59668 8.34222C9.59668 8.83666 9.9252 9.23735 10.3304 9.23735H47.7873C48.1918 9.23735 48.5209 9.63887 48.5209 10.1325V18.6465C45.9675 19.0834 43.996 21.766 43.996 24.9998C43.996 28.2335 45.9676 30.916 48.5209 31.3531V39.8679C48.5209 40.3615 48.1918 40.763 47.7873 40.763H41.2483C40.843 40.763 40.5145 41.1637 40.5145 41.6581C40.5145 42.1526 40.843 42.5533 41.2483 42.5533H47.7873C49.0009 42.5533 49.9882 41.3486 49.9882 39.868V30.5202C49.9882 30.0258 49.6598 29.6251 49.2545 29.6251C47.1641 29.6251 45.4633 27.5502 45.4633 24.9998C45.4634 22.4492 47.1641 20.3743 49.2545 20.3743Z" fill="#F8991B"/>
<path d="M38.3133 40.7629H2.20102C1.79644 40.7629 1.46732 40.3614 1.46732 39.8678V10.1326C1.46732 9.63904 1.79644 9.23751 2.20102 9.23751H7.39528C7.80045 9.23751 8.12898 8.83682 8.12898 8.34239C8.12898 7.84796 7.80045 7.44727 7.39528 7.44727H2.20102C0.987361 7.44738 0 8.65196 0 10.1326V39.8679C0 41.3485 0.987361 42.5532 2.20102 42.5532H2.96325L4.33323 48.0907C4.62016 49.2506 5.49603 50.0002 6.4415 50.0002C6.65151 50.0002 26.9878 42.5531 26.9878 42.5531H38.3132C38.7184 42.5531 39.0469 42.1524 39.0469 41.6579C39.0469 41.1635 38.7184 40.7629 38.3133 40.7629ZM6.65239 48.1717C6.26528 48.3143 5.85493 48.0457 5.73806 47.5735L4.49598 42.5532H21.9101L6.65239 48.1717Z" fill="#F8991B"/>
<path d="M30.5078 17.8248C30.5078 18.3192 30.8363 18.7199 31.2416 18.7199C31.6468 18.7199 31.9753 18.3192 31.9753 17.8248V16.0347C31.9753 15.5403 31.6468 15.1396 31.2416 15.1396C30.8363 15.1396 30.5078 15.5403 30.5078 16.0347V17.8248Z" fill="#F8991B"/>
<path d="M30.5078 28.5661C30.5078 29.0606 30.8363 29.4613 31.2416 29.4613C31.6468 29.4613 31.9753 29.0606 31.9753 28.5661V26.776C31.9753 26.2816 31.6468 25.8809 31.2416 25.8809C30.8363 25.8809 30.5078 26.2816 30.5078 26.776V28.5661Z" fill="#F8991B"/>
<path d="M30.5078 39.3073C30.5078 39.8018 30.8363 40.2025 31.2416 40.2025C31.6468 40.2025 31.9753 39.8018 31.9753 39.3073V37.5172C31.9753 37.0228 31.6468 36.6221 31.2416 36.6221C30.8363 36.6221 30.5078 37.0228 30.5078 37.5172V39.3073Z" fill="#F8991B"/>
<path d="M30.5078 33.9362C30.5078 34.4307 30.8363 34.8314 31.2416 34.8314C31.6468 34.8314 31.9753 34.4307 31.9753 33.9362V32.1461C31.9753 31.6517 31.6468 31.251 31.2416 31.251C30.8363 31.251 30.5078 31.6517 30.5078 32.1461V33.9362Z" fill="#F8991B"/>
<path d="M31.2416 13.3489C31.6468 13.3489 31.9753 12.9482 31.9753 12.4538V10.6637C31.9753 10.1692 31.6468 9.76855 31.2416 9.76855C30.8363 9.76855 30.5078 10.1692 30.5078 10.6637V12.4538C30.5079 12.9482 30.8363 13.3489 31.2416 13.3489Z" fill="#F8991B"/>
<path d="M30.5078 23.195C30.5078 23.6895 30.8363 24.0901 31.2416 24.0901C31.6468 24.0901 31.9753 23.6895 31.9753 23.195V21.4049C31.9753 20.9105 31.6468 20.5098 31.2416 20.5098C30.8363 20.5098 30.5078 20.9105 30.5078 21.4049V23.195Z" fill="#F8991B"/>
<path d="M37.2985 31.5952V18.7633C37.2985 18.2689 36.9701 17.8682 36.5647 17.8682C36.1595 17.8682 35.8311 18.2689 35.8311 18.7633V31.5952C35.8311 32.0896 36.1595 32.4903 36.5647 32.4903C36.9701 32.4903 37.2985 32.0895 37.2985 31.5952Z" fill="#F8991B"/>
<path d="M40.82 28.6038V21.7545C40.82 21.2601 40.4916 20.8594 40.0862 20.8594C39.681 20.8594 39.3525 21.2601 39.3525 21.7545V28.6038C39.3525 29.0982 39.681 29.4989 40.0862 29.4989C40.4916 29.4989 40.82 29.0982 40.82 28.6038Z" fill="#F8991B"/>
<path d="M8.12891 20.9042V23.3078C8.12891 24.3644 8.77599 25.238 9.61173 25.3753V33.0937C9.61173 34.5743 10.5991 35.7789 11.8128 35.7789H21.4634C22.6771 35.7789 23.6645 34.5743 23.6645 33.0937V25.3753C24.5003 25.238 25.1472 24.3643 25.1472 23.3078V20.9042C25.1472 19.7527 24.3793 18.8157 23.4353 18.8157H23.2116C23.227 18.3893 23.2277 17.8674 23.185 17.3165C22.9966 14.8795 22.123 13.8696 21.4234 13.4515C19.8101 12.4876 18.486 13.979 17.8362 15.2102H15.4399C14.7902 13.9787 13.4661 12.487 11.8526 13.4515C11.153 13.8696 10.2794 14.8795 10.091 17.3165C10.0484 17.8674 10.049 18.3893 10.0643 18.8157H9.84066C8.89689 18.8157 8.12891 19.7527 8.12891 20.9042ZM9.59623 20.9042C9.59623 20.7396 9.70599 20.6059 9.84082 20.6059H15.8362V23.6062H9.84082C9.70599 23.6062 9.59623 23.4724 9.59623 23.3078V20.9042ZM11.0791 33.0938V25.3964H15.8362V33.9889H11.8128C11.4082 33.9888 11.0791 33.5874 11.0791 33.0938ZM22.1971 33.0938C22.1971 33.5874 21.868 33.9889 21.4634 33.9889H17.3034V25.3964H22.1971V33.0938ZM23.68 20.9042V23.3078C23.68 23.4724 23.5703 23.6062 23.4354 23.6062H17.3034V20.6059H23.4354C23.5703 20.6059 23.68 20.7398 23.68 20.9042ZM20.7781 15.0592C21.6766 15.5962 21.7948 17.5653 21.7444 18.8157H18.9935V16.336C19.2253 15.8569 19.9467 14.5626 20.7781 15.0592ZM17.5263 18.8157H15.75V17.0004H17.5263V18.8157ZM12.498 15.0592C13.0084 14.5339 14.0348 15.6642 14.2825 16.3388V18.8157H11.5317C11.4814 17.5647 11.5998 15.596 12.498 15.0592Z" fill="#F8991B"/>
</g>
<defs>
<clipPath id="clip0_1531_2114">
<rect width="50" height="50" fill="white"/>
</clipPath>
</defs>
</svg>
