<svg width="51" height="50" viewBox="0 0 51 50" fill="none" xmlns="http://www.w3.org/2000/svg">
<g clip-path="url(#clip0_1531_2095)">
<path d="M20.9672 45.4017C22.5503 42.8634 22.794 38.8874 21.5117 36.5212C20.2293 34.155 17.9062 34.2945 16.3232 36.8329C14.74 39.3712 14.4962 43.3472 15.7786 45.7134C17.0611 48.0796 19.384 47.94 20.9672 45.4017Z" fill="#F8991B"/>
<path d="M41.9144 45.4037C43.4976 42.8653 43.7413 38.8894 42.4589 36.5232C41.1765 34.157 38.8536 34.2966 37.2704 36.8349C35.6873 39.3732 35.4435 43.3491 36.7259 45.7153C38.0083 48.0815 40.3313 47.942 41.9144 45.4037Z" fill="#F8991B"/>
<path d="M4.35631 14.3345C4.35631 12.7631 3.61569 11.4893 2.70208 11.4893C1.78847 11.4893 1.04785 12.7631 1.04785 14.3345C1.04785 15.9059 1.78847 17.1798 2.70208 17.1798C3.61569 17.1798 4.35631 15.9059 4.35631 14.3345Z" fill="#F8991B"/>
<path d="M34.0903 40.5221C34.6784 35.523 37.424 31.5505 40.3749 31.5505C43.2165 31.5505 45.2645 35.2348 45.2083 39.9722C48.2813 40.1105 49.1368 33.1502 49.1368 33.1502C49.3955 31.2039 49.782 27.4096 50.1056 23.6854C50.2116 22.5355 50.1302 21.3576 49.8702 20.2827C49.0669 17.0573 48.0961 13.9632 46.9696 11.0378C45.9039 8.30337 44.1165 6.68369 42.0762 6.62537C40.8594 6.59204 39.6648 6.57205 38.7628 6.57205L38.7551 6.55871C38.6388 3.2127 37.2205 0.649872 35.2297 0.343266C33.9344 0.144971 28.8035 0 26.3409 0C25.3624 0 23.9586 0.0233283 22.5383 0.0633205V0.0533228H22.5267H5.45058C5.23324 0.0531038 5.01802 0.12657 4.8172 0.269523C4.61638 0.412476 4.43392 0.62211 4.28024 0.88644C4.12656 1.15077 4.00467 1.46461 3.92156 1.81001C3.83845 2.15542 3.79574 2.52561 3.79587 2.89943V2.91276C3.79587 3.66406 3.96938 4.38459 4.27825 4.91584C4.58712 5.44709 5.00603 5.74554 5.44283 5.74554H8.885C9.29948 5.7981 9.68709 6.11825 9.97006 6.64177C10.253 7.16529 10.4105 7.85348 10.4109 8.56832V8.58332C10.4115 8.9575 10.3692 9.32822 10.2865 9.67427C10.2037 10.0203 10.0821 10.3349 9.9286 10.6C9.77506 10.8652 9.59267 11.0756 9.3918 11.2194C9.19099 11.3631 8.97564 11.4373 8.75808 11.4378H6.99291C6.5543 11.4378 6.13367 11.7374 5.82354 12.2709C5.5134 12.8043 5.33917 13.5278 5.33917 14.2822C5.33904 14.6559 5.38172 15.0259 5.46477 15.3712C5.54783 15.7165 5.66962 16.0303 5.8232 16.2946C5.97677 16.5589 6.15912 16.7686 6.35983 16.9116C6.56052 17.0547 6.77564 17.1283 6.99291 17.1283H8.75808C9.19692 17.1283 9.61779 17.4282 9.92814 17.9619C10.2384 18.4957 10.4128 19.2196 10.4128 19.9744C10.4128 20.7293 10.2384 21.4532 9.92814 21.9869C9.61779 22.5207 9.19692 22.8205 8.75808 22.8205H2.15472C1.71602 22.8205 1.29529 23.1202 0.984997 23.6535C0.674706 24.1869 0.500257 24.9104 0.5 25.665C0.5 26.4198 0.674335 27.1437 0.984655 27.6775C1.29498 28.2112 1.71585 28.5111 2.15472 28.5111H8.75808C9.19692 28.5111 9.61779 28.8109 9.92814 29.3447C10.2384 29.8784 10.4128 30.6024 10.4128 31.3572C10.4123 32.1114 10.2377 32.8345 9.92744 33.3675C9.61721 33.9006 9.19657 34.2 8.75808 34.2H6.71581C6.27724 34.2 5.8566 34.4996 5.54646 35.0331C5.23633 35.5665 5.06209 36.29 5.06209 37.0444C5.06209 37.799 5.23629 38.5226 5.5464 39.0563C5.85651 39.59 6.27715 39.8901 6.71581 39.8905L13.232 39.8822L13.7735 37.561C14.8828 34.0417 17.0898 31.5488 19.4265 31.5488C22.3785 31.5488 24.4749 35.5247 24.2444 40.5271H34.0894M17.6778 12.7625H15.4573C15.4552 12.7628 15.4533 12.7642 15.4517 12.7667C15.4501 12.7691 15.449 12.7723 15.4486 12.7758L15.2442 15.2753C15.2439 15.2773 15.2439 15.2794 15.2441 15.2815C15.2444 15.2835 15.2449 15.2854 15.2456 15.287C15.2464 15.2886 15.2474 15.2899 15.2485 15.2908C15.2495 15.2917 15.2508 15.2921 15.252 15.292H16.9047C16.9859 15.288 17.0665 15.3153 17.1407 15.3717C17.2149 15.4281 17.2809 15.5123 17.3338 15.6182C17.3867 15.724 17.4252 15.8489 17.4466 15.9835C17.4678 16.1182 17.4714 16.2594 17.457 16.3968C17.4286 16.6987 17.34 16.9742 17.2063 17.1759C17.0726 17.3775 16.9023 17.4927 16.7245 17.5016H15.0698C15.0678 17.5015 15.0658 17.5026 15.0642 17.5047C15.0627 17.5069 15.0616 17.5099 15.0611 17.5132L14.7647 21.1442C14.7363 21.4461 14.6477 21.7216 14.514 21.9233C14.3803 22.1249 14.2099 22.2401 14.0322 22.249C13.9512 22.253 13.8705 22.2258 13.7963 22.1694C13.7222 22.1129 13.6562 22.0287 13.6034 21.9228C13.5505 21.8169 13.5122 21.692 13.4909 21.5573C13.4698 21.4226 13.4664 21.2815 13.481 21.1442L14.2502 11.726C14.2807 11.4072 14.3747 11.1164 14.516 10.9037C14.6574 10.6909 14.8374 10.5692 15.0252 10.5596H17.8571C17.9381 10.5556 18.0188 10.5828 18.093 10.6392C18.1672 10.6957 18.2331 10.7799 18.2859 10.8858C18.3388 10.9917 18.3772 11.1166 18.3984 11.2513C18.4195 11.386 18.4229 11.5271 18.4083 11.6644C18.3796 11.9648 18.291 12.2387 18.1577 12.4391C18.0244 12.6394 17.8548 12.7538 17.6778 12.7625ZM23.6127 11.3095C23.8434 11.6615 24.0057 12.1268 24.0777 12.6425C24.1583 13.2268 24.1715 13.8325 24.1165 14.4255C24.0491 15.3482 23.8296 16.2184 23.4839 16.9333C23.2727 17.3627 23.0045 17.6982 22.702 17.9115C22.7007 17.914 22.6999 17.9172 22.6999 17.9207C22.6999 17.9241 22.7007 17.9273 22.702 17.9298L23.2523 20.661C23.4006 21.3941 23.0198 22.249 22.546 22.249H22.5151C22.4001 22.2548 22.2871 22.1975 22.1923 22.0855C22.0976 21.9734 22.026 21.8124 21.988 21.6258L21.3225 18.2931C21.3215 18.2906 21.3202 18.2885 21.3187 18.2871C21.3172 18.2856 21.3155 18.2848 21.3138 18.2848H19.8993C19.8973 18.2849 19.8955 18.2862 19.8939 18.2882C19.8923 18.2903 19.8912 18.2932 19.8906 18.2964L19.6581 21.1425C19.6298 21.4444 19.5411 21.7199 19.4074 21.9216C19.2738 22.1232 19.1034 22.2384 18.9256 22.2473C18.8445 22.2513 18.764 22.2241 18.6898 22.1677C18.6156 22.1113 18.5497 22.027 18.4968 21.9211C18.444 21.8152 18.4055 21.6904 18.3844 21.5556C18.3632 21.4209 18.3598 21.2798 18.3744 21.1425L19.1437 11.7244C19.1741 11.4055 19.2681 11.1148 19.4095 10.902C19.5509 10.6892 19.7309 10.5676 19.9187 10.5579H22.1082C22.1082 10.5579 23.0692 10.5063 23.6127 11.3095ZM29.6387 11.5861C29.6123 11.8681 29.5296 12.1254 29.4047 12.3138C29.2799 12.5021 29.1207 12.6095 28.9547 12.6175H26.4077C26.4058 12.6177 26.4038 12.6189 26.4023 12.621C26.4008 12.6231 26.3996 12.626 26.399 12.6292L26.1965 15.102C26.1962 15.104 26.1962 15.1061 26.1965 15.1082C26.1967 15.1102 26.1972 15.1121 26.198 15.1137C26.1987 15.1153 26.1996 15.1166 26.2008 15.1175C26.2019 15.1184 26.2031 15.1188 26.2042 15.1187H28.1826C28.2583 15.1149 28.3336 15.1402 28.403 15.1928C28.4723 15.2454 28.534 15.3241 28.5833 15.4229C28.6327 15.5218 28.6687 15.6384 28.6885 15.7642C28.7083 15.8901 28.7116 16.0219 28.698 16.1502C28.6716 16.4322 28.5889 16.6896 28.464 16.8779C28.3391 17.0662 28.18 17.1736 28.014 17.1816H26.0347C26.0327 17.1818 26.0309 17.183 26.0293 17.1851C26.0277 17.1872 26.0266 17.1901 26.026 17.1933L25.7828 20.1694C25.7828 20.1735 25.7837 20.1775 25.7853 20.1806C25.7869 20.1837 25.7892 20.1856 25.7916 20.186H28.3366C28.4124 20.1822 28.4877 20.2075 28.557 20.2601C28.6263 20.3128 28.688 20.3914 28.7374 20.4903C28.7868 20.5891 28.8227 20.7058 28.8426 20.8316C28.8624 20.9574 28.8656 21.0893 28.852 21.2175C28.8257 21.4995 28.7429 21.7569 28.6181 21.9452C28.4932 22.1335 28.334 22.2409 28.168 22.249H25.0097C24.9245 22.251 24.8401 22.2208 24.7624 22.1605C24.6847 22.1002 24.6157 22.0112 24.5602 21.8999C24.5048 21.7886 24.4642 21.6577 24.4415 21.5165C24.4187 21.3752 24.4142 21.2271 24.4284 21.0825L25.1928 11.731C25.2233 11.4122 25.3173 11.1214 25.4587 10.9087C25.6001 10.6959 25.7801 10.5742 25.9679 10.5646H29.1252C29.2002 10.5615 29.2747 10.5871 29.3433 10.6393C29.4119 10.6916 29.473 10.7694 29.522 10.867C29.5711 10.9646 29.607 11.0797 29.6272 11.2041C29.6473 11.3284 29.6513 11.4588 29.6387 11.5861ZM34.9293 11.5861C34.903 11.8681 34.8202 12.1254 34.6953 12.3138C34.5705 12.5021 34.4113 12.6095 34.2453 12.6175H31.6984C31.6964 12.6177 31.6945 12.6189 31.6929 12.621C31.6913 12.6231 31.6902 12.626 31.6896 12.6292L31.4881 15.102C31.4878 15.104 31.4878 15.1061 31.488 15.1082C31.4883 15.1102 31.4888 15.1121 31.4896 15.1137C31.4903 15.1153 31.4913 15.1166 31.4924 15.1175C31.4935 15.1184 31.4947 15.1188 31.4959 15.1187H33.4742C33.5499 15.1149 33.6252 15.1402 33.6946 15.1928C33.7639 15.2454 33.8255 15.3241 33.8749 15.4229C33.9244 15.5218 33.9603 15.6384 33.9801 15.7642C33.9999 15.8901 34.0031 16.0219 33.9895 16.1502C33.9633 16.4322 33.8805 16.6896 33.7556 16.8779C33.6308 17.0662 33.4716 17.1736 33.3056 17.1816H31.3253C31.3234 17.1818 31.3215 17.183 31.3199 17.1851C31.3184 17.1872 31.3172 17.1901 31.3166 17.1933L31.0735 20.1694C31.0734 20.1735 31.0744 20.1775 31.0759 20.1806C31.0776 20.1837 31.0798 20.1856 31.0822 20.186H33.6272C33.703 20.1822 33.7783 20.2075 33.8476 20.2601C33.917 20.3128 33.9786 20.3914 34.028 20.4903C34.0774 20.5891 34.1133 20.7058 34.1332 20.8316C34.153 20.9574 34.1562 21.0893 34.1426 21.2175C34.1163 21.4995 34.0335 21.7569 33.9087 21.9452C33.7838 22.1335 33.6246 22.2409 33.4587 22.249H30.3003C30.2151 22.251 30.1307 22.2208 30.053 22.1605C29.9753 22.1002 29.9063 22.0112 29.8509 21.8999C29.7954 21.7886 29.7549 21.6577 29.7321 21.5165C29.7093 21.3752 29.7049 21.2271 29.7191 21.0825L30.4835 11.731C30.514 11.4122 30.6079 11.1214 30.7493 10.9087C30.8907 10.6959 31.0707 10.5742 31.2585 10.5646H34.4158C34.4909 10.5615 34.5653 10.5871 34.634 10.6393C34.7026 10.6916 34.7635 10.7694 34.8127 10.867C34.8617 10.9646 34.8976 11.0797 34.9178 11.2041C34.938 11.3284 34.9419 11.4588 34.9293 11.5861ZM38.6108 10.5179C39.4759 10.5179 40.5958 10.5379 41.7196 10.5696C43.0818 10.6079 44.2734 11.6844 44.9884 13.5207C45.752 15.501 46.4385 17.5662 47.0432 19.7028C47.3629 20.8226 46.7748 22.2806 46.0046 22.2806H37.7456L38.6108 10.5179Z" fill="#F8991B"/>
<path d="M21.5903 16.2238H20.0596L20.3502 12.6179H21.88C21.88 12.6179 23.0028 12.4929 22.8188 14.4209C22.8236 14.4209 22.6947 16.2238 21.5903 16.2238Z" fill="#F8991B"/>
</g>
<defs>
<clipPath id="clip0_1531_2095">
<rect width="50" height="50" fill="white" transform="translate(0.5)"/>
</clipPath>
</defs>
</svg>
