<svg width="51" height="50" viewBox="0 0 51 50" fill="none" xmlns="http://www.w3.org/2000/svg">
<g clip-path="url(#clip0_1531_2101)">
<path d="M43.0977 0H3.55168C1.86894 0 0.5 2.10832 0.5 4.69974V45.3004C0.5 47.8918 1.86894 50 3.55168 50H4.32728C4.72794 50 5.05277 49.4999 5.05277 48.8828C5.05277 48.2657 4.72794 47.7654 4.32728 47.7654H3.55168C2.66901 47.7654 1.95097 46.6596 1.95097 45.3003V4.69974C1.95097 3.34042 2.66901 2.23465 3.55168 2.23465H43.0977C43.4984 2.23465 43.8232 1.73442 43.8232 1.1174C43.8232 0.50008 43.4984 0 43.0977 0Z" fill="#F8991B"/>
<path d="M46.9747 0H46.1991C45.7984 0 45.4736 0.50008 45.4736 1.11725C45.4736 1.73427 45.7984 2.2345 46.1991 2.2345H46.9747C47.8573 2.2345 48.5754 3.34027 48.5754 4.69959V45.3003C48.5754 46.6596 47.8573 47.7654 46.9747 47.7654H7.42858C7.02793 47.7654 6.70312 48.2656 6.70312 48.8826C6.70312 49.4998 7.02793 49.9999 7.42858 49.9999H46.9747C48.6574 49.9999 50.0264 47.8917 50.0264 45.3003V4.69974C50.0264 2.10832 48.6574 0 46.9747 0Z" fill="#F8991B"/>
<path d="M23.7129 29.8535H16.7343C16.3336 29.8535 16.0088 30.3537 16.0088 30.9708C16.0088 31.5878 16.3336 32.088 16.7343 32.088H23.7129C24.1137 32.088 24.4385 31.5878 24.4385 30.9708C24.4385 30.3536 24.1137 29.8535 23.7129 29.8535Z" fill="#F8991B"/>
<path d="M13.632 29.8535H6.65322C6.25256 29.8535 5.92773 30.3537 5.92773 30.9708C5.92773 31.5878 6.25256 32.088 6.65322 32.088H13.632C14.0327 32.088 14.3575 31.5878 14.3575 30.9708C14.3575 30.3536 14.0327 29.8535 13.632 29.8535Z" fill="#F8991B"/>
<path d="M23.7123 37.0186H6.65322C6.25256 37.0186 5.92773 37.5186 5.92773 38.1358C5.92773 38.7528 6.25256 39.2531 6.65322 39.2531H23.7123C24.113 39.2531 24.4378 38.7527 24.4378 38.1358C24.4378 37.5186 24.113 37.0186 23.7123 37.0186Z" fill="#F8991B"/>
<path d="M43.8732 29.8535H36.8944C36.4938 29.8535 36.1689 30.3536 36.1689 30.9708C36.1689 31.5878 36.4938 32.088 36.8944 32.088H43.8732C44.2739 32.088 44.5987 31.5878 44.5987 30.9708C44.5987 30.3536 44.2739 29.8535 43.8732 29.8535Z" fill="#F8991B"/>
<path d="M33.793 29.8535H26.8143C26.4137 29.8535 26.0889 30.3537 26.0889 30.9708C26.0889 31.5878 26.4137 32.088 26.8143 32.088H33.793C34.1937 32.088 34.5185 31.5878 34.5185 30.9708C34.5185 30.3536 34.1937 29.8535 33.793 29.8535Z" fill="#F8991B"/>
<path d="M33.793 37.0186H26.8143C26.4137 37.0186 26.0889 37.5186 26.0889 38.1358C26.0889 38.7528 26.4137 39.2531 26.8143 39.2531H33.793C34.1937 39.2531 34.5185 38.7528 34.5185 38.1358C34.5185 37.5186 34.1937 37.0186 33.793 37.0186Z" fill="#F8991B"/>
<path d="M14.3574 17.8356C14.3574 15.9026 13.3362 14.3301 12.081 14.3301H8.20403C6.94883 14.3301 5.92773 15.9027 5.92773 17.8356V21.4179C5.92773 23.3509 6.94893 24.9234 8.20403 24.9234H12.0811C13.3363 24.9234 14.3575 23.3509 14.3575 21.4179L14.3574 17.8356ZM9.02935 22.689H8.20403C7.7489 22.6889 7.3787 22.1187 7.3787 21.4179V17.8356C7.3787 17.1347 7.74896 16.5646 8.20403 16.5646H9.02935V22.689ZM12.9064 21.4179C12.9064 22.1188 12.5362 22.6889 12.081 22.6889H10.4803V16.5644H12.081C12.5362 16.5644 12.9064 17.1345 12.9064 17.8354V21.4179Z" fill="#F8991B"/>
<path d="M37.7964 13.4582C37.5575 12.9628 37.103 12.8592 36.7814 13.227C36.4597 13.5948 36.3925 14.2947 36.6313 14.79C37.0301 15.6175 37.0503 16.7514 36.6815 17.6116C36.4608 18.1264 36.5528 18.8195 36.8873 19.1595C37.0103 19.2848 37.1491 19.3445 37.2863 19.3445C37.5218 19.3445 37.7529 19.1681 37.8924 18.8428C38.5962 17.2015 38.5576 15.0376 37.7964 13.4582Z" fill="#F8991B"/>
<path d="M40.3284 10.6986C40.093 10.1991 39.6395 10.0879 39.3151 10.4504C38.9908 10.8128 38.9187 11.5115 39.1539 12.0108C40.3345 14.5161 40.3485 17.8981 39.1889 20.4267C38.9578 20.9308 39.0358 21.6278 39.3631 21.9838C39.4902 22.1222 39.6363 22.1886 39.781 22.1886C40.0087 22.1886 40.2328 22.024 40.3741 21.7158C41.8921 18.4059 41.8738 13.9785 40.3284 10.6986Z" fill="#F8991B"/>
<path d="M42.875 7.96974C42.6416 7.46802 42.1885 7.35272 41.8627 7.71188C41.537 8.07119 41.462 8.7691 41.6953 9.27081C43.6215 13.4134 43.6361 18.9959 41.7316 23.1625C41.5011 23.6671 41.5797 24.3639 41.9074 24.7192C42.0342 24.8569 42.18 24.9229 42.3244 24.9229C42.5524 24.9229 42.777 24.7577 42.9182 24.4486C45.1774 19.506 45.16 12.8837 42.875 7.96974Z" fill="#F8991B"/>
</g>
<defs>
<clipPath id="clip0_1531_2101">
<rect width="50" height="50" fill="white" transform="translate(0.5)"/>
</clipPath>
</defs>
</svg>
