<svg width="20" height="21" viewBox="0 0 20 21" fill="none" xmlns="http://www.w3.org/2000/svg">
<path d="M12.74 0.288086C11.4679 0.288068 10.4424 0.288049 9.63602 0.396476C8.79872 0.509052 8.09369 0.749877 7.53378 1.3098C7.04546 1.7981 6.79873 2.39817 6.66922 3.10327C6.54337 3.78843 6.51929 4.62693 6.51368 5.63299C6.51154 6.01829 6.82215 6.33238 7.20746 6.33453C7.59277 6.33668 7.90686 6.02606 7.909 5.64076C7.91466 4.62356 7.94108 3.90256 8.04159 3.35536C8.13844 2.8281 8.29398 2.52291 8.5204 2.29645C8.77788 2.039 9.13937 1.87114 9.82187 1.77937C10.5246 1.6849 11.4558 1.68342 12.7911 1.68342H13.7213C15.0565 1.68342 15.9878 1.6849 16.6905 1.77937C17.3731 1.87114 17.7344 2.039 17.9919 2.29645C18.2494 2.5539 18.4172 2.91536 18.509 3.59793C18.6035 4.30058 18.605 5.23184 18.605 6.5671V14.0089C18.605 15.3441 18.6035 16.2754 18.509 16.9781C18.4172 17.6607 18.2494 18.0221 17.9919 18.2795C17.7344 18.537 17.3731 18.7048 16.6905 18.7967C15.9878 18.8911 15.0565 18.8926 13.7213 18.8926H12.7911C11.4558 18.8926 10.5246 18.8911 9.82187 18.7967C9.13937 18.7048 8.77788 18.537 8.5204 18.2795C8.29398 18.053 8.13844 17.7479 8.04159 17.2207C7.94108 16.6734 7.91466 15.9524 7.909 14.9352C7.90686 14.5499 7.59277 14.2393 7.20746 14.2414C6.82215 14.2436 6.51154 14.5577 6.51368 14.943C6.51929 15.9491 6.54337 16.7876 6.66922 17.4727C6.79873 18.1778 7.04546 18.7779 7.53378 19.2662C8.09369 19.8261 8.79872 20.067 9.63602 20.1795C10.4424 20.2879 11.4679 20.2879 12.74 20.2879H13.7723C15.0445 20.2879 16.0699 20.2879 16.8764 20.1795C17.7137 20.067 18.4186 19.8261 18.9786 19.2662C19.5385 18.7062 19.7794 18.0013 19.8919 17.164C20.0004 16.3575 20.0003 15.3321 20.0003 14.06V6.51605C20.0003 5.24389 20.0004 4.21849 19.8919 3.41201C19.7794 2.57471 19.5385 1.86972 18.9786 1.3098C18.4186 0.749877 17.7137 0.509052 16.8764 0.396476C16.0699 0.288049 15.0445 0.288068 13.7723 0.288086H12.74Z" fill="#666666"/>
<path d="M12.7906 9.59049C13.1759 9.59049 13.4882 9.90286 13.4882 10.2882C13.4882 10.6735 13.1759 10.9858 12.7906 10.9858H2.58364L4.40748 12.5492C4.70004 12.7999 4.73392 13.2403 4.48316 13.5329C4.23241 13.8254 3.79196 13.8593 3.49942 13.6085L0.243635 10.8178C0.0889945 10.6854 0 10.4918 0 10.2882C0 10.0845 0.0889945 9.89095 0.243635 9.75849L3.49942 6.96778C3.79196 6.71702 4.23241 6.7509 4.48316 7.04345C4.73392 7.336 4.70004 7.77644 4.40748 8.02719L2.58364 9.59049H12.7906Z" fill="#666666"/>
</svg>
