<svg width="15" height="16" viewBox="0 0 15 16" fill="none" xmlns="http://www.w3.org/2000/svg">
<path fill-rule="evenodd" clip-rule="evenodd" d="M7.03505 13.4517V14.2491C7.03505 14.8885 6.71636 15.4405 6.16258 15.7602C5.89614 15.914 5.59877 15.9998 5.29046 16C4.98187 16.0002 4.68458 15.9142 4.41796 15.7602L0.872467 13.7132C0.318624 13.3935 0 12.8416 0 12.2021V1.74493C0 0.782717 0.782748 0 1.74493 0H9.55339C10.5156 0 11.2984 0.782655 11.2984 1.74493V3.94927C11.2984 4.26549 11.0417 4.52224 10.7255 4.52224C10.4092 4.52224 10.1526 4.26552 10.1526 3.94927V1.74493C10.1526 1.41453 9.88379 1.14569 9.55339 1.14569H2.71115L6.16258 3.13871C6.71617 3.4584 7.03505 4.01027 7.03505 4.64955V12.3059H9.55339C9.88376 12.3059 10.1526 12.0372 10.1526 11.7068V9.77439C10.1526 9.45795 10.409 9.20142 10.7255 9.20142C11.0418 9.20142 11.2984 9.45801 11.2984 9.77439V11.7068C11.2984 12.669 10.5156 13.4517 9.55339 13.4517H7.03505ZM12.3439 7.29867L11.7129 7.92964C11.4892 8.15336 11.4893 8.51605 11.7129 8.7398C11.8206 8.84755 11.9657 8.90742 12.118 8.90742C12.2704 8.90742 12.4154 8.8477 12.5233 8.7398L14.132 7.1308C14.3556 6.90711 14.3557 6.54461 14.132 6.32093L12.5233 4.71218C12.2995 4.48843 11.9368 4.48852 11.7129 4.71215C11.4893 4.93565 11.4894 5.29849 11.7129 5.52205L12.3439 6.15286H8.11702C7.80049 6.15286 7.54417 6.40936 7.54417 6.72586C7.54417 7.04236 7.80052 7.29871 8.11702 7.29871H12.3439V7.29867Z" fill="#282828"/>
</svg>
