<svg width="26" height="16" viewBox="0 0 26 16" fill="none" xmlns="http://www.w3.org/2000/svg">
<path d="M22.5475 0H2.46642C1.10487 0.00151907 0.00151907 1.10487 0 2.46642V13.5336C0.00151907 14.8951 1.10487 15.9985 2.46642 16H22.5475C23.9091 15.9985 25.0126 14.8952 25.0141 13.5336V2.46642C25.0126 1.10487 23.9091 0.00151907 22.5475 0ZM16.8528 8L23.965 2.00963C24.0128 2.15719 24.037 2.31132 24.037 2.46637V13.5335C24.037 13.6886 24.0128 13.8427 23.9651 13.9903L16.8528 8ZM22.5475 0.977119C22.8423 0.976815 23.1305 1.06447 23.3752 1.22888L12.507 10.3829L1.63888 1.22888C1.88355 1.06447 2.17172 0.976815 2.46647 0.977169L22.5475 0.977119ZM1.04912 13.9905C1.00137 13.8429 0.977119 13.6887 0.97717 13.5336V2.46642C0.977119 2.31137 1.00142 2.15719 1.04912 2.00963L8.16122 8L1.04912 13.9905ZM2.46642 15.0229C2.17172 15.0233 1.88355 14.9357 1.63888 14.7714L8.9196 8.63902L12.1923 11.3954C12.3741 11.5486 12.6399 11.5486 12.8217 11.3954L16.0944 8.63897L23.3751 14.7711C23.1304 14.9355 22.8423 15.0232 22.5475 15.0229H2.46642V15.0229Z" fill="#666666"/>
</svg>
