<svg width="15" height="16" viewBox="0 0 15 16" fill="none" xmlns="http://www.w3.org/2000/svg">
<path d="M10.7253 0.655247C11.1428 0.375871 11.6603 0.441809 11.9193 0.667122C12.0315 0.764935 12.1412 0.931498 12.0256 1.17025C11.7828 1.674 11.2656 1.99932 10.7087 1.99932H9.11434C9.18934 2.19307 9.2309 2.40338 9.2309 2.62338C9.2309 2.81932 9.19778 3.00776 9.13778 3.1837H12.8875C13.1375 2.70869 13.1556 2.16338 12.9328 1.66369L12.4759 0.63806C12.4225 0.519309 12.3406 0.408684 12.2294 0.311808C11.8412 -0.0250682 11.0912 -0.156319 10.4631 0.263683L8.74121 1.4165C8.85059 1.52963 8.94496 1.65713 9.02059 1.79619L10.7253 0.655247Z" fill="#282828"/>
<path d="M5.85011 3.18338C5.79011 3.00744 5.75698 2.81901 5.75698 2.62307C5.75698 2.40307 5.79855 2.19275 5.87355 1.999H4.2801C3.72323 1.999 3.20604 1.67338 2.96197 1.16962C2.84635 0.931186 2.95604 0.764623 3.06854 0.667122C3.20791 0.545872 3.42198 0.470871 3.6551 0.470871C3.85541 0.470871 4.06948 0.526184 4.26229 0.655247L5.96667 1.79619C6.0423 1.65681 6.13699 1.52931 6.24605 1.4165L4.52417 0.263683C3.89604 -0.156319 3.14604 -0.0250682 2.75885 0.311808C2.63478 0.419621 2.54666 0.544309 2.49478 0.678685L2.05509 1.66338C1.83197 2.16307 1.85009 2.70838 2.10041 3.18338H5.85011Z" fill="#282828"/>
<path d="M6.35813 3.18338H8.62845C8.7122 3.01432 8.7597 2.82401 8.7597 2.62307C8.7597 1.92525 8.19095 1.3565 7.49313 1.3565C6.79531 1.3565 6.22656 1.92525 6.22656 2.62307C6.22688 2.82432 6.27437 3.01432 6.35813 3.18338Z" fill="#282828"/>
<path d="M0 4.64526V6.19371C0 6.65902 0.322501 7.05027 0.755316 7.15621H6.62065V3.65401H0.990942C0.444689 3.65401 0 4.0987 0 4.64526Z" fill="#282828"/>
<path d="M0.755859 14.6847C0.755859 15.41 1.34586 16 2.07118 16H6.6212V7.62653H0.755859V14.6847Z" fill="#282828"/>
<path d="M13.9963 3.65401H8.36719V7.1559H14.2316C14.6647 7.04996 14.9869 6.65871 14.9869 6.19339V4.64495C14.9872 4.0987 14.5425 3.65401 13.9963 3.65401Z" fill="#282828"/>
<path d="M8.36719 16H12.9163C13.6416 16 14.2316 15.41 14.2316 14.6847V7.62653H8.36719V16Z" fill="#282828"/>
</svg>
