<svg width="17" height="16" viewBox="0 0 17 16" fill="none" xmlns="http://www.w3.org/2000/svg">
<path fill-rule="evenodd" clip-rule="evenodd" d="M8.44456 2.50581C9.16546 1.02313 10.6864 0 12.4446 0C14.898 0 16.8891 1.99114 16.8891 4.44451C16.8891 7.03832 15.57 9.41702 13.9691 11.329C11.617 14.1389 8.67656 15.9353 8.67656 15.9353C8.53434 16.0216 8.35478 16.0216 8.21256 15.9353C8.21256 15.9353 5.27207 14.1389 2.92004 11.329C1.31913 9.41702 0 7.03832 0 4.44451C0 1.99114 1.99114 0 4.44451 0C6.20275 0 7.72366 1.02313 8.44456 2.50581ZM12.4446 3.11115C13.1806 3.11115 13.778 3.7085 13.778 4.44451C13.778 4.68984 13.9771 4.88896 14.2224 4.88896C14.4678 4.88896 14.6669 4.68984 14.6669 4.44451C14.6669 3.21782 13.6713 2.22225 12.4446 2.22225C12.1993 2.22225 12.0002 2.42137 12.0002 2.6667C12.0002 2.91204 12.1993 3.11115 12.4446 3.11115Z" fill="#282828"/>
</svg>
