<svg width="13" height="16" viewBox="0 0 13 16" fill="none" xmlns="http://www.w3.org/2000/svg">
<path d="M12.6784 13.1941L11.964 4.19072C11.9196 3.61062 11.4288 3.1564 10.8472 3.1564H9.4358V5.24756C9.4358 5.50653 9.22618 5.71615 8.96721 5.71615C8.70855 5.71615 8.49861 5.50653 8.49861 5.24756V3.1564H4.18764V5.24756C4.18764 5.50653 3.97771 5.71615 3.71905 5.71615C3.46008 5.71615 3.25046 5.50653 3.25046 5.24756V3.1564H1.83908C1.25743 3.1564 0.766645 3.61062 0.722301 4.18947L0.00755085 13.1954C-0.0477304 13.9167 0.202488 14.6346 0.693863 15.165C1.18527 15.6954 1.88189 16 2.60508 16H10.0812C10.8044 16 11.501 15.6954 11.9924 15.165C12.4838 14.6345 12.734 13.9167 12.6784 13.1941ZM8.45427 8.60915L6.03074 11.0327C5.93921 11.1242 5.81924 11.1701 5.6993 11.1701C5.57933 11.1701 5.45939 11.1242 5.36786 11.0327L4.23202 9.89684C4.04896 9.71378 4.04896 9.41731 4.23202 9.23425C4.41508 9.05118 4.71186 9.05118 4.89461 9.23425L5.69933 10.0387L7.79171 7.94628C7.97446 7.76353 8.27124 7.76353 8.4543 7.94628C8.63733 8.12934 8.63733 8.42609 8.45427 8.60915Z" fill="#282828"/>
<path d="M6.34266 0C4.63731 0 3.25 1.38762 3.25 3.09297V3.15637H4.18719V3.09297C4.18719 1.90431 5.15403 0.937156 6.34269 0.937156C7.53134 0.937156 8.49819 1.90431 8.49819 3.09297V3.15637H9.43534V3.09297C9.43531 1.38762 8.048 0 6.34266 0Z" fill="#282828"/>
</svg>
