<svg width="20" height="21" viewBox="0 0 20 21" fill="none" xmlns="http://www.w3.org/2000/svg">
<path d="M6.37995 16.1875C5.22678 16.1875 4.29199 17.1223 4.29199 18.2755C4.29199 19.4286 5.22682 20.3634 6.37995 20.3634C7.53313 20.3634 8.46791 19.4286 8.46791 18.2755C8.46796 17.1223 7.53313 16.1875 6.37995 16.1875ZM6.37995 19.4355C5.73931 19.4355 5.21998 18.9161 5.21998 18.2755C5.21998 17.6349 5.73931 17.1155 6.37995 17.1155C7.02059 17.1155 7.53992 17.6349 7.53992 18.2755C7.53996 18.9161 7.02059 19.4355 6.37995 19.4355Z" fill="#666666"/>
<path d="M15.1954 16.1875C14.0422 16.1875 13.1074 17.1223 13.1074 18.2755C13.1074 19.4286 14.0423 20.3634 15.1954 20.3634C16.3485 20.3634 17.2833 19.4286 17.2833 18.2755C17.2833 17.1223 16.3486 16.1875 15.1954 16.1875ZM15.1954 19.4355C14.5547 19.4355 14.0354 18.9161 14.0354 18.2755C14.0354 17.6349 14.5547 17.1155 15.1954 17.1155C15.836 17.1155 16.3553 17.6349 16.3553 18.2755C16.3554 18.9161 15.836 19.4355 15.1954 19.4355Z" fill="#666666"/>
<path d="M19.9054 4.00724C19.8087 3.90169 19.6766 3.83561 19.5342 3.82163L4.43116 3.61283L4.01357 2.33683C3.71938 1.48384 2.92061 0.907985 2.01838 0.898438H0.463996C0.20773 0.898438 0 1.10617 0 1.36243C0 1.6187 0.20773 1.82643 0.463996 1.82643H2.01838C2.52287 1.83758 2.9671 2.16152 3.13198 2.63843L6.07835 11.5239L5.84638 12.0575C5.58762 12.7248 5.66533 13.4758 6.05517 14.0759C6.44128 14.6653 7.09085 15.0291 7.79517 15.0503H16.8199C17.0762 15.0503 17.2839 14.8426 17.2839 14.5863C17.2839 14.33 17.0762 14.1223 16.8199 14.1223H7.79512C7.39738 14.1124 7.03125 13.9031 6.82073 13.5655C6.61255 13.232 6.56979 12.8212 6.70474 12.4519L6.89035 12.0343L16.6574 11.0135C17.7303 10.8953 18.6128 10.115 18.8614 9.0647L19.975 4.40156C20.0252 4.26728 19.9986 4.11626 19.9054 4.00724ZM17.9566 8.85595C17.806 9.53207 17.232 10.0308 16.5415 10.0855L6.89035 11.0831L4.73277 4.54082L18.9542 4.74962L17.9566 8.85595Z" fill="#666666"/>
</svg>
