<svg width="16" height="16" viewBox="0 0 16 16" fill="none" xmlns="http://www.w3.org/2000/svg">
<path d="M12.6474 9.9115C12.3199 9.57043 11.9248 9.38808 11.5061 9.38808C11.0907 9.38808 10.6922 9.56705 10.3511 9.90812L9.28405 10.9718C9.19625 10.9246 9.10845 10.8807 9.02402 10.8368C8.90246 10.776 8.78764 10.7186 8.68971 10.6578C7.69014 10.0229 6.78176 9.19559 5.91051 8.12511C5.4884 7.59156 5.20474 7.14243 4.99875 6.68655C5.27565 6.43328 5.5323 6.16988 5.78219 5.91661C5.87674 5.82206 5.9713 5.72413 6.06585 5.62957C6.775 4.92042 6.775 4.0019 6.06585 3.29275L5.14395 2.37086C5.03927 2.26617 4.93121 2.15811 4.8299 2.05005C4.62729 1.84068 4.41454 1.62456 4.19504 1.42194C3.86748 1.09776 3.47576 0.925537 3.06378 0.925537C2.65179 0.925537 2.25332 1.09776 1.91563 1.42194C1.91225 1.42532 1.91225 1.42532 1.90887 1.4287L0.760723 2.58698C0.328479 3.01922 0.0819641 3.54602 0.0279336 4.15724C-0.0531123 5.1433 0.237302 6.06182 0.460178 6.66291C1.00724 8.13862 1.82445 9.50627 3.04352 10.9718C4.5226 12.738 6.30223 14.1326 8.33513 15.1153C9.11182 15.4834 10.1485 15.919 11.3068 15.9933C11.3777 15.9967 11.452 16.0001 11.5196 16.0001C12.2996 16.0001 12.9547 15.7198 13.468 15.1626C13.4714 15.1558 13.4782 15.1525 13.4815 15.1457C13.6571 14.933 13.8598 14.7405 14.0725 14.5345C14.2177 14.396 14.3663 14.2508 14.5115 14.0989C14.8458 13.751 15.0214 13.3458 15.0214 12.9305C15.0214 12.5117 14.8424 12.1099 14.5014 11.7722L12.6474 9.9115ZM13.8564 13.4674C13.853 13.4708 13.853 13.4674 13.8564 13.4674C13.7247 13.6092 13.5896 13.7375 13.4444 13.8794C13.2249 14.0887 13.002 14.3082 12.7927 14.5547C12.4516 14.9195 12.0497 15.0917 11.5229 15.0917C11.4723 15.0917 11.4183 15.0917 11.3676 15.0883C10.3647 15.0241 9.43263 14.6324 8.73361 14.2981C6.82228 13.3728 5.14395 12.0592 3.74929 10.3944C2.59776 9.00648 1.82783 7.72326 1.31791 6.34548C1.00386 5.50463 0.889046 4.84951 0.9397 4.23153C0.973469 3.83643 1.12543 3.50887 1.40571 3.22859L2.55724 2.07706C2.72271 1.92173 2.89831 1.8373 3.07053 1.8373C3.28328 1.8373 3.4555 1.96563 3.56356 2.07369C3.56694 2.07706 3.57031 2.08044 3.57369 2.08382C3.77968 2.2763 3.97554 2.47554 4.18153 2.68828C4.28622 2.79635 4.39428 2.90441 4.50234 3.01584L5.42424 3.93774C5.78219 4.29569 5.78219 4.62663 5.42424 4.98458C5.32631 5.08251 5.23175 5.18044 5.13382 5.275C4.85016 5.56541 4.58001 5.83557 4.28622 6.09896C4.27946 6.10572 4.27271 6.1091 4.26933 6.11585C3.97892 6.40626 4.03295 6.68992 4.09373 6.88241C4.09711 6.89254 4.10049 6.90267 4.10387 6.9128C4.34363 7.49363 4.68132 8.04069 5.19461 8.69243L5.19798 8.69581C6.13001 9.84396 7.11269 10.7388 8.19668 11.4244C8.33513 11.5122 8.47696 11.5831 8.61204 11.6506C8.73361 11.7114 8.84842 11.7688 8.94635 11.8296C8.95986 11.8363 8.97337 11.8465 8.98688 11.8532C9.10169 11.9106 9.20975 11.9376 9.32119 11.9376C9.60148 11.9376 9.77708 11.762 9.83448 11.7046L10.9894 10.5497C11.1042 10.4349 11.2866 10.2965 11.4993 10.2965C11.7087 10.2965 11.8809 10.4282 11.9856 10.543C11.989 10.5464 11.989 10.5464 11.9923 10.5497L13.853 12.4104C14.2008 12.7549 14.2008 13.1094 13.8564 13.4674Z" fill="#666666"/>
<path d="M8.64918 3.80597C9.53393 3.95456 10.3376 4.37329 10.9792 5.01491C11.6209 5.65652 12.0362 6.46022 12.1882 7.34498C12.2253 7.56785 12.4178 7.72319 12.6373 7.72319C12.6643 7.72319 12.688 7.71981 12.715 7.71644C12.9649 7.67591 13.1303 7.43953 13.0898 7.18964C12.9075 6.11916 12.4009 5.14323 11.6276 4.36992C10.8543 3.5966 9.87837 3.09007 8.80789 2.90771C8.558 2.86719 8.32499 3.03266 8.28109 3.27917C8.23719 3.52569 8.39928 3.76545 8.64918 3.80597Z" fill="#666666"/>
<path d="M15.9838 7.05794C15.6833 5.29519 14.8526 3.69116 13.5761 2.41469C12.2996 1.13822 10.6956 0.307495 8.93284 0.00695018C8.68633 -0.0369497 8.45332 0.131896 8.40942 0.37841C8.3689 0.628302 8.53437 0.861309 8.78426 0.905208C10.3579 1.17198 11.7931 1.91828 12.9345 3.0563C14.0759 4.1977 14.8188 5.63288 15.0856 7.20652C15.1227 7.4294 15.3152 7.58474 15.5347 7.58474C15.5617 7.58474 15.5854 7.58136 15.6124 7.57798C15.8589 7.54084 16.0277 7.30445 15.9838 7.05794Z" fill="#666666"/>
</svg>
