<svg width="19" height="16" viewBox="0 0 19 16" fill="none" xmlns="http://www.w3.org/2000/svg">
<path d="M14.8571 12.9524C12.9669 12.9524 11.4286 11.4141 11.4286 9.52381C11.4286 7.63352 12.9669 6.09524 14.8571 6.09524H16.7619V4.57143C16.7619 3.73105 16.0785 3.04762 15.2381 3.04762H14.4762V1.52381C14.4762 0.683429 13.7928 0 12.9524 0H2.28571C1.15581 0 0.221714 0.825905 0.0388571 1.904C0.0220952 1.96648 0 2.02743 0 2.09524V13.7143C0 14.9745 1.02552 16 2.28571 16H15.2381C16.0785 16 16.7619 15.3166 16.7619 14.4762V12.9524H14.8571ZM1.52381 2.28571C1.52381 1.8659 1.86514 1.52381 2.28571 1.52381H12.9524V3.04762H2.28571C1.86514 3.04762 1.52381 2.70552 1.52381 2.28571Z" fill="#282828"/>
<path d="M17.7141 7.23809H14.857C13.5968 7.23809 12.5713 8.26362 12.5713 9.52381C12.5713 10.784 13.5968 11.8095 14.857 11.8095H17.7141C18.0296 11.8095 18.2856 11.5535 18.2856 11.2381V7.80952C18.2856 7.49409 18.0296 7.23809 17.7141 7.23809ZM14.857 10.2857C14.4364 10.2857 14.0951 9.94438 14.0951 9.52381C14.0951 9.10324 14.4364 8.7619 14.857 8.7619C15.2776 8.7619 15.6189 9.10324 15.6189 9.52381C15.6189 9.94438 15.2776 10.2857 14.857 10.2857Z" fill="#282828"/>
</svg>
