<svg width="16" height="16" viewBox="0 0 16 16" fill="none" xmlns="http://www.w3.org/2000/svg">
<path d="M8 0C3.57562 0 0 3.57469 0 8C0 12.4244 3.57469 16 8 16C12.4244 16 16 12.4253 16 8C16 3.57562 12.4253 0 8 0ZM6.59375 8C6.59375 8.17656 6.56875 8.3475 6.52281 8.50969L9.01281 9.96219C9.35281 9.61906 9.82375 9.40625 10.3438 9.40625C11.3775 9.40625 12.2188 10.2475 12.2188 11.2812C12.2188 12.315 11.3775 13.1562 10.3438 13.1562C9.31 13.1562 8.46875 12.315 8.46875 11.2812C8.46875 11.1047 8.49375 10.9338 8.53969 10.7716L6.04969 9.31906C5.70969 9.66219 5.23875 9.875 4.71875 9.875C3.685 9.875 2.84375 9.03375 2.84375 8C2.84375 6.96625 3.685 6.125 4.71875 6.125C5.23875 6.125 5.70969 6.33781 6.04969 6.68094L8.53969 5.22844C8.49375 5.06625 8.46875 4.89531 8.46875 4.71875C8.46875 3.685 9.31 2.84375 10.3438 2.84375C11.3775 2.84375 12.2188 3.685 12.2188 4.71875C12.2188 5.7525 11.3775 6.59375 10.3438 6.59375C9.82375 6.59375 9.35281 6.38094 9.01281 6.03781L6.52281 7.49031C6.56875 7.6525 6.59375 7.82344 6.59375 8Z" fill="#282828"/>
</svg>
