<svg width="32" height="32" viewBox="0 0 32 32" fill="none" xmlns="http://www.w3.org/2000/svg">
<path d="M16 31C24.2843 31 31 24.2843 31 16C31 7.71573 24.2843 1 16 1C7.71573 1 1 7.71573 1 16C1 24.2843 7.71573 31 16 31Z" fill="url(#paint0_linear_697_1991)"/>
<path d="M19.1862 7.6665H12.8195C9.97952 7.6665 7.67285 9.97317 7.67285 12.8132V19.1798C7.67285 22.0198 9.97952 24.3265 12.8195 24.3265H19.1862C22.0262 24.3265 24.3329 22.0198 24.3329 19.1798V12.8132C24.3329 9.97317 22.0262 7.6665 19.1862 7.6665ZM22.4729 19.1865C22.4729 20.9998 20.9995 22.4798 19.1795 22.4798H12.8129C10.9995 22.4798 9.51952 21.0065 9.51952 19.1865V12.8198C9.51952 11.0065 10.9929 9.5265 12.8129 9.5265H19.1795C20.9929 9.5265 22.4729 10.9998 22.4729 12.8198V19.1865Z" fill="white"/>
<path d="M15.9993 11.7402C13.6526 11.7402 11.7393 13.6536 11.7393 16.0002C11.7393 18.3469 13.6526 20.2602 15.9993 20.2602C18.3459 20.2602 20.2593 18.3469 20.2593 16.0002C20.2593 13.6536 18.3459 11.7402 15.9993 11.7402ZM15.9993 18.5869C14.5726 18.5869 13.4126 17.4269 13.4126 16.0002C13.4126 14.5736 14.5726 13.4136 15.9993 13.4136C17.4259 13.4136 18.5859 14.5736 18.5859 16.0002C18.5859 17.4269 17.4259 18.5869 15.9993 18.5869Z" fill="white"/>
<path d="M20.5836 12.207C20.9761 12.1433 21.2427 11.7736 21.1791 11.3811C21.1154 10.9886 20.7457 10.7221 20.3532 10.7857C19.9607 10.8493 19.6942 11.219 19.7578 11.6115C19.8214 12.004 20.1911 12.2706 20.5836 12.207Z" fill="white"/>
<defs>
<linearGradient id="paint0_linear_697_1991" x1="4.5786" y1="27.4214" x2="25.8953" y2="6.10473" gradientUnits="userSpaceOnUse">
<stop stop-color="#FEE411"/>
<stop offset="0.0518459" stop-color="#FEDB16"/>
<stop offset="0.1381" stop-color="#FEC125"/>
<stop offset="0.2481" stop-color="#FE983D"/>
<stop offset="0.3762" stop-color="#FE5F5E"/>
<stop offset="0.5" stop-color="#FE2181"/>
<stop offset="1" stop-color="#9000DC"/>
</linearGradient>
</defs>
</svg>
