<svg width="32" height="32" viewBox="0 0 32 32" fill="none" xmlns="http://www.w3.org/2000/svg">
<g clip-path="url(#clip0_697_1981)">
<path d="M16 0C7.16375 0 0 7.16375 0 16C0 24.8363 7.16375 32 16 32C24.8363 32 32 24.8363 32 16C32 7.16375 24.8363 0 16 0Z" fill="black"/>
<path d="M17.7506 14.5522L24.6 6.59033H22.977L17.0296 13.5035L12.2795 6.59033H6.80078L13.9839 17.0443L6.80078 25.3936H8.42397L14.7045 18.093L19.721 25.3936H25.1997L17.7502 14.5522H17.7506ZM9.00881 7.81225H11.5019L22.9777 24.2272H20.4846L9.00881 7.81225Z" fill="white"/>
</g>
<defs>
<clipPath id="clip0_697_1981">
<rect width="32" height="32" fill="white"/>
</clipPath>
</defs>
</svg>
