<svg width="32" height="32" viewBox="0 0 32 32" fill="none" xmlns="http://www.w3.org/2000/svg">
<g clip-path="url(#clip0_697_1985)">
<path d="M16 32C24.8366 32 32 24.8366 32 16C32 7.16344 24.8366 0 16 0C7.16344 0 0 7.16344 0 16C0 24.8366 7.16344 32 16 32Z" fill="#FF0000"/>
<path d="M21.2359 9.98096H10.7644C10.3459 9.98096 9.93152 10.0634 9.54493 10.2236C9.15834 10.3838 8.80711 10.6186 8.5113 10.9146C8.21549 11.2106 7.98091 11.562 7.82096 11.9487C7.66101 12.3354 7.57883 12.7499 7.5791 13.1683V18.8315C7.57883 19.25 7.66101 19.6644 7.82096 20.0511C7.98091 20.4378 8.21549 20.7892 8.5113 21.0852C8.80711 21.3812 9.15834 21.616 9.54493 21.7762C9.93152 21.9364 10.3459 22.0189 10.7644 22.0189H21.2359C21.6544 22.0189 22.0688 21.9364 22.4554 21.7762C22.842 21.616 23.1932 21.3812 23.489 21.0852C23.7848 20.7892 24.0194 20.4378 24.1793 20.0511C24.3393 19.6644 24.4215 19.25 24.4212 18.8315V13.1683C24.4215 12.7499 24.3393 12.3354 24.1793 11.9487C24.0194 11.562 23.7848 11.2106 23.489 10.9146C23.1932 10.6186 22.842 10.3838 22.4554 10.2236C22.0688 10.0634 21.6544 9.98096 21.2359 9.98096ZM13.7812 18.581V13.4189L18.2191 15.9999L13.7812 18.581Z" fill="white"/>
</g>
<defs>
<clipPath id="clip0_697_1985">
<rect width="32" height="32" fill="white"/>
</clipPath>
</defs>
</svg>
