<svg width="20" height="20" viewBox="0 0 20 20" fill="none" xmlns="http://www.w3.org/2000/svg">
<path fill-rule="evenodd" clip-rule="evenodd" d="M9.67967 0C11.4825 0.0205729 13.1112 0.463663 14.5658 1.32927C16.003 2.1776 17.1986 3.38045 18.0381 4.82281C18.8984 6.28613 19.3389 7.9247 19.3594 9.73854C19.3083 12.2203 18.5255 14.34 17.0111 16.0976C15.4966 17.8551 13.557 18.9425 11.5491 19.3593V12.4012H13.4474L13.8767 9.66684H11.0022V7.8759C10.9862 7.50462 11.1036 7.13989 11.3332 6.84765C11.5631 6.55461 11.9679 6.40059 12.5476 6.38559H14.2834V3.99034C14.2585 3.98233 14.0222 3.95064 13.5744 3.89528C13.0667 3.83586 12.556 3.80413 12.0448 3.80022C10.8877 3.80555 9.97254 4.13195 9.2994 4.77941C8.62626 5.42669 8.2824 6.36316 8.26782 7.58882V9.66684H6.08032V12.4012H8.26782V19.3593C5.80239 18.9425 3.86274 17.8551 2.34829 16.0976C0.833836 14.34 0.0511016 12.2203 0 9.73854C0.0204453 7.92462 0.460857 6.28604 1.32123 4.82281C2.1608 3.38045 3.35635 2.1776 4.79357 1.32927C6.24808 0.463829 7.87678 0.0207396 9.67967 0Z" fill="white"/>
</svg>
