<svg width="21" height="20" viewBox="0 0 21 20" fill="none" xmlns="http://www.w3.org/2000/svg">
<path fill-rule="evenodd" clip-rule="evenodd" d="M13.9519 12.0319C13.8722 12.0316 13.7952 12.0607 13.7355 12.1135C13.6761 12.1596 13.6464 12.3337 13.6464 12.6357V12.7866L13.6655 12.8054H14.2192L14.2383 12.7866V12.4156C14.2383 12.1596 14.1428 12.0317 13.9519 12.0319ZM11.5399 12.0192C11.4819 12.02 11.4248 12.0339 11.3729 12.0601C11.3211 12.0862 11.2759 12.1239 11.2408 12.1701V14.353C11.3384 14.4578 11.4381 14.5103 11.5399 14.5103H11.5972C11.7288 14.5103 11.7945 14.4096 11.7945 14.2082V12.3527C11.7775 12.1304 11.6927 12.0192 11.5399 12.0192ZM8.04606 11.5097H8.70155V14.2021C8.70155 14.3572 8.75033 14.4347 8.8479 14.4347H8.89248C8.99431 14.4347 9.12159 14.3467 9.27432 14.1707V11.5096H9.93619V15.0198H9.27432V14.6424H9.26797C9.0049 14.9274 8.75033 15.0699 8.50427 15.07H8.49155C8.42715 15.0723 8.3632 15.0585 8.30543 15.03C8.24766 15.0014 8.1979 14.959 8.16061 14.9064C8.08423 14.827 8.04605 14.5942 8.04606 14.2082V11.5097ZM13.9328 11.428H14.0028C14.6138 11.428 14.9193 11.7949 14.9193 12.5287V13.3403H13.6655L13.6464 13.3591V13.963C13.6464 14.3235 13.7334 14.5038 13.9074 14.5039H13.9646C14.0253 14.5023 14.0845 14.485 14.1365 14.4537C14.2044 14.4032 14.2383 14.2649 14.2383 14.0385V13.7679H14.9193V13.9188C14.9193 14.1958 14.8938 14.4034 14.8429 14.5417C14.7029 14.9232 14.3995 15.1141 13.9328 15.1142C13.7955 15.1155 13.6593 15.0898 13.5319 15.0386C13.1628 14.8708 12.9782 14.548 12.9782 14.07V12.428C12.9788 12.2862 13.0047 12.1456 13.0546 12.0128C13.2455 11.623 13.5382 11.4281 13.9328 11.428ZM10.5853 10.2641H11.2408V11.7866H11.2535C11.4445 11.5726 11.6375 11.4656 11.8327 11.4658C12.2612 11.4658 12.4755 11.7677 12.4755 12.3715V14.2965C12.4744 14.4107 12.4616 14.5245 12.4373 14.6361C12.3397 14.9169 12.1678 15.0574 11.9218 15.0576H11.8327C11.6248 15.0576 11.4317 14.9611 11.2535 14.7682H11.2408V15.0198H10.5853V10.2641ZM5.77406 10.2641H8.0524V10.9436H7.30146L7.28239 10.9623V15.0198H6.54414V10.9623L6.52504 10.9436H5.77406V10.2641ZM9.82801 9.03128C8.89883 9.03128 8.10968 9.04388 7.46057 9.06908C6.62048 9.0859 6.16652 9.11735 6.09869 9.16342C5.69561 9.3019 5.40285 9.52205 5.2204 9.82384C5.09316 10.0672 5.02316 10.237 5.0104 10.3334C4.94674 11.017 4.91492 11.7299 4.91495 12.4722V12.8308C4.91495 13.4556 4.93404 13.9945 4.97222 14.4474C4.97222 15.0512 5.13768 15.4936 5.46859 15.7745C5.74015 16.0137 6.01592 16.1521 6.29592 16.1897C7.32266 16.2485 8.50637 16.2778 9.84707 16.2777H10.8717C11.979 16.2777 12.9548 16.2589 13.7991 16.2212C14.2956 16.2212 14.6456 16.1666 14.8492 16.0576C15.2523 15.8521 15.5238 15.5481 15.6638 15.1456C15.7317 15.0322 15.7784 14.2836 15.8038 12.8997V12.4093C15.8038 11.7969 15.7847 11.2873 15.7466 10.8807C15.7466 10.2768 15.5938 9.83859 15.2883 9.56594C15.1059 9.35214 14.8174 9.20115 14.4228 9.11297C13.4045 9.05863 12.223 9.03141 10.878 9.03131L9.82801 9.03128ZM10.2783 5.49606L10.3992 5.5151C10.5138 5.56116 10.5711 5.6534 10.5711 5.79179V7.60975C10.5711 7.8445 10.4756 7.96194 10.2847 7.96205H10.2783C10.1044 7.96205 10.0174 7.8677 10.0174 7.67901V5.74159C10.0174 5.59897 10.1044 5.51712 10.2783 5.49606ZM11.8248 4.96778L11.8057 4.98654V7.84865C11.804 7.97549 11.8169 8.1021 11.8439 8.22603C11.9118 8.4401 12.0539 8.54704 12.2703 8.54685C12.5121 8.54685 12.7646 8.40432 13.0276 8.11926V8.47154L13.0467 8.4903H13.6831L13.7022 8.47154V4.98654L13.6831 4.96779H13.0467L13.0276 4.98654V7.6412C12.8748 7.80893 12.7497 7.89279 12.6521 7.89279H12.6267C12.5248 7.89279 12.4739 7.79844 12.4739 7.60975V4.98654L12.4548 4.96779L11.8248 4.96778ZM10.2783 4.88586C10.0153 4.88586 9.80105 4.9551 9.63556 5.09359C9.42766 5.22353 9.32371 5.50032 9.3237 5.92394V7.43349C9.32177 7.57865 9.33028 7.72377 9.34918 7.86771C9.48494 8.34578 9.79678 8.58477 10.2847 8.58468L10.6029 8.54689C11.0356 8.40868 11.252 8.10679 11.252 7.64122V5.76036C11.2535 5.65486 11.234 5.55013 11.1947 5.45222C11.0336 5.07456 10.7472 4.88577 10.3356 4.88586L10.2783 4.88586ZM6.8799 3.72226L6.86718 3.73495L6.97539 4.09964C7.48874 5.73525 7.74542 6.58234 7.74543 6.64092V8.47156L7.76454 8.49032H8.48367L8.50277 8.47156V6.55291C8.50277 6.51512 8.79128 5.5758 9.3683 3.73494H9.36192L9.3492 3.72225H8.60458L8.14637 5.62186H8.10182C7.96178 5.03483 7.83662 4.54627 7.72633 4.15619C7.66268 3.86681 7.62238 3.72216 7.60544 3.72225L6.8799 3.72226ZM10.3594 0C15.8822 0 20.3594 4.4773 20.3594 10.0001C20.3594 15.523 15.8822 20 10.3594 20C4.83657 20 0.359375 15.523 0.359375 10.0001C0.359375 4.47731 4.83654 0 10.3594 0Z" fill="white"/>
</svg>
