<svg width="21" height="20" viewBox="0 0 21 20" fill="none" xmlns="http://www.w3.org/2000/svg">
<path d="M10.3596 11.5804C11.2323 11.5804 11.9398 10.8729 11.9398 10.0002C11.9398 9.12743 11.2323 8.41992 10.3596 8.41992C9.4868 8.41992 8.7793 9.12743 8.7793 10.0002C8.7793 10.8729 9.4868 11.5804 10.3596 11.5804Z" fill="white"/>
<path d="M12.38 6.00635H8.33794C7.81449 6.00635 7.31247 6.21429 6.94234 6.58443C6.5722 6.95456 6.36426 7.45658 6.36426 7.98003V12.0208C6.36426 12.5443 6.5722 13.0463 6.94234 13.4164C7.31247 13.7866 7.81449 13.9945 8.33794 13.9945H12.38C12.9035 13.9945 13.4055 13.7866 13.7757 13.4164C14.1458 13.0463 14.3537 12.5443 14.3537 12.0208V7.97871C14.3534 7.45549 14.1453 6.95381 13.7752 6.58396C13.4051 6.21411 12.9033 6.00635 12.38 6.00635ZM10.359 12.5866C9.84731 12.5869 9.34704 12.4354 8.92146 12.1513C8.49589 11.8672 8.16412 11.4633 7.96813 10.9906C7.77213 10.518 7.72072 9.99779 7.82038 9.49591C7.92005 8.99402 8.16632 8.53297 8.52804 8.17106C8.88976 7.80915 9.35069 7.56265 9.85253 7.46273C10.3544 7.36281 10.8746 7.41396 11.3473 7.60971C11.8201 7.80547 12.2242 8.13703 12.5085 8.56246C12.7928 8.98789 12.9445 9.48808 12.9445 9.99977C12.9438 10.6854 12.6712 11.3428 12.1865 11.8277C11.7019 12.3126 11.0446 12.5856 10.359 12.5866ZM12.9603 8.0524C12.8337 8.05266 12.7099 8.01534 12.6045 7.94518C12.4992 7.87501 12.417 7.77515 12.3684 7.65825C12.3199 7.54135 12.3071 7.41266 12.3317 7.28849C12.3564 7.16433 12.4173 7.05026 12.5068 6.96075C12.5963 6.87124 12.7104 6.81031 12.8346 6.78568C12.9587 6.76104 13.0874 6.77382 13.2043 6.82238C13.3212 6.87095 13.4211 6.95311 13.4912 7.05847C13.5614 7.16384 13.5987 7.28765 13.5985 7.41424C13.5981 7.58338 13.5308 7.7455 13.4112 7.8651C13.2916 7.98471 13.1295 8.05205 12.9603 8.0524Z" fill="white"/>
<path d="M10.3594 0C8.38156 0 6.44817 0.58649 4.80368 1.6853C3.15918 2.78412 1.87746 4.3459 1.12058 6.17316C0.363708 8.00042 0.165675 10.0111 0.551527 11.9509C0.937379 13.8907 1.88979 15.6725 3.28831 17.0711C4.68684 18.4696 6.46866 19.422 8.40847 19.8078C10.3483 20.1937 12.3589 19.9957 14.1862 19.2388C16.0135 18.4819 17.5753 17.2002 18.6741 15.5557C19.7729 13.9112 20.3594 11.9778 20.3594 10C20.3594 7.34783 19.3058 4.80429 17.4304 2.92893C15.5551 1.05357 13.0115 0 10.3594 0ZM15.3594 12.021C15.3587 12.8109 15.0446 13.5682 14.4861 14.1267C13.9276 14.6852 13.1703 14.9993 12.3804 15H8.33832C7.54858 14.999 6.79148 14.6848 6.23304 14.1263C5.67461 13.5679 5.36042 12.8108 5.35938 12.021V7.97894C5.36042 7.1892 5.67461 6.4321 6.23304 5.87367C6.79148 5.31523 7.54858 5.00104 8.33832 5H12.3804C13.1702 5.00104 13.9273 5.31523 14.4857 5.87367C15.0441 6.4321 15.3583 7.1892 15.3594 7.97894V12.021Z" fill="white"/>
</svg>
