<svg width="27" height="32" viewBox="0 0 27 32" fill="none" xmlns="http://www.w3.org/2000/svg">
<path d="M13.1469 15.4144C15.2646 15.4144 17.0983 14.6549 18.5966 13.1564C20.0949 11.6581 20.8544 9.82488 20.8544 7.70697C20.8544 5.5898 20.0949 3.75632 18.5963 2.25755C17.0978 0.759516 15.2643 0 13.1469 0C11.029 0 9.19577 0.759516 7.69749 2.2578C6.19921 3.75607 5.43945 5.58956 5.43945 7.70697C5.43945 9.82488 6.19921 11.6584 7.69774 13.1566C9.19626 14.6547 11.0297 15.4144 13.1469 15.4144Z" fill="#F35800"/>
<path d="M26.6329 24.6061C26.5896 23.9826 26.5022 23.3024 26.3736 22.5842C26.2437 21.8605 26.0765 21.1765 25.8763 20.5512C25.6695 19.905 25.3882 19.2668 25.0406 18.6552C24.6797 18.0205 24.2559 17.4678 23.7803 17.0129C23.283 16.5371 22.6741 16.1545 21.97 15.8755C21.2684 15.5979 20.4908 15.4573 19.659 15.4573C19.3324 15.4573 19.0165 15.5913 18.4064 15.9885C18.0309 16.2334 17.5917 16.5166 17.1014 16.8298C16.6822 17.0969 16.1144 17.3472 15.413 17.5737C14.7286 17.7951 14.0338 17.9075 13.348 17.9075C12.6623 17.9075 11.9677 17.7951 11.2826 17.5737C10.582 17.3474 10.0141 17.0972 9.59539 16.8301C9.10979 16.5198 8.67034 16.2366 8.28924 15.9883C7.67987 15.5911 7.36371 15.457 7.03706 15.457C6.20503 15.457 5.42769 15.5979 4.72628 15.8757C4.02267 16.1543 3.41355 16.5369 2.91575 17.0132C2.44041 17.4682 2.01634 18.0207 1.65599 18.6552C1.30858 19.2668 1.02734 19.9048 0.820306 20.5515C0.620357 21.1767 0.453122 21.8605 0.32324 22.5842C0.194579 23.3015 0.107177 23.9819 0.0639644 24.6069C0.0214842 25.2192 0 25.8547 0 26.4965C0 28.1669 0.531002 29.5192 1.57811 30.5165C2.61228 31.5006 3.98068 31.9999 5.64473 31.9999H21.0528C22.7169 31.9999 24.0848 31.5009 25.1192 30.5165C26.1665 29.5199 26.6976 28.1674 26.6976 26.4963C26.6973 25.8515 26.6756 25.2155 26.6329 24.6061Z" fill="#F35800"/>
</svg>
