<svg width="30" height="30" viewBox="0 0 30 30" fill="none" xmlns="http://www.w3.org/2000/svg">
<path d="M23.9011 7.71735C21.9401 5.75641 18.4323 5.02985 15.3073 7.95954C14.546 7.17785 13.5962 6.60547 12.5494 6.29758C11.5025 5.98969 10.3941 5.95668 9.33077 6.20173C8.34238 6.46399 7.43998 6.98068 6.71348 7.70033C5.98699 8.41997 5.46176 9.31743 5.19014 10.3033C4.61983 12.4361 5.34639 14.7174 7.18233 16.5533L14.0495 23.4127C14.2143 23.5785 14.4103 23.7101 14.6262 23.7999C14.842 23.8897 15.0735 23.9359 15.3073 23.9359C15.5411 23.9359 15.7726 23.8897 15.9885 23.7999C16.2043 23.7101 16.4003 23.5785 16.5651 23.4127L23.4323 16.5533C26.6433 13.3814 25.9245 9.74079 23.9011 7.71735ZM22.8776 16.0377L16.0105 22.9049C15.8223 23.0881 15.57 23.1907 15.3073 23.1907C15.0447 23.1907 14.7924 23.0881 14.6042 22.9049L7.73702 16.0377C6.07295 14.3736 5.44014 12.4205 5.94795 10.5689C6.22673 9.49459 6.85451 8.54331 7.73267 7.86454C8.61083 7.18577 9.68961 6.81796 10.7995 6.81891C11.5962 6.84328 12.3801 7.02572 13.1057 7.35565C13.8313 7.68558 14.484 8.15641 15.0261 8.74079C15.1015 8.81418 15.2021 8.85608 15.3073 8.85798C15.4102 8.85568 15.5082 8.81369 15.5808 8.74079C18.4167 5.90485 21.5964 6.50641 23.3933 8.26423C25.1901 10.022 25.7058 13.2017 22.8776 16.0377Z" fill="black"/>
</svg>
