<svg width="126" height="18" viewBox="0 0 126 18" fill="none" xmlns="http://www.w3.org/2000/svg">
<path fill-rule="evenodd" clip-rule="evenodd" d="M125.364 4.0542H120.542V3.73828H125.364V4.0542Z" fill="black"/>
<path fill-rule="evenodd" clip-rule="evenodd" d="M125.781 4.47103H120.126V3.32227H125.781V4.47103ZM120.542 4.05461H125.365V3.73869H120.542V4.05461Z" fill="black"/>
<path d="M119.881 3.73682V14.3497H119.55V3.73682H119.881Z" fill="black"/>
<path fill-rule="evenodd" clip-rule="evenodd" d="M120.297 3.32031V14.7661H119.133V3.32031H120.297ZM119.881 14.3496V3.73674H119.549V14.3496H119.881Z" fill="black"/>
<path fill-rule="evenodd" clip-rule="evenodd" d="M125.364 9.1494H120.542V8.8335H125.364V9.1494Z" fill="black"/>
<path fill-rule="evenodd" clip-rule="evenodd" d="M125.781 9.56574H120.126V8.41699H125.781V9.56574ZM120.542 9.14932H125.365V8.83342H120.542V9.14932Z" fill="black"/>
<path fill-rule="evenodd" clip-rule="evenodd" d="M116.931 4.0542H112.109V3.73828H116.931V4.0542Z" fill="black"/>
<path fill-rule="evenodd" clip-rule="evenodd" d="M117.348 4.47103H111.693V3.32227H117.348V4.47103ZM112.11 4.05461H116.931V3.73869H112.11V4.05461Z" fill="black"/>
<path d="M111.448 3.73682V14.3497H111.116V3.73682H111.448Z" fill="black"/>
<path fill-rule="evenodd" clip-rule="evenodd" d="M111.864 3.32031V14.7661H110.699V3.32031H111.864ZM111.447 14.3496V3.73674H111.116V14.3496H111.447Z" fill="black"/>
<path fill-rule="evenodd" clip-rule="evenodd" d="M116.931 9.1494H112.109V8.8335H116.931V9.1494Z" fill="black"/>
<path fill-rule="evenodd" clip-rule="evenodd" d="M117.348 9.56574H111.693V8.41699H117.348V9.56574ZM112.11 9.14932H116.931V8.83342H112.11V9.14932Z" fill="black"/>
<path fill-rule="evenodd" clip-rule="evenodd" d="M108.674 14.0322H103.852V14.3481H108.674V14.0322Z" fill="black"/>
<path fill-rule="evenodd" clip-rule="evenodd" d="M109.091 13.6157V14.7645H103.436V13.6157H109.091ZM103.852 14.348H108.674V14.0321H103.852V14.348Z" fill="black"/>
<path d="M103.191 14.3497V3.73682H102.859V14.3497H103.191Z" fill="black"/>
<path fill-rule="evenodd" clip-rule="evenodd" d="M103.607 14.7661H102.442V3.32031H103.607V14.7661ZM102.859 3.73674V14.3497H103.19V3.73674H102.859Z" fill="black"/>
<path d="M100.12 9.04338C100.12 10.1247 99.9354 11.0747 99.5664 11.8935C99.1966 12.7123 98.6819 13.3514 98.0215 13.8109C97.3619 14.2669 96.5965 14.4949 95.7262 14.4949C94.8525 14.4949 94.0854 14.2652 93.425 13.8057C92.7654 13.3462 92.2507 12.7071 91.8809 11.8883C91.5144 11.0695 91.332 10.1213 91.332 9.04338C91.332 7.96202 91.5169 7.0137 91.8859 6.19838C92.2557 5.37961 92.7704 4.74049 93.4308 4.28101C94.0904 3.82153 94.8558 3.5918 95.7262 3.5918C96.5965 3.5918 97.3619 3.82153 98.0215 4.28101C98.6819 4.73703 99.1966 5.37443 99.5664 6.1932C99.9354 7.01197 100.12 7.96202 100.12 9.04338ZM99.7888 9.04338C99.7888 8.02766 99.6181 7.13634 99.2758 6.36939C98.9335 5.59899 98.4571 4.99959 97.8458 4.57121C97.2378 4.13936 96.5307 3.92345 95.7262 3.92345C94.925 3.92345 94.2179 4.13764 93.6065 4.56603C92.9986 4.99095 92.5222 5.58862 92.1765 6.35903C91.8342 7.12598 91.6635 8.02075 91.6635 9.04338C91.6635 10.0521 91.8326 10.9417 92.1715 11.7121C92.5097 12.4791 92.9827 13.0802 93.5907 13.5155C94.2029 13.9473 94.9141 14.1633 95.7262 14.1633C96.5307 14.1633 97.2394 13.949 97.8508 13.5207C98.4621 13.0888 98.9393 12.4895 99.2808 11.7225C99.6231 10.9521 99.7921 10.059 99.7888 9.04338Z" fill="black"/>
<path fill-rule="evenodd" clip-rule="evenodd" d="M99.9465 12.0645L99.9464 12.0648C99.5494 12.9438 98.989 13.6453 98.2597 14.1526L98.2592 14.153L98.2587 14.1533C97.5235 14.6616 96.6739 14.9112 95.7266 14.9112C94.7756 14.9112 93.9239 14.6597 93.1876 14.1475L93.1874 14.1473C92.4591 13.64 91.8988 12.9387 91.5018 12.0596L91.5015 12.059L91.5012 12.0584C91.1064 11.1762 90.916 10.1679 90.916 9.04331C90.916 7.91482 91.109 6.90603 91.5068 6.0269M93.5911 13.5154C92.9934 13.0874 92.526 12.4991 92.1891 11.7505C92.1889 11.7501 92.1888 11.7498 92.1886 11.7494C92.183 11.737 92.1775 11.7245 92.172 11.712C91.833 10.9416 91.6639 10.0521 91.6639 9.04331C91.6639 8.02067 91.8347 7.1259 92.177 6.35895C92.1806 6.35087 92.1842 6.34281 92.1879 6.33477C92.1879 6.3347 92.1879 6.33463 92.188 6.33455C92.5327 5.57592 93.0054 4.98638 93.607 4.56595C93.612 4.5624 93.6171 4.55888 93.6221 4.55536C93.6222 4.55532 93.6223 4.55529 93.6223 4.55525C94.2301 4.13399 94.9321 3.92337 95.7266 3.92337C96.5233 3.92337 97.2245 4.13512 97.8285 4.55863C97.8288 4.5589 97.8292 4.55917 97.8296 4.55943C97.8351 4.56331 97.8407 4.56721 97.8462 4.57113C98.4475 4.99252 98.9183 5.57938 99.2593 6.33171C99.2593 6.33179 99.2594 6.33188 99.2594 6.33197C99.265 6.34437 99.2706 6.35682 99.2762 6.36931C99.6185 7.13626 99.7892 8.02759 99.7892 9.04331C99.7925 10.059 99.6235 10.952 99.2812 11.7224C99.276 11.7341 99.2707 11.7457 99.2655 11.7573C99.2655 11.7574 99.2654 11.7575 99.2654 11.7576C98.925 12.5077 98.4531 13.0953 97.8512 13.5206C97.8445 13.5253 97.8377 13.53 97.831 13.5347C97.8307 13.5348 97.8305 13.535 97.8302 13.5352C97.2237 13.9538 96.5219 14.1632 95.7266 14.1632C94.9253 14.1632 94.2222 13.9529 93.6156 13.5325C93.6156 13.5325 93.6155 13.5324 93.6155 13.5324C93.6073 13.5268 93.5992 13.5211 93.5911 13.5154ZM93.8324 13.176C93.2928 12.7893 92.8647 12.2508 92.5531 11.5443C92.2416 10.8363 92.0803 10.0057 92.0803 9.04331C92.0803 8.06673 92.2434 7.23207 92.5571 6.529C92.8763 5.81767 93.3076 5.28323 93.8455 4.90727L93.8459 4.90697C94.3819 4.53138 95.0042 4.33979 95.7266 4.33979C96.452 4.33979 97.0732 4.53289 97.605 4.91063L97.6061 4.91139L97.6072 4.91215C98.1488 5.29167 98.5799 5.82783 98.8956 6.5384L98.8959 6.53903C99.2099 7.2425 99.3728 8.07393 99.3728 9.04331V9.04399L99.3728 9.04467C99.376 10.0134 99.2147 10.8463 98.9007 11.5531C98.5862 12.2595 98.1543 12.7963 97.6116 13.18C97.076 13.5551 96.4524 13.7468 95.7266 13.7468C94.9936 13.7468 94.3681 13.5535 93.8324 13.176ZM93.4254 13.8056C93.4167 13.7996 93.408 13.7934 93.3993 13.7873C93.3987 13.7869 93.398 13.7864 93.3974 13.786C92.7512 13.328 92.2458 12.6954 91.8813 11.8882C91.8753 11.8749 91.8694 11.8615 91.8635 11.848C91.8634 11.8479 91.8634 11.8479 91.8634 11.8478C91.5089 11.0383 91.3324 10.1035 91.3324 9.04331C91.3324 7.97331 91.5135 7.03357 91.8747 6.22406C91.8748 6.22386 91.8749 6.22367 91.875 6.22347C91.8787 6.21507 91.8825 6.20668 91.8863 6.1983C92.2531 5.3862 92.7624 4.75083 93.4151 4.2922C93.4152 4.29212 93.4153 4.29204 93.4155 4.29196C93.4207 4.28827 93.426 4.2846 93.4312 4.28094C94.0908 3.82145 94.8562 3.59172 95.7266 3.59172C96.5969 3.59172 97.3623 3.82145 98.0219 4.28094C98.0281 4.28522 98.0343 4.28952 98.0405 4.29384C98.0411 4.29425 98.0417 4.29466 98.0422 4.29507C98.6929 4.7501 99.2009 5.38278 99.5668 6.19312C99.5726 6.20601 99.5784 6.21892 99.5841 6.23187C99.5842 6.23204 99.5843 6.23221 99.5843 6.23239C99.9415 7.04194 100.121 7.97854 100.121 9.04222C100.121 9.04258 100.121 9.04294 100.121 9.04331C100.121 10.1085 99.9413 11.0462 99.5832 11.8566C99.5832 11.8567 99.5832 11.8568 99.5831 11.8569C99.5778 11.8691 99.5723 11.8813 99.5668 11.8934C99.2013 12.7027 98.6943 13.3365 98.0448 13.7947C98.0445 13.795 98.0441 13.7952 98.0438 13.7955C98.0365 13.8006 98.0292 13.8057 98.0219 13.8108C97.3623 14.2668 96.5969 14.4948 95.7266 14.4948C94.8529 14.4948 94.0858 14.2651 93.4254 13.8056ZM91.5068 6.02677C91.9038 5.14789 92.464 4.44658 93.1932 3.93924C93.9285 3.42702 94.7786 3.17529 95.7266 3.17529C96.6743 3.17529 97.5241 3.42686 98.2592 3.93875C98.9889 4.44281 99.5494 5.14278 99.9464 6.02172L99.9465 6.02204C100.344 6.90431 100.537 7.91464 100.537 9.04331C100.537 10.1719 100.344 11.1822 99.9465 12.0645" fill="black"/>
<path d="M81.1005 14.3497L78.1777 3.73682H78.5301L81.3078 13.8315H81.3491L84.0435 3.73682H84.4999L87.1942 13.8315H87.2358L90.0134 3.73682H90.3657L87.4432 14.3497H86.9876L84.2925 4.25502H84.2509L81.5564 14.3497H81.1005Z" fill="black"/>
<path fill-rule="evenodd" clip-rule="evenodd" d="M80.7829 14.7661L77.6309 3.32031H78.8472L81.3224 12.3159L83.7234 3.32031H84.8195L87.2205 12.3164L89.6958 3.32031H90.912L87.7602 14.7661H86.6675L84.2715 5.79152L81.876 14.7661H80.7829ZM86.9874 14.3497H87.4429L90.3654 3.73674H90.0131L87.2356 13.8315H87.1939L84.4996 3.73674H84.0432L81.3489 13.8315H81.3075L78.5298 3.73674H78.1775L81.1002 14.3497H81.5562L84.2506 4.25495H84.2923L86.9874 14.3497Z" fill="black"/>
<path d="M69.0543 14.4949C68.4946 14.4949 67.9885 14.3706 67.5359 14.1218C67.0867 13.8696 66.7292 13.5328 66.4632 13.1113C66.2007 12.6864 66.0693 12.2148 66.0693 11.6966C66.0693 11.3788 66.128 11.0816 66.2456 10.8053C66.363 10.5254 66.5547 10.2421 66.8207 9.95536C67.0867 9.66519 67.4444 9.34737 67.8934 9.00191L69.448 7.8411C69.949 7.45072 70.3049 7.09834 70.5156 6.78396C70.7298 6.46958 70.8369 6.12411 70.8369 5.74754C70.8369 5.21897 70.6693 4.78367 70.3342 4.44166C70.0026 4.09618 69.5828 3.92345 69.075 3.92345C68.7295 3.92345 68.4099 4.01155 68.1163 4.18774C67.8261 4.36393 67.5912 4.59712 67.4116 4.88731C67.2353 5.17751 67.1472 5.49189 67.1472 5.83045C67.1472 6.05847 67.1974 6.28302 67.2975 6.50413C67.3977 6.72178 67.5515 6.97052 67.7587 7.25035C67.966 7.52673 68.232 7.86874 68.5567 8.2764L73.3658 14.3498H72.9512L68.308 8.48371C67.9833 8.07603 67.7104 7.72537 67.4893 7.43172C67.2681 7.13461 67.1006 6.86169 66.9866 6.61295C66.8726 6.36075 66.8156 6.09992 66.8156 5.83045C66.8156 5.42971 66.9193 5.06006 67.1265 4.72149C67.3338 4.37947 67.6084 4.10655 67.9505 3.90272C68.2925 3.69544 68.6673 3.5918 69.075 3.5918C69.4757 3.5918 69.8333 3.68507 70.1476 3.87163C70.4655 4.05818 70.7142 4.31383 70.8939 4.63857C71.077 4.96332 71.1686 5.33297 71.1686 5.74754C71.1686 6.17247 71.051 6.56631 70.8162 6.92906C70.5812 7.29181 70.1943 7.68564 69.6553 8.11057L68.1007 9.27134C67.4685 9.75847 67.0264 10.1782 66.7741 10.5306C66.5254 10.883 66.401 11.2717 66.401 11.6966C66.401 12.1526 66.5185 12.5654 66.7534 12.9351C66.9883 13.3048 67.3061 13.6002 67.7069 13.8212C68.1077 14.0423 68.5567 14.1563 69.0543 14.1633C69.5725 14.1529 70.0389 14.0562 70.4534 13.8731C70.868 13.6899 71.229 13.4378 71.5364 13.1164C71.8474 12.7917 72.103 12.4083 72.3034 11.966C72.5073 11.5204 72.654 11.0298 72.7439 10.4943L73.0755 10.5358C73.0271 10.8329 72.9546 11.1283 72.8579 11.4219C72.7646 11.7156 72.6524 11.9954 72.5211 12.2614C72.3933 12.5275 72.2533 12.7676 72.1013 12.9818C72.0633 13.037 72.0236 13.0905 71.9822 13.1423C71.9407 13.1942 71.8975 13.2443 71.8526 13.2927C71.5002 13.6658 71.0753 13.9595 70.5778 14.1736C70.0803 14.3878 69.5725 14.4949 69.0543 14.4949Z" fill="black"/>
<path fill-rule="evenodd" clip-rule="evenodd" d="M67.3341 14.4857L67.3324 14.4848C66.825 14.1999 66.4157 13.8155 66.1114 13.3334L66.1104 13.3318L66.1093 13.3301C65.8046 12.8369 65.6533 12.289 65.6533 11.6965C65.6533 11.3264 65.7219 10.9738 65.8624 10.6431C66.0031 10.3081 66.2256 9.98512 66.515 9.67298C66.8025 9.3595 67.1798 9.02575 67.6399 8.67177L67.6423 8.66995L67.8196 8.53757C67.5637 8.21402 67.3427 7.92878 67.157 7.68213L67.1563 7.6812L67.1556 7.68026C66.9227 7.36738 66.738 7.06909 66.6084 6.78639L66.6079 6.78535L66.6075 6.78431C66.4699 6.47982 66.3996 6.16067 66.3996 5.83037C66.3996 5.35392 66.5239 4.9092 66.7712 4.50479C67.0134 4.10558 67.3364 3.78436 67.7364 3.54572C68.1444 3.29872 68.5937 3.17529 69.0754 3.17529C69.5431 3.17529 69.9752 3.28491 70.3597 3.51292C70.7416 3.73724 71.0426 4.04685 71.2578 4.43541C71.4795 4.82901 71.5854 5.27005 71.5854 5.74746C71.5854 6.25419 71.4438 6.7264 71.1661 7.1553C70.8962 7.57215 70.4699 7.99888 69.9136 8.4375L69.9093 8.44089L69.4752 8.76498L71.9059 11.8347C71.9121 11.8212 71.9183 11.8077 71.9245 11.7941L71.9248 11.7934L71.9251 11.7927C72.1122 11.3837 72.2491 10.9287 72.3336 10.4253L72.3997 10.0315L73.5564 10.1761L73.487 10.6026C73.4351 10.9211 73.3575 11.2369 73.2545 11.55C73.1555 11.8614 73.036 12.1594 72.8959 12.4437C72.8316 12.5774 72.764 12.7058 72.6931 12.8289L74.2271 14.7662H72.7501L71.962 13.7704C71.61 14.0964 71.2026 14.3581 70.7429 14.556C70.1957 14.7915 69.6321 14.9112 69.0547 14.9112C68.4309 14.9112 67.8548 14.772 67.3357 14.4866L67.3341 14.4857ZM71.7894 13.3583C71.7895 13.3582 71.7895 13.3582 71.7895 13.3581C71.8109 13.3366 71.8321 13.3147 71.853 13.2926C71.8791 13.2644 71.9047 13.2357 71.9297 13.2064C71.9476 13.1853 71.9652 13.1639 71.9826 13.1423C71.9848 13.1395 71.987 13.1367 71.9892 13.1339L72.0187 13.1712L72.9516 14.3497H73.3662L73.0397 14.6082L72.1925 13.5383M73.2065 14.148L73.3662 14.3497V13.9333H73.1531L72.5109 13.1219C72.5739 13.028 72.6346 12.9303 72.6931 12.8289M72.4566 13.201L72.1857 12.8589C72.2034 12.8321 72.2208 12.8049 72.2381 12.7774C72.2986 12.6812 72.3569 12.5805 72.4131 12.4753C72.4502 12.4059 72.4863 12.3346 72.5215 12.2614C72.5477 12.2083 72.5731 12.1546 72.5978 12.1005C72.598 12.1001 72.5981 12.0997 72.5983 12.0994C72.6971 11.8824 72.7838 11.6565 72.8583 11.4218C72.9105 11.2634 72.9556 11.1045 72.9937 10.9451C73.0252 10.8136 73.0518 10.6817 73.0737 10.5495C73.0744 10.5449 73.0752 10.5403 73.0759 10.5357L72.7443 10.4942C72.6959 10.7826 72.631 11.0579 72.5496 11.3202C72.5493 11.3213 72.5489 11.3224 72.5486 11.3235C72.479 11.5471 72.3974 11.7613 72.3038 11.9659C72.2804 12.0175 72.2563 12.0683 72.2315 12.1182C72.231 12.1192 72.2305 12.1202 72.23 12.1212C72.2175 12.1463 72.2048 12.1712 72.1919 12.1959C72.1372 12.3005 72.0792 12.4016 72.0177 12.499C72.0005 12.5263 71.9829 12.5535 71.9651 12.5803L68.8828 8.68762L69.6558 8.1105C69.6563 8.11006 69.6569 8.10962 69.6574 8.10918C70.1752 7.70077 70.5525 7.32109 70.7894 6.97014C70.7898 6.96944 70.7903 6.96874 70.7908 6.96804C70.7996 6.95498 70.8082 6.94196 70.8166 6.92898C71.0514 6.56623 71.169 6.17239 71.169 5.74746C71.169 5.33289 71.0774 4.96324 70.8943 4.6385C70.8056 4.47821 70.7001 4.33475 70.5778 4.20813C70.577 4.2073 70.5762 4.20647 70.5754 4.20564C70.4505 4.07678 70.308 3.96542 70.1481 3.87155C69.8337 3.68499 69.4761 3.59172 69.0754 3.59172C68.6677 3.59172 68.2929 3.69536 67.9509 3.90264C67.9496 3.9034 67.9483 3.90417 67.9471 3.90494C67.9466 3.90522 67.9461 3.90551 67.9456 3.90579C67.6086 4.10774 67.3373 4.37703 67.1316 4.71367C67.1311 4.71447 67.1306 4.71528 67.1301 4.71608C67.129 4.71785 67.128 4.71963 67.1269 4.72141C66.9197 5.05998 66.816 5.42963 66.816 5.83037C66.816 6.09984 66.873 6.36068 66.987 6.61287C66.991 6.62168 66.9951 6.63052 66.9993 6.63939C66.9996 6.63998 66.9998 6.64057 67.0001 6.64116C67.1137 6.88226 67.2769 7.14576 67.4897 7.43164C67.4926 7.43551 67.4955 7.43939 67.4984 7.44328C67.4988 7.44381 67.4992 7.44434 67.4996 7.44487C67.6826 7.68754 67.9005 7.96869 68.1534 8.28833C68.2021 8.34988 68.2521 8.41285 68.3034 8.47726C68.3036 8.4775 68.3038 8.47775 68.304 8.47799C68.3055 8.47987 68.307 8.48175 68.3085 8.48363L68.4122 8.61476L67.8939 9.00183C67.8938 9.00188 67.8937 9.00193 67.8937 9.00198C67.4447 9.34739 67.0871 9.66515 66.8211 9.95528C66.7017 10.0841 66.5972 10.2121 66.5077 10.3395C66.5073 10.3401 66.5069 10.3407 66.5064 10.3413C66.3972 10.497 66.3104 10.6516 66.246 10.8052C66.1285 11.0815 66.0697 11.3787 66.0697 11.6965C66.0697 12.2147 66.2011 12.6863 66.4636 13.1112C66.4648 13.1132 66.4661 13.1151 66.4673 13.1171C66.4673 13.1171 66.4673 13.1171 66.4673 13.1171C66.733 13.5358 67.0893 13.8707 67.5363 14.1217C67.5376 14.1224 67.5389 14.1231 67.5403 14.1239C67.5402 14.1239 67.5403 14.1239 67.5403 14.1239C67.9906 14.3705 68.4939 14.4941 69.0501 14.4948C69.0516 14.4948 69.0531 14.4948 69.0547 14.4948C69.0569 14.4948 69.0591 14.4948 69.0613 14.4948C69.5772 14.4939 70.0828 14.3868 70.5782 14.1735C70.5805 14.1725 70.5829 14.1715 70.5852 14.1705C70.5852 14.1705 70.5852 14.1705 70.5852 14.1705C71.0109 13.9863 71.3835 13.7438 71.7027 13.4428C71.732 13.4151 71.7609 13.3869 71.7894 13.3583M71.4857 13.1687C71.5029 13.1515 71.5199 13.134 71.5368 13.1164C71.5566 13.0957 71.5762 13.0748 71.5955 13.0537C71.5962 13.0529 71.5969 13.0522 71.5976 13.0514C71.6351 13.0104 71.6717 12.9685 71.7074 12.9257C71.708 12.925 71.7085 12.9244 71.7091 12.9237C71.7091 12.9238 71.7091 12.9237 71.7091 12.9237C71.7286 12.9004 71.7478 12.8767 71.7668 12.8529L68.6233 8.8814L68.1012 9.27126C68.1011 9.27126 68.1012 9.27125 68.1012 9.27126C68.0999 9.27225 68.0986 9.27326 68.0973 9.27425C67.6645 9.60795 67.321 9.90999 67.0667 10.1804C67.0662 10.1809 67.0658 10.1813 67.0653 10.1818C66.95 10.3046 66.853 10.4208 66.7745 10.5305C66.6832 10.6599 66.6087 10.7941 66.5509 10.9332C66.5507 10.9337 66.5505 10.9341 66.5503 10.9346C66.451 11.1741 66.4014 11.4281 66.4014 11.6965C66.4014 12.1504 66.5178 12.5616 66.7507 12.93C66.7512 12.931 66.7518 12.9319 66.7524 12.9328C66.7529 12.9335 66.7534 12.9343 66.7538 12.9351C66.9878 13.3033 67.3042 13.5979 67.7029 13.8187C67.7038 13.8192 67.7047 13.8197 67.7056 13.8202C67.7062 13.8205 67.7067 13.8208 67.7073 13.8211C68.1081 14.0422 68.5571 14.1563 69.0547 14.1632C69.5712 14.1529 70.0362 14.0567 70.4496 13.8748C70.4496 13.8748 70.4496 13.8748 70.4496 13.8748C70.451 13.8742 70.4524 13.8736 70.4538 13.873C70.8456 13.6999 71.1896 13.4652 71.4857 13.1687ZM70.4169 13.7896C70.4169 13.7896 70.4169 13.7896 70.4169 13.7896L70.2856 13.4921C70.2855 13.4921 70.2856 13.4921 70.2856 13.4921L70.4169 13.7896ZM69.0535 13.7467C68.6212 13.7397 68.2424 13.6408 67.9085 13.4565C67.5661 13.2677 67.301 13.0197 67.1053 12.7117C66.9146 12.4116 66.8178 12.0768 66.8178 11.6965C66.8178 11.3595 66.9145 11.0548 67.1139 10.7718C67.3302 10.4701 67.7328 10.081 68.3528 9.60303L68.548 9.45729L71.2252 12.8396M71.4431 13.1149C71.1544 13.3933 70.8135 13.6184 70.4169 13.7896L71.4431 13.1149ZM71.4431 13.1149L71.4857 13.1687L71.4431 13.1149ZM71.4431 13.1149C71.4584 13.1002 71.4736 13.0852 71.4886 13.0702C71.4886 13.0702 71.4886 13.0702 71.4886 13.0702C71.509 13.0498 71.5291 13.029 71.5489 13.0081C71.5866 12.9674 71.6227 12.9255 71.6572 12.8823M69.0535 13.7467C69.0511 13.7467 69.0488 13.7468 69.0464 13.7468L69.053 14.0784C68.56 14.0781 68.1259 13.9696 67.7414 13.7593C67.7414 13.7593 67.7414 13.7593 67.7414 13.7593C67.7405 13.7587 67.7395 13.7582 67.7385 13.7577C67.3502 13.5393 67.046 13.252 66.8188 12.8938C66.8181 12.8927 66.8175 12.8917 66.8168 12.8906M69.0559 14.0784L69.0605 13.7468C69.0581 13.7468 69.0558 13.7467 69.0535 13.7467M69.0559 14.0784C69.5145 14.0782 69.966 13.9837 70.4135 13.791C70.4147 13.7905 70.4158 13.79 70.4169 13.7896M68.6717 8.42102L69.4485 7.84103C69.4497 7.84002 69.451 7.83902 69.4523 7.83802C69.9512 7.44884 70.3058 7.09746 70.516 6.78388C70.5238 6.77239 70.5315 6.76086 70.5391 6.74929C70.539 6.74931 70.5391 6.74928 70.5391 6.74929C70.7379 6.44423 70.8373 6.11025 70.8373 5.74746C70.8373 5.38908 70.7603 5.07358 70.6062 4.80095C70.6058 4.80017 70.6053 4.79938 70.6049 4.79859C70.532 4.67003 70.4419 4.55103 70.3346 4.44158C70.2259 4.32837 70.1078 4.23371 69.9802 4.15759C69.9797 4.15731 69.9793 4.15703 69.9788 4.15675C69.7173 4.00116 69.4162 3.92337 69.0754 3.92337C68.7319 3.92337 68.414 4.01045 68.1218 4.18461C68.1211 4.18503 68.1204 4.18546 68.1197 4.18588C68.1187 4.18647 68.1177 4.18706 68.1167 4.18766C67.8265 4.36385 67.5916 4.59704 67.412 4.88724C67.4109 4.88893 67.4099 4.89063 67.4089 4.89233C67.4086 4.89274 67.4084 4.89314 67.4081 4.89355C67.2345 5.18199 67.1476 5.49426 67.1476 5.83037C67.1476 6.04876 67.1936 6.26397 67.2855 6.47602C67.2858 6.47657 67.286 6.47712 67.2862 6.47767C67.2901 6.48647 67.294 6.49526 67.298 6.50405C67.3965 6.71811 67.5468 6.96224 67.7489 7.23645C67.7493 7.23694 67.7496 7.23742 67.75 7.23791C67.753 7.24202 67.756 7.24614 67.7591 7.25027C67.9348 7.48455 68.1527 7.76599 68.4128 8.09461C68.4596 8.15366 68.5077 8.21423 68.5571 8.27632L68.6717 8.42102ZM69.1958 7.50995L68.7466 7.84536C68.4852 7.51512 68.2674 7.23397 68.093 7.00145C67.8967 6.73622 67.7608 6.51345 67.6767 6.33105C67.5997 6.16073 67.564 5.99492 67.564 5.83037C67.564 5.56885 67.6308 5.3297 67.767 5.1049C67.912 4.87122 68.0991 4.68571 68.3319 4.54418C68.5599 4.40757 68.805 4.33979 69.0754 4.33979C69.4775 4.33979 69.7862 4.47165 70.0342 4.72996L70.0357 4.7315L70.0372 4.73303C70.2878 4.98879 70.4209 5.31549 70.4209 5.74746C70.4209 6.03947 70.3395 6.30339 70.1719 6.5494L70.171 6.55071L70.1701 6.55203C69.9955 6.81245 69.6803 7.13209 69.1958 7.50995ZM73.2065 14.148L72.4566 13.201L73.2065 14.148Z" fill="black"/>
<path d="M53.7129 14.3497V3.73682H56.8221C57.4163 3.73682 57.9414 3.86292 58.3974 4.11511C58.8569 4.36731 59.2162 4.71969 59.4753 5.17226C59.7379 5.62482 59.8692 6.15513 59.8692 6.76316C59.8692 7.36428 59.7379 7.89112 59.4753 8.34372C59.2162 8.79279 58.8569 9.1435 58.3974 9.39569C57.9414 9.64438 57.4163 9.76873 56.8221 9.76873H53.8787V9.43708H56.8221C57.3541 9.43708 57.824 9.32656 58.2316 9.10544C58.6393 8.88432 58.9589 8.57342 59.1903 8.17268C59.4218 7.77194 59.5375 7.30209 59.5375 6.76316C59.5375 6.22076 59.4218 5.74747 59.1903 5.34327C58.9589 4.93906 58.6393 4.62641 58.2316 4.4053C57.824 4.18075 57.3541 4.06847 56.8221 4.06847H54.0445V14.3497H53.7129ZM57.7549 9.52004L60.3666 14.3497H59.9935L57.3818 9.52004H57.7549Z" fill="black"/>
<path fill-rule="evenodd" clip-rule="evenodd" d="M53.2969 14.7661V3.32031H56.8225C57.477 3.32031 58.073 3.45967 58.5988 3.7503C59.1245 4.03899 59.5393 4.4455 59.8365 4.9643C60.1412 5.48977 60.286 6.09417 60.286 6.76308C60.286 7.42632 60.1406 8.02727 59.8361 8.55221C59.5386 9.06779 59.1236 9.47231 58.5982 9.76067L58.5972 9.7612C58.5358 9.79469 58.4735 9.82613 58.4102 9.85556L61.0656 14.7661H59.7457L57.257 10.1639C57.1152 10.1781 56.9704 10.1851 56.8225 10.1851H54.4614V14.7661H53.2969ZM59.4757 8.34364C59.4766 8.34203 59.4776 8.34043 59.4785 8.33882C59.7392 7.8873 59.8696 7.36207 59.8696 6.76308C59.8696 6.15767 59.7394 5.62933 59.4791 5.17805C59.478 5.17609 59.4769 5.17414 59.4757 5.17218C59.2166 4.71961 58.8573 4.36723 58.3978 4.11504C58.3963 4.1142 58.3948 4.11336 58.3933 4.11252C58.3926 4.11216 58.392 4.11181 58.3913 4.11145C57.9369 3.86165 57.4139 3.73674 56.8225 3.73674H53.7133V14.3497H54.0449V9.76865H56.8225C56.8961 9.76865 56.9687 9.76674 57.0402 9.76292C57.157 9.75669 57.271 9.74535 57.3822 9.72892C57.3861 9.72834 57.39 9.72776 57.3939 9.72716C57.4248 9.72249 57.4555 9.71742 57.486 9.71195L59.9939 14.3497H60.367L57.8172 9.63444C57.8461 9.62601 57.8747 9.61719 57.9032 9.60797C58.0091 9.57364 58.1119 9.53382 58.2117 9.48849C58.2727 9.46076 58.3326 9.43098 58.3914 9.39914C58.3913 9.39914 58.3914 9.39913 58.3914 9.39914C58.3935 9.39797 58.3957 9.39679 58.3978 9.39561C58.8573 9.14343 59.2166 8.79271 59.4757 8.34364ZM58.232 9.10536C58.2337 9.10446 58.2354 9.10355 58.237 9.10263C58.2373 9.10249 58.2376 9.10235 58.2378 9.10221C58.6411 8.8822 58.9577 8.574 59.1879 8.17755C59.188 8.17732 59.1881 8.17709 59.1883 8.17685C59.1891 8.17544 59.1899 8.17402 59.1907 8.1726C59.4222 7.77186 59.5379 7.30202 59.5379 6.76308C59.5379 6.22068 59.4222 5.74739 59.1907 5.34319C59.1899 5.34178 59.1891 5.34037 59.1883 5.33896C59.188 5.3384 59.1876 5.33785 59.1873 5.33729C58.9571 4.9376 58.6403 4.62783 58.2371 4.40797C58.2367 4.4078 58.2364 4.40762 58.2361 4.40745C58.2347 4.40671 58.2334 4.40597 58.232 4.40523C57.8244 4.18067 57.3545 4.0684 56.8225 4.0684H54.0449V9.43701H56.8225C56.8363 9.43701 56.8501 9.43693 56.8638 9.43678C57.0438 9.43483 57.2166 9.42007 57.3822 9.39251C57.5109 9.37108 57.6353 9.34191 57.7553 9.30499C57.8575 9.27357 57.9565 9.23653 58.0524 9.19387C58.1135 9.16665 58.1734 9.13715 58.232 9.10536ZM54.4614 9.02058H56.8225C57.2955 9.02058 57.6953 8.92277 58.0334 8.73933C58.3738 8.55475 58.6372 8.29837 58.8301 7.96433C59.0194 7.63665 59.1215 7.24103 59.1215 6.76308C59.1215 6.28125 59.0192 5.88164 58.8293 5.55012C58.6362 5.21275 58.3728 4.95533 58.0335 4.77128L58.0323 4.77063L58.0311 4.76996C57.6934 4.58392 57.2945 4.48482 56.8225 4.48482H54.4614V9.02058Z" fill="black"/>
<path d="M41.8746 3.73682V14.3497H41.543V3.73682H41.8746Z" fill="black"/>
<path fill-rule="evenodd" clip-rule="evenodd" d="M42.2905 3.32031V14.7661H41.126V3.32031H42.2905ZM41.874 14.3497V3.73674H41.5424V14.3497H41.874Z" fill="black"/>
<path d="M20.4229 3.73682H20.713L25.0453 13.8523H25.0867L29.4189 3.73682H29.7091V14.3497H29.3774V4.77323H29.336L25.2318 14.3497H24.9002L20.7959 4.77323H20.7545V14.3497H20.4229V3.73682Z" fill="black"/>
<path fill-rule="evenodd" clip-rule="evenodd" d="M20.0068 3.32031H20.9881L25.0664 12.8428L29.1446 3.32031H30.126V14.7661H28.9614V6.70537L25.5068 14.7661H24.626L21.1713 6.70534V14.7661H20.0068V3.32031ZM24.9006 14.3497H25.2322L29.3364 4.77316H29.3778V14.3497H29.7096V3.73674H29.4193L25.0871 13.8522H25.0457L20.7134 3.73674H20.4233V14.3497H20.7549V4.77316H20.7963L24.9006 14.3497Z" fill="black"/>
<path fill-rule="evenodd" clip-rule="evenodd" d="M38.7159 4.01904H33.0156V3.70312H38.7159V4.01904Z" fill="black"/>
<path fill-rule="evenodd" clip-rule="evenodd" d="M39.1327 4.43539H32.5996V3.28662H39.1327V4.43539ZM33.016 4.01896H38.7163V3.70305H33.016V4.01896Z" fill="black"/>
<path fill-rule="evenodd" clip-rule="evenodd" d="M38.7159 9.1494H33.0156V8.8335H38.7159V9.1494Z" fill="black"/>
<path fill-rule="evenodd" clip-rule="evenodd" d="M39.1327 9.56574H32.5996V8.41699H39.1327V9.56574ZM33.016 9.14932H38.7163V8.83342H33.016V9.14932Z" fill="black"/>
<path fill-rule="evenodd" clip-rule="evenodd" d="M38.7159 14.2799H33.0156V13.9639H38.7159V14.2799Z" fill="black"/>
<path fill-rule="evenodd" clip-rule="evenodd" d="M39.1327 14.6962H32.5996V13.5474H39.1327V14.6962ZM33.016 14.2798H38.7163V13.9638H33.016V14.2798Z" fill="black"/>
<path fill-rule="evenodd" clip-rule="evenodd" d="M50.9142 4.01904H45.2139V3.70312H50.9142V4.01904Z" fill="black"/>
<path fill-rule="evenodd" clip-rule="evenodd" d="M51.331 4.43539H44.7979V3.28662H51.331V4.43539ZM45.2143 4.01896H50.9146V3.70305H45.2143V4.01896Z" fill="black"/>
<path fill-rule="evenodd" clip-rule="evenodd" d="M50.9142 9.1494H45.2139V8.8335H50.9142V9.1494Z" fill="black"/>
<path fill-rule="evenodd" clip-rule="evenodd" d="M51.331 9.56574H44.7979V8.41699H51.331V9.56574ZM45.2143 9.14932H50.9146V8.83342H45.2143V9.14932Z" fill="black"/>
<path fill-rule="evenodd" clip-rule="evenodd" d="M50.9142 14.2799H45.2139V13.9639H50.9142V14.2799Z" fill="black"/>
<path fill-rule="evenodd" clip-rule="evenodd" d="M51.331 14.6962H44.7979V13.5474H51.331V14.6962ZM45.2143 14.2798H50.9146V13.9638H45.2143V14.2798Z" fill="black"/>
<path d="M0.436523 0H16.6771V18H0.436523V0Z" fill="#0A0909"/>
<path fill-rule="evenodd" clip-rule="evenodd" d="M14.2143 2.43604L14.2142 13.77L13.8902 13.7736L10.3731 8.87423L6.8721 13.7692L6.56226 13.7772V11.1801L7.21579 10.279C7.21816 10.2757 7.22052 10.2724 7.22286 10.2692L7.22911 10.2604C7.23351 10.2543 7.23793 10.2481 7.2424 10.2419V10.2424L9.84684 6.65248V5.96742C9.3448 6.66884 8.84284 7.37032 8.34084 8.07181C7.83885 8.77329 7.33685 9.4748 6.83485 10.1762C6.719 10.2106 6.63289 10.1784 6.56202 10.1166C6.50008 10.0626 6.44961 9.98625 6.4007 9.91221C6.37684 9.87615 6.35337 9.84058 6.3291 9.80844C5.99232 9.34137 5.65634 8.87373 5.32041 8.40616L5.32031 8.406L5.32013 8.40575L5.32001 8.40558C4.7335 7.58924 4.14711 6.77308 3.55681 5.96015L3.55465 13.6865H3.55536V14.9096H14.2143V15.5918H2.87314L2.87305 4.25501L3.20078 4.25283L3.20475 4.25836C4.324 5.82153 5.44325 7.38471 6.56226 8.94785C6.58633 8.98158 6.61046 9.01531 6.63459 9.04896C6.65871 9.08269 6.68283 9.11634 6.7069 9.15007L10.2181 4.25064C10.326 4.25573 10.4341 4.26082 10.5422 4.26591L10.5335 6.88858L7.50047 11.0695L7.49757 11.0736L7.2424 11.4253V12.054C7.62382 11.5227 8.00519 10.9914 8.38658 10.4601L8.38952 10.4561C8.87541 9.77929 9.36129 9.10243 9.84734 8.42549C9.91672 8.32879 9.98618 8.23198 10.0557 8.1352C10.1252 8.03842 10.1946 7.94163 10.264 7.84491L10.4956 7.85291C11.001 8.55466 11.5064 9.25642 12.0118 9.95818C12.518 10.661 13.0243 11.364 13.5305 12.0668L13.532 3.11834H2.87305V2.43604L14.2143 2.43604Z" fill="white"/>
</svg>
